<mxfile host="app.diagrams.net" modified="2023-06-16T12:10:12.129Z" agent="Mozilla/5.0 (Windows NT 10.0; Win64; x64) AppleWebKit/537.36 (KHTML, like Gecko) Chrome/114.0.0.0 Safari/537.36" etag="UYRid0rFAVlKk6qguI9v" version="21.4.0" type="device">
  <diagram id="C5RBs43oDa-KdzZeNtuy" name="Page-1">
    <mxGraphModel dx="4580" dy="1940" grid="1" gridSize="10" guides="1" tooltips="1" connect="1" arrows="1" fold="1" page="0" pageScale="1" pageWidth="827" pageHeight="1169" math="0" shadow="0">
      <root>
        <mxCell id="WIyWlLk6GJQsqaUBKTNV-0" />
        <mxCell id="WIyWlLk6GJQsqaUBKTNV-1" parent="WIyWlLk6GJQsqaUBKTNV-0" />
        <mxCell id="5Mf-sOE8AnQbxtJJ7-1W-112" style="edgeStyle=orthogonalEdgeStyle;rounded=0;orthogonalLoop=1;jettySize=auto;html=1;entryX=0.5;entryY=0;entryDx=0;entryDy=0;exitX=0.5;exitY=1;exitDx=0;exitDy=0;" edge="1" parent="WIyWlLk6GJQsqaUBKTNV-1" source="zkfFHV4jXpPFQw0GAbJ--0" target="zkfFHV4jXpPFQw0GAbJ--6">
          <mxGeometry relative="1" as="geometry">
            <Array as="points">
              <mxPoint x="10" y="900" />
              <mxPoint x="10" y="953" />
              <mxPoint x="-655" y="953" />
            </Array>
          </mxGeometry>
        </mxCell>
        <mxCell id="5Mf-sOE8AnQbxtJJ7-1W-115" style="edgeStyle=orthogonalEdgeStyle;rounded=0;orthogonalLoop=1;jettySize=auto;html=1;exitX=0.5;exitY=1;exitDx=0;exitDy=0;entryX=0.5;entryY=0;entryDx=0;entryDy=0;" edge="1" parent="WIyWlLk6GJQsqaUBKTNV-1" source="zkfFHV4jXpPFQw0GAbJ--0" target="5Mf-sOE8AnQbxtJJ7-1W-24">
          <mxGeometry relative="1" as="geometry">
            <Array as="points">
              <mxPoint x="10" y="900" />
              <mxPoint x="10" y="953" />
              <mxPoint x="190" y="953" />
            </Array>
          </mxGeometry>
        </mxCell>
        <mxCell id="5Mf-sOE8AnQbxtJJ7-1W-116" style="edgeStyle=orthogonalEdgeStyle;rounded=0;orthogonalLoop=1;jettySize=auto;html=1;exitX=0.5;exitY=1;exitDx=0;exitDy=0;" edge="1" parent="WIyWlLk6GJQsqaUBKTNV-1" source="zkfFHV4jXpPFQw0GAbJ--0" target="5Mf-sOE8AnQbxtJJ7-1W-34">
          <mxGeometry relative="1" as="geometry">
            <Array as="points">
              <mxPoint x="10" y="900" />
              <mxPoint x="10" y="953" />
              <mxPoint x="-280" y="953" />
            </Array>
          </mxGeometry>
        </mxCell>
        <mxCell id="5Mf-sOE8AnQbxtJJ7-1W-117" style="edgeStyle=orthogonalEdgeStyle;rounded=0;orthogonalLoop=1;jettySize=auto;html=1;exitX=0.5;exitY=1;exitDx=0;exitDy=0;" edge="1" parent="WIyWlLk6GJQsqaUBKTNV-1" source="zkfFHV4jXpPFQw0GAbJ--0" target="5Mf-sOE8AnQbxtJJ7-1W-103">
          <mxGeometry relative="1" as="geometry">
            <Array as="points">
              <mxPoint x="10" y="900" />
              <mxPoint x="10" y="953" />
              <mxPoint x="499" y="953" />
            </Array>
          </mxGeometry>
        </mxCell>
        <mxCell id="5Mf-sOE8AnQbxtJJ7-1W-121" style="edgeStyle=orthogonalEdgeStyle;rounded=0;orthogonalLoop=1;jettySize=auto;html=1;exitX=0.5;exitY=1;exitDx=0;exitDy=0;entryX=0.5;entryY=0;entryDx=0;entryDy=0;" edge="1" parent="WIyWlLk6GJQsqaUBKTNV-1" source="zkfFHV4jXpPFQw0GAbJ--0" target="5Mf-sOE8AnQbxtJJ7-1W-43">
          <mxGeometry relative="1" as="geometry">
            <Array as="points">
              <mxPoint x="10" y="900" />
              <mxPoint x="10" y="953" />
              <mxPoint x="649" y="953" />
            </Array>
          </mxGeometry>
        </mxCell>
        <mxCell id="5Mf-sOE8AnQbxtJJ7-1W-124" style="edgeStyle=orthogonalEdgeStyle;rounded=0;orthogonalLoop=1;jettySize=auto;html=1;exitX=0.5;exitY=1;exitDx=0;exitDy=0;entryX=0.5;entryY=0;entryDx=0;entryDy=0;" edge="1" parent="WIyWlLk6GJQsqaUBKTNV-1" source="zkfFHV4jXpPFQw0GAbJ--0" target="5Mf-sOE8AnQbxtJJ7-1W-76">
          <mxGeometry relative="1" as="geometry">
            <Array as="points">
              <mxPoint x="10" y="900" />
              <mxPoint x="10" y="950" />
              <mxPoint x="-500" y="950" />
              <mxPoint x="-500" y="1190" />
              <mxPoint x="-575" y="1190" />
            </Array>
          </mxGeometry>
        </mxCell>
        <mxCell id="5Mf-sOE8AnQbxtJJ7-1W-127" style="edgeStyle=orthogonalEdgeStyle;rounded=0;orthogonalLoop=1;jettySize=auto;html=1;exitX=0.5;exitY=1;exitDx=0;exitDy=0;entryX=0.5;entryY=0;entryDx=0;entryDy=0;" edge="1" parent="WIyWlLk6GJQsqaUBKTNV-1" source="zkfFHV4jXpPFQw0GAbJ--0" target="5Mf-sOE8AnQbxtJJ7-1W-109">
          <mxGeometry relative="1" as="geometry">
            <Array as="points">
              <mxPoint x="10" y="900" />
              <mxPoint x="10" y="953" />
              <mxPoint x="769" y="953" />
            </Array>
          </mxGeometry>
        </mxCell>
        <mxCell id="5Mf-sOE8AnQbxtJJ7-1W-132" style="edgeStyle=orthogonalEdgeStyle;rounded=0;orthogonalLoop=1;jettySize=auto;html=1;entryX=1;entryY=0.5;entryDx=0;entryDy=0;" edge="1" parent="WIyWlLk6GJQsqaUBKTNV-1" target="5Mf-sOE8AnQbxtJJ7-1W-51">
          <mxGeometry relative="1" as="geometry">
            <mxPoint x="20" y="900" as="sourcePoint" />
            <Array as="points">
              <mxPoint x="15" y="900" />
              <mxPoint x="10" y="900" />
              <mxPoint x="10" y="950" />
              <mxPoint x="400" y="950" />
              <mxPoint x="400" y="1339" />
            </Array>
          </mxGeometry>
        </mxCell>
        <mxCell id="5Mf-sOE8AnQbxtJJ7-1W-135" style="edgeStyle=orthogonalEdgeStyle;rounded=0;orthogonalLoop=1;jettySize=auto;html=1;exitX=0.5;exitY=1;exitDx=0;exitDy=0;entryX=1;entryY=0.25;entryDx=0;entryDy=0;" edge="1" parent="WIyWlLk6GJQsqaUBKTNV-1" source="zkfFHV4jXpPFQw0GAbJ--0" target="5Mf-sOE8AnQbxtJJ7-1W-49">
          <mxGeometry relative="1" as="geometry">
            <Array as="points">
              <mxPoint x="10" y="900" />
              <mxPoint x="10" y="950" />
              <mxPoint x="847" y="950" />
              <mxPoint x="847" y="1107" />
            </Array>
          </mxGeometry>
        </mxCell>
        <mxCell id="5Mf-sOE8AnQbxtJJ7-1W-136" style="edgeStyle=orthogonalEdgeStyle;rounded=0;orthogonalLoop=1;jettySize=auto;html=1;exitX=0.5;exitY=1;exitDx=0;exitDy=0;entryX=1;entryY=0.5;entryDx=0;entryDy=0;" edge="1" parent="WIyWlLk6GJQsqaUBKTNV-1" source="zkfFHV4jXpPFQw0GAbJ--0" target="5Mf-sOE8AnQbxtJJ7-1W-100">
          <mxGeometry relative="1" as="geometry">
            <Array as="points">
              <mxPoint x="10" y="900" />
              <mxPoint x="10" y="950" />
              <mxPoint x="869" y="950" />
              <mxPoint x="869" y="1218" />
            </Array>
          </mxGeometry>
        </mxCell>
        <mxCell id="zkfFHV4jXpPFQw0GAbJ--0" value="Plant" style="swimlane;fontStyle=1;align=center;verticalAlign=top;childLayout=stackLayout;horizontal=1;startSize=30;horizontalStack=0;resizeParent=1;resizeLast=0;collapsible=1;marginBottom=0;rounded=0;shadow=0;strokeWidth=1;fontFamily=Helvetica;" parent="WIyWlLk6GJQsqaUBKTNV-1" vertex="1">
          <mxGeometry x="-90" y="50" width="210" height="850" as="geometry">
            <mxRectangle x="-780" y="50" width="160" height="26" as="alternateBounds" />
          </mxGeometry>
        </mxCell>
        <mxCell id="zkfFHV4jXpPFQw0GAbJ--1" value="# x : int" style="text;align=left;verticalAlign=top;spacingLeft=4;spacingRight=4;overflow=hidden;rotatable=0;points=[[0,0.5],[1,0.5]];portConstraint=eastwest;fontFamily=Helvetica;" parent="zkfFHV4jXpPFQw0GAbJ--0" vertex="1">
          <mxGeometry y="30" width="210" height="26" as="geometry" />
        </mxCell>
        <mxCell id="zkfFHV4jXpPFQw0GAbJ--2" value="# y : int" style="text;align=left;verticalAlign=top;spacingLeft=4;spacingRight=4;overflow=hidden;rotatable=0;points=[[0,0.5],[1,0.5]];portConstraint=eastwest;rounded=0;shadow=0;html=0;fontFamily=Helvetica;" parent="zkfFHV4jXpPFQw0GAbJ--0" vertex="1">
          <mxGeometry y="56" width="210" height="28" as="geometry" />
        </mxCell>
        <mxCell id="zkfFHV4jXpPFQw0GAbJ--3" value="# idle : PImage[]" style="text;align=left;verticalAlign=top;spacingLeft=4;spacingRight=4;overflow=hidden;rotatable=0;points=[[0,0.5],[1,0.5]];portConstraint=eastwest;rounded=0;shadow=0;html=0;fontFamily=Helvetica;" parent="zkfFHV4jXpPFQw0GAbJ--0" vertex="1">
          <mxGeometry y="84" width="210" height="26" as="geometry" />
        </mxCell>
        <mxCell id="AE0YScjFMEkMr-I_exwc-0" value="# seed : PImage" style="text;align=left;verticalAlign=top;spacingLeft=4;spacingRight=4;overflow=hidden;rotatable=0;points=[[0,0.5],[1,0.5]];portConstraint=eastwest;rounded=0;shadow=0;html=0;fontFamily=Helvetica;" vertex="1" parent="zkfFHV4jXpPFQw0GAbJ--0">
          <mxGeometry y="110" width="210" height="26" as="geometry" />
        </mxCell>
        <mxCell id="AE0YScjFMEkMr-I_exwc-3" value="# price : int " style="text;align=left;verticalAlign=top;spacingLeft=4;spacingRight=4;overflow=hidden;rotatable=0;points=[[0,0.5],[1,0.5]];portConstraint=eastwest;rounded=0;shadow=0;html=0;fontFamily=Helvetica;" vertex="1" parent="zkfFHV4jXpPFQw0GAbJ--0">
          <mxGeometry y="136" width="210" height="26" as="geometry" />
        </mxCell>
        <mxCell id="AE0YScjFMEkMr-I_exwc-7" value="# hp : int " style="text;align=left;verticalAlign=top;spacingLeft=4;spacingRight=4;overflow=hidden;rotatable=0;points=[[0,0.5],[1,0.5]];portConstraint=eastwest;rounded=0;shadow=0;html=0;fontFamily=Helvetica;" vertex="1" parent="zkfFHV4jXpPFQw0GAbJ--0">
          <mxGeometry y="162" width="210" height="26" as="geometry" />
        </mxCell>
        <mxCell id="AE0YScjFMEkMr-I_exwc-8" value="# recharge : int " style="text;align=left;verticalAlign=top;spacingLeft=4;spacingRight=4;overflow=hidden;rotatable=0;points=[[0,0.5],[1,0.5]];portConstraint=eastwest;rounded=0;shadow=0;html=0;fontFamily=Helvetica;" vertex="1" parent="zkfFHV4jXpPFQw0GAbJ--0">
          <mxGeometry y="188" width="210" height="26" as="geometry" />
        </mxCell>
        <mxCell id="AE0YScjFMEkMr-I_exwc-9" value="# dmg : int " style="text;align=left;verticalAlign=top;spacingLeft=4;spacingRight=4;overflow=hidden;rotatable=0;points=[[0,0.5],[1,0.5]];portConstraint=eastwest;rounded=0;shadow=0;html=0;fontFamily=Helvetica;" vertex="1" parent="zkfFHV4jXpPFQw0GAbJ--0">
          <mxGeometry y="214" width="210" height="26" as="geometry" />
        </mxCell>
        <mxCell id="AE0YScjFMEkMr-I_exwc-10" value="# timer : int " style="text;align=left;verticalAlign=top;spacingLeft=4;spacingRight=4;overflow=hidden;rotatable=0;points=[[0,0.5],[1,0.5]];portConstraint=eastwest;rounded=0;shadow=0;html=0;fontFamily=Helvetica;" vertex="1" parent="zkfFHV4jXpPFQw0GAbJ--0">
          <mxGeometry y="240" width="210" height="26" as="geometry" />
        </mxCell>
        <mxCell id="AE0YScjFMEkMr-I_exwc-11" value="# ctr : int " style="text;align=left;verticalAlign=top;spacingLeft=4;spacingRight=4;overflow=hidden;rotatable=0;points=[[0,0.5],[1,0.5]];portConstraint=eastwest;rounded=0;shadow=0;html=0;fontFamily=Helvetica;" vertex="1" parent="zkfFHV4jXpPFQw0GAbJ--0">
          <mxGeometry y="266" width="210" height="26" as="geometry" />
        </mxCell>
        <mxCell id="AE0YScjFMEkMr-I_exwc-12" value="# idleSize : int " style="text;align=left;verticalAlign=top;spacingLeft=4;spacingRight=4;overflow=hidden;rotatable=0;points=[[0,0.5],[1,0.5]];portConstraint=eastwest;rounded=0;shadow=0;html=0;fontFamily=Helvetica;" vertex="1" parent="zkfFHV4jXpPFQw0GAbJ--0">
          <mxGeometry y="292" width="210" height="26" as="geometry" />
        </mxCell>
        <mxCell id="AE0YScjFMEkMr-I_exwc-13" value="# health : int " style="text;align=left;verticalAlign=top;spacingLeft=4;spacingRight=4;overflow=hidden;rotatable=0;points=[[0,0.5],[1,0.5]];portConstraint=eastwest;rounded=0;shadow=0;html=0;fontFamily=Helvetica;" vertex="1" parent="zkfFHV4jXpPFQw0GAbJ--0">
          <mxGeometry y="318" width="210" height="26" as="geometry" />
        </mxCell>
        <mxCell id="zkfFHV4jXpPFQw0GAbJ--4" value="" style="line;html=1;strokeWidth=1;align=left;verticalAlign=middle;spacingTop=-1;spacingLeft=3;spacingRight=3;rotatable=0;labelPosition=right;points=[];portConstraint=eastwest;" parent="zkfFHV4jXpPFQw0GAbJ--0" vertex="1">
          <mxGeometry y="344" width="210" height="8" as="geometry" />
        </mxCell>
        <mxCell id="AE0YScjFMEkMr-I_exwc-4" value="+ drawIdle (app : PApplet) : void" style="text;align=left;verticalAlign=top;spacingLeft=4;spacingRight=4;overflow=hidden;rotatable=0;points=[[0,0.5],[1,0.5]];portConstraint=eastwest;rounded=0;shadow=0;html=0;fontFamily=Helvetica;" vertex="1" parent="zkfFHV4jXpPFQw0GAbJ--0">
          <mxGeometry y="352" width="210" height="26" as="geometry" />
        </mxCell>
        <mxCell id="AE0YScjFMEkMr-I_exwc-6" value="+ getX() : int" style="text;align=left;verticalAlign=top;spacingLeft=4;spacingRight=4;overflow=hidden;rotatable=0;points=[[0,0.5],[1,0.5]];portConstraint=eastwest;rounded=0;shadow=0;html=0;" vertex="1" parent="zkfFHV4jXpPFQw0GAbJ--0">
          <mxGeometry y="378" width="210" height="26" as="geometry" />
        </mxCell>
        <mxCell id="zkfFHV4jXpPFQw0GAbJ--5" value="+ setX(x : int) : void" style="text;align=left;verticalAlign=top;spacingLeft=4;spacingRight=4;overflow=hidden;rotatable=0;points=[[0,0.5],[1,0.5]];portConstraint=eastwest;" parent="zkfFHV4jXpPFQw0GAbJ--0" vertex="1">
          <mxGeometry y="404" width="210" height="26" as="geometry" />
        </mxCell>
        <mxCell id="5Mf-sOE8AnQbxtJJ7-1W-0" value="+ getY() : int" style="text;align=left;verticalAlign=top;spacingLeft=4;spacingRight=4;overflow=hidden;rotatable=0;points=[[0,0.5],[1,0.5]];portConstraint=eastwest;" vertex="1" parent="zkfFHV4jXpPFQw0GAbJ--0">
          <mxGeometry y="430" width="210" height="26" as="geometry" />
        </mxCell>
        <mxCell id="5Mf-sOE8AnQbxtJJ7-1W-1" value="+ setY(y : int) : void" style="text;align=left;verticalAlign=top;spacingLeft=4;spacingRight=4;overflow=hidden;rotatable=0;points=[[0,0.5],[1,0.5]];portConstraint=eastwest;" vertex="1" parent="zkfFHV4jXpPFQw0GAbJ--0">
          <mxGeometry y="456" width="210" height="26" as="geometry" />
        </mxCell>
        <mxCell id="5Mf-sOE8AnQbxtJJ7-1W-7" value="+ getIdle() : PImage[ ]" style="text;align=left;verticalAlign=top;spacingLeft=4;spacingRight=4;overflow=hidden;rotatable=0;points=[[0,0.5],[1,0.5]];portConstraint=eastwest;rounded=0;shadow=0;html=0;" vertex="1" parent="zkfFHV4jXpPFQw0GAbJ--0">
          <mxGeometry y="482" width="210" height="26" as="geometry" />
        </mxCell>
        <mxCell id="5Mf-sOE8AnQbxtJJ7-1W-2" value="+ setIdle(idle : PImage [ ]) : void" style="text;align=left;verticalAlign=top;spacingLeft=4;spacingRight=4;overflow=hidden;rotatable=0;points=[[0,0.5],[1,0.5]];portConstraint=eastwest;fontFamily=Helvetica;" vertex="1" parent="zkfFHV4jXpPFQw0GAbJ--0">
          <mxGeometry y="508" width="210" height="26" as="geometry" />
        </mxCell>
        <mxCell id="5Mf-sOE8AnQbxtJJ7-1W-3" value="+ getSeed() : PImage" style="text;align=left;verticalAlign=top;spacingLeft=4;spacingRight=4;overflow=hidden;rotatable=0;points=[[0,0.5],[1,0.5]];portConstraint=eastwest;" vertex="1" parent="zkfFHV4jXpPFQw0GAbJ--0">
          <mxGeometry y="534" width="210" height="26" as="geometry" />
        </mxCell>
        <mxCell id="5Mf-sOE8AnQbxtJJ7-1W-8" value="+ setSeed(seed : PImage) : void" style="text;align=left;verticalAlign=top;spacingLeft=4;spacingRight=4;overflow=hidden;rotatable=0;points=[[0,0.5],[1,0.5]];portConstraint=eastwest;fontFamily=Helvetica;" vertex="1" parent="zkfFHV4jXpPFQw0GAbJ--0">
          <mxGeometry y="560" width="210" height="26" as="geometry" />
        </mxCell>
        <mxCell id="5Mf-sOE8AnQbxtJJ7-1W-10" value="+ getHp() : int" style="text;align=left;verticalAlign=top;spacingLeft=4;spacingRight=4;overflow=hidden;rotatable=0;points=[[0,0.5],[1,0.5]];portConstraint=eastwest;" vertex="1" parent="zkfFHV4jXpPFQw0GAbJ--0">
          <mxGeometry y="586" width="210" height="26" as="geometry" />
        </mxCell>
        <mxCell id="5Mf-sOE8AnQbxtJJ7-1W-11" value="+ setHp(hp : int) : void" style="text;align=left;verticalAlign=top;spacingLeft=4;spacingRight=4;overflow=hidden;rotatable=0;points=[[0,0.5],[1,0.5]];portConstraint=eastwest;" vertex="1" parent="zkfFHV4jXpPFQw0GAbJ--0">
          <mxGeometry y="612" width="210" height="26" as="geometry" />
        </mxCell>
        <mxCell id="5Mf-sOE8AnQbxtJJ7-1W-12" value="+ getTimer() : int" style="text;align=left;verticalAlign=top;spacingLeft=4;spacingRight=4;overflow=hidden;rotatable=0;points=[[0,0.5],[1,0.5]];portConstraint=eastwest;" vertex="1" parent="zkfFHV4jXpPFQw0GAbJ--0">
          <mxGeometry y="638" width="210" height="26" as="geometry" />
        </mxCell>
        <mxCell id="5Mf-sOE8AnQbxtJJ7-1W-13" value="+ setTimer(timer : int) : void" style="text;align=left;verticalAlign=top;spacingLeft=4;spacingRight=4;overflow=hidden;rotatable=0;points=[[0,0.5],[1,0.5]];portConstraint=eastwest;" vertex="1" parent="zkfFHV4jXpPFQw0GAbJ--0">
          <mxGeometry y="664" width="210" height="26" as="geometry" />
        </mxCell>
        <mxCell id="5Mf-sOE8AnQbxtJJ7-1W-14" value="+ getRecharge() : int" style="text;align=left;verticalAlign=top;spacingLeft=4;spacingRight=4;overflow=hidden;rotatable=0;points=[[0,0.5],[1,0.5]];portConstraint=eastwest;" vertex="1" parent="zkfFHV4jXpPFQw0GAbJ--0">
          <mxGeometry y="690" width="210" height="26" as="geometry" />
        </mxCell>
        <mxCell id="5Mf-sOE8AnQbxtJJ7-1W-16" value="+ getPrice() : int" style="text;align=left;verticalAlign=top;spacingLeft=4;spacingRight=4;overflow=hidden;rotatable=0;points=[[0,0.5],[1,0.5]];portConstraint=eastwest;" vertex="1" parent="zkfFHV4jXpPFQw0GAbJ--0">
          <mxGeometry y="716" width="210" height="26" as="geometry" />
        </mxCell>
        <mxCell id="5Mf-sOE8AnQbxtJJ7-1W-17" value="+ getCtr() : int" style="text;align=left;verticalAlign=top;spacingLeft=4;spacingRight=4;overflow=hidden;rotatable=0;points=[[0,0.5],[1,0.5]];portConstraint=eastwest;" vertex="1" parent="zkfFHV4jXpPFQw0GAbJ--0">
          <mxGeometry y="742" width="210" height="26" as="geometry" />
        </mxCell>
        <mxCell id="5Mf-sOE8AnQbxtJJ7-1W-18" value="+ setCtr(ctr : int) : void" style="text;align=left;verticalAlign=top;spacingLeft=4;spacingRight=4;overflow=hidden;rotatable=0;points=[[0,0.5],[1,0.5]];portConstraint=eastwest;" vertex="1" parent="zkfFHV4jXpPFQw0GAbJ--0">
          <mxGeometry y="768" width="210" height="26" as="geometry" />
        </mxCell>
        <mxCell id="5Mf-sOE8AnQbxtJJ7-1W-19" value="+ getIdleSize() : int" style="text;align=left;verticalAlign=top;spacingLeft=4;spacingRight=4;overflow=hidden;rotatable=0;points=[[0,0.5],[1,0.5]];portConstraint=eastwest;" vertex="1" parent="zkfFHV4jXpPFQw0GAbJ--0">
          <mxGeometry y="794" width="210" height="26" as="geometry" />
        </mxCell>
        <mxCell id="5Mf-sOE8AnQbxtJJ7-1W-20" value="+ getHealth() : int" style="text;align=left;verticalAlign=top;spacingLeft=4;spacingRight=4;overflow=hidden;rotatable=0;points=[[0,0.5],[1,0.5]];portConstraint=eastwest;" vertex="1" parent="zkfFHV4jXpPFQw0GAbJ--0">
          <mxGeometry y="820" width="210" height="26" as="geometry" />
        </mxCell>
        <mxCell id="zkfFHV4jXpPFQw0GAbJ--6" value="CherryBomb" style="swimlane;fontStyle=1;align=center;verticalAlign=top;childLayout=stackLayout;horizontal=1;startSize=26;horizontalStack=0;resizeParent=1;resizeLast=0;collapsible=1;marginBottom=0;rounded=0;shadow=0;strokeWidth=1;" parent="WIyWlLk6GJQsqaUBKTNV-1" vertex="1">
          <mxGeometry x="-790" y="1009" width="270" height="164" as="geometry">
            <mxRectangle x="130" y="380" width="160" height="26" as="alternateBounds" />
          </mxGeometry>
        </mxCell>
        <mxCell id="zkfFHV4jXpPFQw0GAbJ--7" value="- batasKiri : int" style="text;align=left;verticalAlign=top;spacingLeft=4;spacingRight=4;overflow=hidden;rotatable=0;points=[[0,0.5],[1,0.5]];portConstraint=eastwest;" parent="zkfFHV4jXpPFQw0GAbJ--6" vertex="1">
          <mxGeometry y="26" width="270" height="26" as="geometry" />
        </mxCell>
        <mxCell id="5Mf-sOE8AnQbxtJJ7-1W-23" value="- batasKanan : int" style="text;align=left;verticalAlign=top;spacingLeft=4;spacingRight=4;overflow=hidden;rotatable=0;points=[[0,0.5],[1,0.5]];portConstraint=eastwest;" vertex="1" parent="zkfFHV4jXpPFQw0GAbJ--6">
          <mxGeometry y="52" width="270" height="26" as="geometry" />
        </mxCell>
        <mxCell id="zkfFHV4jXpPFQw0GAbJ--9" value="" style="line;html=1;strokeWidth=1;align=left;verticalAlign=middle;spacingTop=-1;spacingLeft=3;spacingRight=3;rotatable=0;labelPosition=right;points=[];portConstraint=eastwest;" parent="zkfFHV4jXpPFQw0GAbJ--6" vertex="1">
          <mxGeometry y="78" width="270" height="8" as="geometry" />
        </mxCell>
        <mxCell id="zkfFHV4jXpPFQw0GAbJ--8" value="+ setBatas (t : Tile , i : int , j : int) : void " style="text;align=left;verticalAlign=top;spacingLeft=4;spacingRight=4;overflow=hidden;rotatable=0;points=[[0,0.5],[1,0.5]];portConstraint=eastwest;rounded=0;shadow=0;html=0;" parent="zkfFHV4jXpPFQw0GAbJ--6" vertex="1">
          <mxGeometry y="86" width="270" height="26" as="geometry" />
        </mxCell>
        <mxCell id="zkfFHV4jXpPFQw0GAbJ--10" value="+ meledak (zombie : ArrayList&lt;Zombie&gt;) : void" style="text;align=left;verticalAlign=top;spacingLeft=4;spacingRight=4;overflow=hidden;rotatable=0;points=[[0,0.5],[1,0.5]];portConstraint=eastwest;fontStyle=0" parent="zkfFHV4jXpPFQw0GAbJ--6" vertex="1">
          <mxGeometry y="112" width="270" height="26" as="geometry" />
        </mxCell>
        <mxCell id="zkfFHV4jXpPFQw0GAbJ--11" value="- zombieInRange (z : Zombie) : boolean " style="text;align=left;verticalAlign=top;spacingLeft=4;spacingRight=4;overflow=hidden;rotatable=0;points=[[0,0.5],[1,0.5]];portConstraint=eastwest;" parent="zkfFHV4jXpPFQw0GAbJ--6" vertex="1">
          <mxGeometry y="138" width="270" height="26" as="geometry" />
        </mxCell>
        <mxCell id="5Mf-sOE8AnQbxtJJ7-1W-24" value="CoconutCannon" style="swimlane;fontStyle=1;align=center;verticalAlign=top;childLayout=stackLayout;horizontal=1;startSize=26;horizontalStack=0;resizeParent=1;resizeLast=0;collapsible=1;marginBottom=0;rounded=0;shadow=0;strokeWidth=1;" vertex="1" parent="WIyWlLk6GJQsqaUBKTNV-1">
          <mxGeometry x="5" y="1009" width="370" height="250" as="geometry">
            <mxRectangle x="130" y="380" width="160" height="26" as="alternateBounds" />
          </mxGeometry>
        </mxCell>
        <mxCell id="5Mf-sOE8AnQbxtJJ7-1W-25" value="- cocoCtr : int" style="text;align=left;verticalAlign=top;spacingLeft=4;spacingRight=4;overflow=hidden;rotatable=0;points=[[0,0.5],[1,0.5]];portConstraint=eastwest;" vertex="1" parent="5Mf-sOE8AnQbxtJJ7-1W-24">
          <mxGeometry y="26" width="370" height="26" as="geometry" />
        </mxCell>
        <mxCell id="5Mf-sOE8AnQbxtJJ7-1W-26" value="- coolTime : int" style="text;align=left;verticalAlign=top;spacingLeft=4;spacingRight=4;overflow=hidden;rotatable=0;points=[[0,0.5],[1,0.5]];portConstraint=eastwest;" vertex="1" parent="5Mf-sOE8AnQbxtJJ7-1W-24">
          <mxGeometry y="52" width="370" height="26" as="geometry" />
        </mxCell>
        <mxCell id="5Mf-sOE8AnQbxtJJ7-1W-31" value="- attack : PImage[ ]" style="text;align=left;verticalAlign=top;spacingLeft=4;spacingRight=4;overflow=hidden;rotatable=0;points=[[0,0.5],[1,0.5]];portConstraint=eastwest;" vertex="1" parent="5Mf-sOE8AnQbxtJJ7-1W-24">
          <mxGeometry y="78" width="370" height="26" as="geometry" />
        </mxCell>
        <mxCell id="5Mf-sOE8AnQbxtJJ7-1W-27" value="" style="line;html=1;strokeWidth=1;align=left;verticalAlign=middle;spacingTop=-1;spacingLeft=3;spacingRight=3;rotatable=0;labelPosition=right;points=[];portConstraint=eastwest;" vertex="1" parent="5Mf-sOE8AnQbxtJJ7-1W-24">
          <mxGeometry y="104" width="370" height="8" as="geometry" />
        </mxCell>
        <mxCell id="5Mf-sOE8AnQbxtJJ7-1W-28" value="+ drawCoolDown (app : PApplet) : void " style="text;align=left;verticalAlign=top;spacingLeft=4;spacingRight=4;overflow=hidden;rotatable=0;points=[[0,0.5],[1,0.5]];portConstraint=eastwest;rounded=0;shadow=0;html=0;" vertex="1" parent="5Mf-sOE8AnQbxtJJ7-1W-24">
          <mxGeometry y="112" width="370" height="26" as="geometry" />
        </mxCell>
        <mxCell id="5Mf-sOE8AnQbxtJJ7-1W-29" value="+ drawAttack (app : PApplet) : boolean" style="text;align=left;verticalAlign=top;spacingLeft=4;spacingRight=4;overflow=hidden;rotatable=0;points=[[0,0.5],[1,0.5]];portConstraint=eastwest;fontStyle=0" vertex="1" parent="5Mf-sOE8AnQbxtJJ7-1W-24">
          <mxGeometry y="138" width="370" height="26" as="geometry" />
        </mxCell>
        <mxCell id="5Mf-sOE8AnQbxtJJ7-1W-30" value="+ getCocoCtr() : int" style="text;align=left;verticalAlign=top;spacingLeft=4;spacingRight=4;overflow=hidden;rotatable=0;points=[[0,0.5],[1,0.5]];portConstraint=eastwest;" vertex="1" parent="5Mf-sOE8AnQbxtJJ7-1W-24">
          <mxGeometry y="164" width="370" height="26" as="geometry" />
        </mxCell>
        <mxCell id="5Mf-sOE8AnQbxtJJ7-1W-32" value="+ setCocoCtr(cocoCtr : int) : void" style="text;align=left;verticalAlign=top;spacingLeft=4;spacingRight=4;overflow=hidden;rotatable=0;points=[[0,0.5],[1,0.5]];portConstraint=eastwest;" vertex="1" parent="5Mf-sOE8AnQbxtJJ7-1W-24">
          <mxGeometry y="190" width="370" height="26" as="geometry" />
        </mxCell>
        <mxCell id="5Mf-sOE8AnQbxtJJ7-1W-33" value="+ addCocoCtr(bulletActive : ArrayList&lt;Bullet&gt;, bullet : Bullet) : void" style="text;align=left;verticalAlign=top;spacingLeft=4;spacingRight=4;overflow=hidden;rotatable=0;points=[[0,0.5],[1,0.5]];portConstraint=eastwest;" vertex="1" parent="5Mf-sOE8AnQbxtJJ7-1W-24">
          <mxGeometry y="216" width="370" height="24" as="geometry" />
        </mxCell>
        <mxCell id="5Mf-sOE8AnQbxtJJ7-1W-34" value="FlamingThreepeater" style="swimlane;fontStyle=1;align=center;verticalAlign=top;childLayout=stackLayout;horizontal=1;startSize=26;horizontalStack=0;resizeParent=1;resizeLast=0;collapsible=1;marginBottom=0;rounded=0;shadow=0;strokeWidth=1;" vertex="1" parent="WIyWlLk6GJQsqaUBKTNV-1">
          <mxGeometry x="-480" y="1009" width="400" height="140" as="geometry">
            <mxRectangle x="130" y="380" width="160" height="26" as="alternateBounds" />
          </mxGeometry>
        </mxCell>
        <mxCell id="5Mf-sOE8AnQbxtJJ7-1W-35" value="- peaCtr : int" style="text;align=left;verticalAlign=top;spacingLeft=4;spacingRight=4;overflow=hidden;rotatable=0;points=[[0,0.5],[1,0.5]];portConstraint=eastwest;" vertex="1" parent="5Mf-sOE8AnQbxtJJ7-1W-34">
          <mxGeometry y="26" width="400" height="26" as="geometry" />
        </mxCell>
        <mxCell id="5Mf-sOE8AnQbxtJJ7-1W-37" value="" style="line;html=1;strokeWidth=1;align=left;verticalAlign=middle;spacingTop=-1;spacingLeft=3;spacingRight=3;rotatable=0;labelPosition=right;points=[];portConstraint=eastwest;" vertex="1" parent="5Mf-sOE8AnQbxtJJ7-1W-34">
          <mxGeometry y="52" width="400" height="8" as="geometry" />
        </mxCell>
        <mxCell id="5Mf-sOE8AnQbxtJJ7-1W-38" value="+ getPeactr () : int " style="text;align=left;verticalAlign=top;spacingLeft=4;spacingRight=4;overflow=hidden;rotatable=0;points=[[0,0.5],[1,0.5]];portConstraint=eastwest;rounded=0;shadow=0;html=0;" vertex="1" parent="5Mf-sOE8AnQbxtJJ7-1W-34">
          <mxGeometry y="60" width="400" height="26" as="geometry" />
        </mxCell>
        <mxCell id="5Mf-sOE8AnQbxtJJ7-1W-39" value="+ setPeaCtr (peaCtr : int) : void" style="text;align=left;verticalAlign=top;spacingLeft=4;spacingRight=4;overflow=hidden;rotatable=0;points=[[0,0.5],[1,0.5]];portConstraint=eastwest;fontStyle=0" vertex="1" parent="5Mf-sOE8AnQbxtJJ7-1W-34">
          <mxGeometry y="86" width="400" height="26" as="geometry" />
        </mxCell>
        <mxCell id="5Mf-sOE8AnQbxtJJ7-1W-42" value="+ addPea(bulletActive : ArrayList&lt;Bullet&gt;, bullet : Bullet, y : int) : void" style="text;align=left;verticalAlign=top;spacingLeft=4;spacingRight=4;overflow=hidden;rotatable=0;points=[[0,0.5],[1,0.5]];portConstraint=eastwest;" vertex="1" parent="5Mf-sOE8AnQbxtJJ7-1W-34">
          <mxGeometry y="112" width="400" height="24" as="geometry" />
        </mxCell>
        <mxCell id="5Mf-sOE8AnQbxtJJ7-1W-43" value="GreatWall" style="swimlane;fontStyle=1;align=center;verticalAlign=top;childLayout=stackLayout;horizontal=1;startSize=60;horizontalStack=0;resizeParent=1;resizeLast=0;collapsible=1;marginBottom=0;rounded=0;shadow=0;strokeWidth=1;" vertex="1" parent="WIyWlLk6GJQsqaUBKTNV-1">
          <mxGeometry x="599" y="1009" width="100" height="30" as="geometry">
            <mxRectangle x="-780" y="1540" width="120" height="26" as="alternateBounds" />
          </mxGeometry>
        </mxCell>
        <mxCell id="5Mf-sOE8AnQbxtJJ7-1W-49" value="Lilypad" style="swimlane;fontStyle=1;align=center;verticalAlign=top;childLayout=stackLayout;horizontal=1;startSize=60;horizontalStack=0;resizeParent=1;resizeLast=0;collapsible=1;marginBottom=0;rounded=0;shadow=0;strokeWidth=1;" vertex="1" parent="WIyWlLk6GJQsqaUBKTNV-1">
          <mxGeometry x="687" y="1104" width="140" height="30" as="geometry">
            <mxRectangle x="-780" y="1540" width="120" height="26" as="alternateBounds" />
          </mxGeometry>
        </mxCell>
        <mxCell id="5Mf-sOE8AnQbxtJJ7-1W-50" value="Peashooter" style="swimlane;fontStyle=1;align=center;verticalAlign=top;childLayout=stackLayout;horizontal=1;startSize=26;horizontalStack=0;resizeParent=1;resizeLast=0;collapsible=1;marginBottom=0;rounded=0;shadow=0;strokeWidth=1;" vertex="1" parent="WIyWlLk6GJQsqaUBKTNV-1">
          <mxGeometry x="5" y="1304" width="340" height="140" as="geometry">
            <mxRectangle x="130" y="380" width="160" height="26" as="alternateBounds" />
          </mxGeometry>
        </mxCell>
        <mxCell id="5Mf-sOE8AnQbxtJJ7-1W-51" value="- peaCtr : int" style="text;align=left;verticalAlign=top;spacingLeft=4;spacingRight=4;overflow=hidden;rotatable=0;points=[[0,0.5],[1,0.5]];portConstraint=eastwest;" vertex="1" parent="5Mf-sOE8AnQbxtJJ7-1W-50">
          <mxGeometry y="26" width="340" height="26" as="geometry" />
        </mxCell>
        <mxCell id="5Mf-sOE8AnQbxtJJ7-1W-52" value="" style="line;html=1;strokeWidth=1;align=left;verticalAlign=middle;spacingTop=-1;spacingLeft=3;spacingRight=3;rotatable=0;labelPosition=right;points=[];portConstraint=eastwest;" vertex="1" parent="5Mf-sOE8AnQbxtJJ7-1W-50">
          <mxGeometry y="52" width="340" height="8" as="geometry" />
        </mxCell>
        <mxCell id="5Mf-sOE8AnQbxtJJ7-1W-53" value="+ getPeaCtr () : int " style="text;align=left;verticalAlign=top;spacingLeft=4;spacingRight=4;overflow=hidden;rotatable=0;points=[[0,0.5],[1,0.5]];portConstraint=eastwest;rounded=0;shadow=0;html=0;" vertex="1" parent="5Mf-sOE8AnQbxtJJ7-1W-50">
          <mxGeometry y="60" width="340" height="26" as="geometry" />
        </mxCell>
        <mxCell id="5Mf-sOE8AnQbxtJJ7-1W-54" value="+ setPeaCtr (peaCtr : int) : void" style="text;align=left;verticalAlign=top;spacingLeft=4;spacingRight=4;overflow=hidden;rotatable=0;points=[[0,0.5],[1,0.5]];portConstraint=eastwest;fontStyle=0" vertex="1" parent="5Mf-sOE8AnQbxtJJ7-1W-50">
          <mxGeometry y="86" width="340" height="26" as="geometry" />
        </mxCell>
        <mxCell id="5Mf-sOE8AnQbxtJJ7-1W-55" value="+ addPea(bulletActive : ArrayList&lt;Bullet&gt;, bullet : Bullet) : void" style="text;align=left;verticalAlign=top;spacingLeft=4;spacingRight=4;overflow=hidden;rotatable=0;points=[[0,0.5],[1,0.5]];portConstraint=eastwest;" vertex="1" parent="5Mf-sOE8AnQbxtJJ7-1W-50">
          <mxGeometry y="112" width="340" height="24" as="geometry" />
        </mxCell>
        <mxCell id="5Mf-sOE8AnQbxtJJ7-1W-56" value="PotatoMine" style="swimlane;fontStyle=1;align=center;verticalAlign=top;childLayout=stackLayout;horizontal=1;startSize=26;horizontalStack=0;resizeParent=1;resizeLast=0;collapsible=1;marginBottom=0;rounded=0;shadow=0;strokeWidth=1;" vertex="1" parent="WIyWlLk6GJQsqaUBKTNV-1">
          <mxGeometry x="900" y="1009" width="300" height="346" as="geometry">
            <mxRectangle x="130" y="380" width="160" height="26" as="alternateBounds" />
          </mxGeometry>
        </mxCell>
        <mxCell id="5Mf-sOE8AnQbxtJJ7-1W-57" value="- potatoCtr : int" style="text;align=left;verticalAlign=top;spacingLeft=4;spacingRight=4;overflow=hidden;rotatable=0;points=[[0,0.5],[1,0.5]];portConstraint=eastwest;" vertex="1" parent="5Mf-sOE8AnQbxtJJ7-1W-56">
          <mxGeometry y="26" width="300" height="26" as="geometry" />
        </mxCell>
        <mxCell id="5Mf-sOE8AnQbxtJJ7-1W-58" value="- delayHilang : int" style="text;align=left;verticalAlign=top;spacingLeft=4;spacingRight=4;overflow=hidden;rotatable=0;points=[[0,0.5],[1,0.5]];portConstraint=eastwest;" vertex="1" parent="5Mf-sOE8AnQbxtJJ7-1W-56">
          <mxGeometry y="52" width="300" height="26" as="geometry" />
        </mxCell>
        <mxCell id="5Mf-sOE8AnQbxtJJ7-1W-63" value="- ready : boolean" style="text;align=left;verticalAlign=top;spacingLeft=4;spacingRight=4;overflow=hidden;rotatable=0;points=[[0,0.5],[1,0.5]];portConstraint=eastwest;" vertex="1" parent="5Mf-sOE8AnQbxtJJ7-1W-56">
          <mxGeometry y="78" width="300" height="26" as="geometry" />
        </mxCell>
        <mxCell id="5Mf-sOE8AnQbxtJJ7-1W-64" value="- meledak : boolean" style="text;align=left;verticalAlign=top;spacingLeft=4;spacingRight=4;overflow=hidden;rotatable=0;points=[[0,0.5],[1,0.5]];portConstraint=eastwest;" vertex="1" parent="5Mf-sOE8AnQbxtJJ7-1W-56">
          <mxGeometry y="104" width="300" height="26" as="geometry" />
        </mxCell>
        <mxCell id="5Mf-sOE8AnQbxtJJ7-1W-65" value="- zombieTerkena : ArrayList&lt;Zombie&gt;" style="text;align=left;verticalAlign=top;spacingLeft=4;spacingRight=4;overflow=hidden;rotatable=0;points=[[0,0.5],[1,0.5]];portConstraint=eastwest;" vertex="1" parent="5Mf-sOE8AnQbxtJJ7-1W-56">
          <mxGeometry y="130" width="300" height="26" as="geometry" />
        </mxCell>
        <mxCell id="5Mf-sOE8AnQbxtJJ7-1W-66" value="- exploade : PImage[ ]" style="text;align=left;verticalAlign=top;spacingLeft=4;spacingRight=4;overflow=hidden;rotatable=0;points=[[0,0.5],[1,0.5]];portConstraint=eastwest;" vertex="1" parent="5Mf-sOE8AnQbxtJJ7-1W-56">
          <mxGeometry y="156" width="300" height="26" as="geometry" />
        </mxCell>
        <mxCell id="5Mf-sOE8AnQbxtJJ7-1W-67" value="- tempIdle : PImage[ ]" style="text;align=left;verticalAlign=top;spacingLeft=4;spacingRight=4;overflow=hidden;rotatable=0;points=[[0,0.5],[1,0.5]];portConstraint=eastwest;" vertex="1" parent="5Mf-sOE8AnQbxtJJ7-1W-56">
          <mxGeometry y="182" width="300" height="26" as="geometry" />
        </mxCell>
        <mxCell id="5Mf-sOE8AnQbxtJJ7-1W-59" value="" style="line;html=1;strokeWidth=1;align=left;verticalAlign=middle;spacingTop=-1;spacingLeft=3;spacingRight=3;rotatable=0;labelPosition=right;points=[];portConstraint=eastwest;" vertex="1" parent="5Mf-sOE8AnQbxtJJ7-1W-56">
          <mxGeometry y="208" width="300" height="8" as="geometry" />
        </mxCell>
        <mxCell id="5Mf-sOE8AnQbxtJJ7-1W-60" value="+ meledak (z : ArrayList&lt;Zombie&gt; , t : Tile) : boolean" style="text;align=left;verticalAlign=top;spacingLeft=4;spacingRight=4;overflow=hidden;rotatable=0;points=[[0,0.5],[1,0.5]];portConstraint=eastwest;rounded=0;shadow=0;html=0;" vertex="1" parent="5Mf-sOE8AnQbxtJJ7-1W-56">
          <mxGeometry y="216" width="300" height="26" as="geometry" />
        </mxCell>
        <mxCell id="5Mf-sOE8AnQbxtJJ7-1W-61" value="- count() : void" style="text;align=left;verticalAlign=top;spacingLeft=4;spacingRight=4;overflow=hidden;rotatable=0;points=[[0,0.5],[1,0.5]];portConstraint=eastwest;fontStyle=0" vertex="1" parent="5Mf-sOE8AnQbxtJJ7-1W-56">
          <mxGeometry y="242" width="300" height="26" as="geometry" />
        </mxCell>
        <mxCell id="5Mf-sOE8AnQbxtJJ7-1W-62" value="- keluar() : void" style="text;align=left;verticalAlign=top;spacingLeft=4;spacingRight=4;overflow=hidden;rotatable=0;points=[[0,0.5],[1,0.5]];portConstraint=eastwest;" vertex="1" parent="5Mf-sOE8AnQbxtJJ7-1W-56">
          <mxGeometry y="268" width="300" height="26" as="geometry" />
        </mxCell>
        <mxCell id="5Mf-sOE8AnQbxtJJ7-1W-68" value="- cekAdaZombie (z : ArrayList&lt;Zombie&gt;) : void" style="text;align=left;verticalAlign=top;spacingLeft=4;spacingRight=4;overflow=hidden;rotatable=0;points=[[0,0.5],[1,0.5]];portConstraint=eastwest;" vertex="1" parent="5Mf-sOE8AnQbxtJJ7-1W-56">
          <mxGeometry y="294" width="300" height="26" as="geometry" />
        </mxCell>
        <mxCell id="5Mf-sOE8AnQbxtJJ7-1W-69" value="- cekPosZombie (z : Zombie) : boolean" style="text;align=left;verticalAlign=top;spacingLeft=4;spacingRight=4;overflow=hidden;rotatable=0;points=[[0,0.5],[1,0.5]];portConstraint=eastwest;" vertex="1" parent="5Mf-sOE8AnQbxtJJ7-1W-56">
          <mxGeometry y="320" width="300" height="26" as="geometry" />
        </mxCell>
        <mxCell id="5Mf-sOE8AnQbxtJJ7-1W-70" value="SnowPea" style="swimlane;fontStyle=1;align=center;verticalAlign=top;childLayout=stackLayout;horizontal=1;startSize=26;horizontalStack=0;resizeParent=1;resizeLast=0;collapsible=1;marginBottom=0;rounded=0;shadow=0;strokeWidth=1;" vertex="1" parent="WIyWlLk6GJQsqaUBKTNV-1">
          <mxGeometry x="414" y="1314" width="340" height="140" as="geometry">
            <mxRectangle x="130" y="380" width="160" height="26" as="alternateBounds" />
          </mxGeometry>
        </mxCell>
        <mxCell id="5Mf-sOE8AnQbxtJJ7-1W-71" value="- peaCtr : int" style="text;align=left;verticalAlign=top;spacingLeft=4;spacingRight=4;overflow=hidden;rotatable=0;points=[[0,0.5],[1,0.5]];portConstraint=eastwest;" vertex="1" parent="5Mf-sOE8AnQbxtJJ7-1W-70">
          <mxGeometry y="26" width="340" height="26" as="geometry" />
        </mxCell>
        <mxCell id="5Mf-sOE8AnQbxtJJ7-1W-72" value="" style="line;html=1;strokeWidth=1;align=left;verticalAlign=middle;spacingTop=-1;spacingLeft=3;spacingRight=3;rotatable=0;labelPosition=right;points=[];portConstraint=eastwest;" vertex="1" parent="5Mf-sOE8AnQbxtJJ7-1W-70">
          <mxGeometry y="52" width="340" height="8" as="geometry" />
        </mxCell>
        <mxCell id="5Mf-sOE8AnQbxtJJ7-1W-73" value="+ getPeaCtr () : int " style="text;align=left;verticalAlign=top;spacingLeft=4;spacingRight=4;overflow=hidden;rotatable=0;points=[[0,0.5],[1,0.5]];portConstraint=eastwest;rounded=0;shadow=0;html=0;" vertex="1" parent="5Mf-sOE8AnQbxtJJ7-1W-70">
          <mxGeometry y="60" width="340" height="26" as="geometry" />
        </mxCell>
        <mxCell id="5Mf-sOE8AnQbxtJJ7-1W-74" value="+ setPeaCtr (peaCtr : int) : void" style="text;align=left;verticalAlign=top;spacingLeft=4;spacingRight=4;overflow=hidden;rotatable=0;points=[[0,0.5],[1,0.5]];portConstraint=eastwest;fontStyle=0" vertex="1" parent="5Mf-sOE8AnQbxtJJ7-1W-70">
          <mxGeometry y="86" width="340" height="26" as="geometry" />
        </mxCell>
        <mxCell id="5Mf-sOE8AnQbxtJJ7-1W-75" value="+ addPea(bulletActive : ArrayList&lt;Bullet&gt;, bullet : Bullet) : void" style="text;align=left;verticalAlign=top;spacingLeft=4;spacingRight=4;overflow=hidden;rotatable=0;points=[[0,0.5],[1,0.5]];portConstraint=eastwest;" vertex="1" parent="5Mf-sOE8AnQbxtJJ7-1W-70">
          <mxGeometry y="112" width="340" height="24" as="geometry" />
        </mxCell>
        <mxCell id="5Mf-sOE8AnQbxtJJ7-1W-76" value="Sunflower" style="swimlane;fontStyle=1;align=center;verticalAlign=top;childLayout=stackLayout;horizontal=1;startSize=26;horizontalStack=0;resizeParent=1;resizeLast=0;collapsible=1;marginBottom=0;rounded=0;shadow=0;strokeWidth=1;" vertex="1" parent="WIyWlLk6GJQsqaUBKTNV-1">
          <mxGeometry x="-790" y="1212" width="430" height="140" as="geometry">
            <mxRectangle x="130" y="380" width="160" height="26" as="alternateBounds" />
          </mxGeometry>
        </mxCell>
        <mxCell id="5Mf-sOE8AnQbxtJJ7-1W-77" value="- sunCtr : int" style="text;align=left;verticalAlign=top;spacingLeft=4;spacingRight=4;overflow=hidden;rotatable=0;points=[[0,0.5],[1,0.5]];portConstraint=eastwest;" vertex="1" parent="5Mf-sOE8AnQbxtJJ7-1W-76">
          <mxGeometry y="26" width="430" height="26" as="geometry" />
        </mxCell>
        <mxCell id="5Mf-sOE8AnQbxtJJ7-1W-78" value="" style="line;html=1;strokeWidth=1;align=left;verticalAlign=middle;spacingTop=-1;spacingLeft=3;spacingRight=3;rotatable=0;labelPosition=right;points=[];portConstraint=eastwest;" vertex="1" parent="5Mf-sOE8AnQbxtJJ7-1W-76">
          <mxGeometry y="52" width="430" height="8" as="geometry" />
        </mxCell>
        <mxCell id="5Mf-sOE8AnQbxtJJ7-1W-79" value="+ getSunCtr () : int " style="text;align=left;verticalAlign=top;spacingLeft=4;spacingRight=4;overflow=hidden;rotatable=0;points=[[0,0.5],[1,0.5]];portConstraint=eastwest;rounded=0;shadow=0;html=0;" vertex="1" parent="5Mf-sOE8AnQbxtJJ7-1W-76">
          <mxGeometry y="60" width="430" height="26" as="geometry" />
        </mxCell>
        <mxCell id="5Mf-sOE8AnQbxtJJ7-1W-80" value="+ setSunCtr (sunCtr : int) : void" style="text;align=left;verticalAlign=top;spacingLeft=4;spacingRight=4;overflow=hidden;rotatable=0;points=[[0,0.5],[1,0.5]];portConstraint=eastwest;fontStyle=0" vertex="1" parent="5Mf-sOE8AnQbxtJJ7-1W-76">
          <mxGeometry y="86" width="430" height="26" as="geometry" />
        </mxCell>
        <mxCell id="5Mf-sOE8AnQbxtJJ7-1W-81" value="+ addSun(bulletActive : ArrayList&lt;Bullet&gt;, bullet : Bullet, x : int , y : int) : void" style="text;align=left;verticalAlign=top;spacingLeft=4;spacingRight=4;overflow=hidden;rotatable=0;points=[[0,0.5],[1,0.5]];portConstraint=eastwest;" vertex="1" parent="5Mf-sOE8AnQbxtJJ7-1W-76">
          <mxGeometry y="112" width="430" height="24" as="geometry" />
        </mxCell>
        <mxCell id="5Mf-sOE8AnQbxtJJ7-1W-82" value="TangleKelp" style="swimlane;fontStyle=1;align=center;verticalAlign=top;childLayout=stackLayout;horizontal=1;startSize=26;horizontalStack=0;resizeParent=1;resizeLast=0;collapsible=1;marginBottom=0;rounded=0;shadow=0;strokeWidth=1;" vertex="1" parent="WIyWlLk6GJQsqaUBKTNV-1">
          <mxGeometry x="-330" y="1234" width="300" height="250" as="geometry">
            <mxRectangle x="130" y="380" width="160" height="26" as="alternateBounds" />
          </mxGeometry>
        </mxCell>
        <mxCell id="5Mf-sOE8AnQbxtJJ7-1W-83" value="- tangleCtr : int" style="text;align=left;verticalAlign=top;spacingLeft=4;spacingRight=4;overflow=hidden;rotatable=0;points=[[0,0.5],[1,0.5]];portConstraint=eastwest;" vertex="1" parent="5Mf-sOE8AnQbxtJJ7-1W-82">
          <mxGeometry y="26" width="300" height="26" as="geometry" />
        </mxCell>
        <mxCell id="5Mf-sOE8AnQbxtJJ7-1W-84" value="- startAttack : int" style="text;align=left;verticalAlign=top;spacingLeft=4;spacingRight=4;overflow=hidden;rotatable=0;points=[[0,0.5],[1,0.5]];portConstraint=eastwest;" vertex="1" parent="5Mf-sOE8AnQbxtJJ7-1W-82">
          <mxGeometry y="52" width="300" height="26" as="geometry" />
        </mxCell>
        <mxCell id="5Mf-sOE8AnQbxtJJ7-1W-85" value="- attack : boolean" style="text;align=left;verticalAlign=top;spacingLeft=4;spacingRight=4;overflow=hidden;rotatable=0;points=[[0,0.5],[1,0.5]];portConstraint=eastwest;" vertex="1" parent="5Mf-sOE8AnQbxtJJ7-1W-82">
          <mxGeometry y="78" width="300" height="26" as="geometry" />
        </mxCell>
        <mxCell id="5Mf-sOE8AnQbxtJJ7-1W-87" value="- zombieTerkena : ArrayList&lt;Zombie&gt;" style="text;align=left;verticalAlign=top;spacingLeft=4;spacingRight=4;overflow=hidden;rotatable=0;points=[[0,0.5],[1,0.5]];portConstraint=eastwest;" vertex="1" parent="5Mf-sOE8AnQbxtJJ7-1W-82">
          <mxGeometry y="104" width="300" height="26" as="geometry" />
        </mxCell>
        <mxCell id="5Mf-sOE8AnQbxtJJ7-1W-88" value="- attackImg : PImage[ ]" style="text;align=left;verticalAlign=top;spacingLeft=4;spacingRight=4;overflow=hidden;rotatable=0;points=[[0,0.5],[1,0.5]];portConstraint=eastwest;" vertex="1" parent="5Mf-sOE8AnQbxtJJ7-1W-82">
          <mxGeometry y="130" width="300" height="26" as="geometry" />
        </mxCell>
        <mxCell id="5Mf-sOE8AnQbxtJJ7-1W-90" value="" style="line;html=1;strokeWidth=1;align=left;verticalAlign=middle;spacingTop=-1;spacingLeft=3;spacingRight=3;rotatable=0;labelPosition=right;points=[];portConstraint=eastwest;" vertex="1" parent="5Mf-sOE8AnQbxtJJ7-1W-82">
          <mxGeometry y="156" width="300" height="8" as="geometry" />
        </mxCell>
        <mxCell id="5Mf-sOE8AnQbxtJJ7-1W-91" value="+ attack (z : ArrayList&lt;Zombie&gt; , t : Tile) : boolean" style="text;align=left;verticalAlign=top;spacingLeft=4;spacingRight=4;overflow=hidden;rotatable=0;points=[[0,0.5],[1,0.5]];portConstraint=eastwest;rounded=0;shadow=0;html=0;" vertex="1" parent="5Mf-sOE8AnQbxtJJ7-1W-82">
          <mxGeometry y="164" width="300" height="26" as="geometry" />
        </mxCell>
        <mxCell id="5Mf-sOE8AnQbxtJJ7-1W-92" value="- count() : void" style="text;align=left;verticalAlign=top;spacingLeft=4;spacingRight=4;overflow=hidden;rotatable=0;points=[[0,0.5],[1,0.5]];portConstraint=eastwest;fontStyle=0" vertex="1" parent="5Mf-sOE8AnQbxtJJ7-1W-82">
          <mxGeometry y="190" width="300" height="26" as="geometry" />
        </mxCell>
        <mxCell id="5Mf-sOE8AnQbxtJJ7-1W-94" value="- cekAdaZombie (z : ArrayList&lt;Zombie&gt;) : void" style="text;align=left;verticalAlign=top;spacingLeft=4;spacingRight=4;overflow=hidden;rotatable=0;points=[[0,0.5],[1,0.5]];portConstraint=eastwest;" vertex="1" parent="5Mf-sOE8AnQbxtJJ7-1W-82">
          <mxGeometry y="216" width="300" height="26" as="geometry" />
        </mxCell>
        <mxCell id="5Mf-sOE8AnQbxtJJ7-1W-97" value="TwinFlowers" style="swimlane;fontStyle=1;align=center;verticalAlign=top;childLayout=stackLayout;horizontal=1;startSize=26;horizontalStack=0;resizeParent=1;resizeLast=0;collapsible=1;marginBottom=0;rounded=0;shadow=0;strokeWidth=1;" vertex="1" parent="WIyWlLk6GJQsqaUBKTNV-1">
          <mxGeometry x="419" y="1149" width="430" height="140" as="geometry">
            <mxRectangle x="130" y="380" width="160" height="26" as="alternateBounds" />
          </mxGeometry>
        </mxCell>
        <mxCell id="5Mf-sOE8AnQbxtJJ7-1W-98" value="- sunCtr : int" style="text;align=left;verticalAlign=top;spacingLeft=4;spacingRight=4;overflow=hidden;rotatable=0;points=[[0,0.5],[1,0.5]];portConstraint=eastwest;" vertex="1" parent="5Mf-sOE8AnQbxtJJ7-1W-97">
          <mxGeometry y="26" width="430" height="26" as="geometry" />
        </mxCell>
        <mxCell id="5Mf-sOE8AnQbxtJJ7-1W-99" value="" style="line;html=1;strokeWidth=1;align=left;verticalAlign=middle;spacingTop=-1;spacingLeft=3;spacingRight=3;rotatable=0;labelPosition=right;points=[];portConstraint=eastwest;" vertex="1" parent="5Mf-sOE8AnQbxtJJ7-1W-97">
          <mxGeometry y="52" width="430" height="8" as="geometry" />
        </mxCell>
        <mxCell id="5Mf-sOE8AnQbxtJJ7-1W-100" value="+ getSunCtr () : int " style="text;align=left;verticalAlign=top;spacingLeft=4;spacingRight=4;overflow=hidden;rotatable=0;points=[[0,0.5],[1,0.5]];portConstraint=eastwest;rounded=0;shadow=0;html=0;" vertex="1" parent="5Mf-sOE8AnQbxtJJ7-1W-97">
          <mxGeometry y="60" width="430" height="26" as="geometry" />
        </mxCell>
        <mxCell id="5Mf-sOE8AnQbxtJJ7-1W-101" value="+ setSunCtr (sunCtr : int) : void" style="text;align=left;verticalAlign=top;spacingLeft=4;spacingRight=4;overflow=hidden;rotatable=0;points=[[0,0.5],[1,0.5]];portConstraint=eastwest;fontStyle=0" vertex="1" parent="5Mf-sOE8AnQbxtJJ7-1W-97">
          <mxGeometry y="86" width="430" height="26" as="geometry" />
        </mxCell>
        <mxCell id="5Mf-sOE8AnQbxtJJ7-1W-102" value="+ addSun(bulletActive : ArrayList&lt;Bullet&gt;, bullet : Bullet, x : int , y : int) : void" style="text;align=left;verticalAlign=top;spacingLeft=4;spacingRight=4;overflow=hidden;rotatable=0;points=[[0,0.5],[1,0.5]];portConstraint=eastwest;" vertex="1" parent="5Mf-sOE8AnQbxtJJ7-1W-97">
          <mxGeometry y="112" width="430" height="24" as="geometry" />
        </mxCell>
        <mxCell id="5Mf-sOE8AnQbxtJJ7-1W-103" value="Wallfire" style="swimlane;fontStyle=1;align=center;verticalAlign=top;childLayout=stackLayout;horizontal=1;startSize=26;horizontalStack=0;resizeParent=1;resizeLast=0;collapsible=1;marginBottom=0;rounded=0;shadow=0;strokeWidth=1;" vertex="1" parent="WIyWlLk6GJQsqaUBKTNV-1">
          <mxGeometry x="419" y="1009" width="160" height="110" as="geometry">
            <mxRectangle x="130" y="380" width="160" height="26" as="alternateBounds" />
          </mxGeometry>
        </mxCell>
        <mxCell id="5Mf-sOE8AnQbxtJJ7-1W-105" value="" style="line;html=1;strokeWidth=1;align=left;verticalAlign=middle;spacingTop=-1;spacingLeft=3;spacingRight=3;rotatable=0;labelPosition=right;points=[];portConstraint=eastwest;" vertex="1" parent="5Mf-sOE8AnQbxtJJ7-1W-103">
          <mxGeometry y="26" width="160" height="8" as="geometry" />
        </mxCell>
        <mxCell id="5Mf-sOE8AnQbxtJJ7-1W-106" value="+ getDmg () : int " style="text;align=left;verticalAlign=top;spacingLeft=4;spacingRight=4;overflow=hidden;rotatable=0;points=[[0,0.5],[1,0.5]];portConstraint=eastwest;rounded=0;shadow=0;html=0;" vertex="1" parent="5Mf-sOE8AnQbxtJJ7-1W-103">
          <mxGeometry y="34" width="160" height="26" as="geometry" />
        </mxCell>
        <mxCell id="5Mf-sOE8AnQbxtJJ7-1W-107" value="+ setDmg (dmg : int) : void" style="text;align=left;verticalAlign=top;spacingLeft=4;spacingRight=4;overflow=hidden;rotatable=0;points=[[0,0.5],[1,0.5]];portConstraint=eastwest;fontStyle=0" vertex="1" parent="5Mf-sOE8AnQbxtJJ7-1W-103">
          <mxGeometry y="60" width="160" height="26" as="geometry" />
        </mxCell>
        <mxCell id="5Mf-sOE8AnQbxtJJ7-1W-109" value="Wallnut" style="swimlane;fontStyle=1;align=center;verticalAlign=top;childLayout=stackLayout;horizontal=1;startSize=60;horizontalStack=0;resizeParent=1;resizeLast=0;collapsible=1;marginBottom=0;rounded=0;shadow=0;strokeWidth=1;" vertex="1" parent="WIyWlLk6GJQsqaUBKTNV-1">
          <mxGeometry x="724" y="1009" width="90" height="30" as="geometry">
            <mxRectangle x="-780" y="1540" width="120" height="26" as="alternateBounds" />
          </mxGeometry>
        </mxCell>
        <mxCell id="5Mf-sOE8AnQbxtJJ7-1W-128" style="edgeStyle=orthogonalEdgeStyle;rounded=0;orthogonalLoop=1;jettySize=auto;html=1;exitX=0.5;exitY=1;exitDx=0;exitDy=0;entryX=0.75;entryY=0;entryDx=0;entryDy=0;" edge="1" parent="WIyWlLk6GJQsqaUBKTNV-1" source="zkfFHV4jXpPFQw0GAbJ--0" target="5Mf-sOE8AnQbxtJJ7-1W-82">
          <mxGeometry relative="1" as="geometry">
            <Array as="points">
              <mxPoint x="10" y="900" />
              <mxPoint x="10" y="950" />
              <mxPoint x="-40" y="950" />
              <mxPoint x="-40" y="1190" />
              <mxPoint x="-105" y="1190" />
            </Array>
          </mxGeometry>
        </mxCell>
        <mxCell id="5Mf-sOE8AnQbxtJJ7-1W-129" value="" style="edgeStyle=orthogonalEdgeStyle;rounded=0;orthogonalLoop=1;jettySize=auto;html=1;exitX=0.5;exitY=1;exitDx=0;exitDy=0;entryX=0.5;entryY=0;entryDx=0;entryDy=0;" edge="1" parent="WIyWlLk6GJQsqaUBKTNV-1" source="zkfFHV4jXpPFQw0GAbJ--0" target="5Mf-sOE8AnQbxtJJ7-1W-96">
          <mxGeometry relative="1" as="geometry">
            <mxPoint x="15" y="900" as="sourcePoint" />
            <mxPoint x="728" y="1145" as="targetPoint" />
            <Array as="points">
              <mxPoint x="10" y="900" />
              <mxPoint x="10" y="950" />
              <mxPoint x="714" y="950" />
            </Array>
          </mxGeometry>
        </mxCell>
        <mxCell id="5Mf-sOE8AnQbxtJJ7-1W-96" value="Torchwood" style="swimlane;fontStyle=1;align=center;verticalAlign=top;childLayout=stackLayout;horizontal=1;startSize=0;horizontalStack=0;resizeParent=1;resizeLast=0;collapsible=1;marginBottom=0;rounded=0;shadow=0;strokeWidth=1;" vertex="1" parent="WIyWlLk6GJQsqaUBKTNV-1">
          <mxGeometry x="601" y="1057" width="225" height="30" as="geometry">
            <mxRectangle x="-780" y="1540" width="120" height="26" as="alternateBounds" />
          </mxGeometry>
        </mxCell>
        <mxCell id="5Mf-sOE8AnQbxtJJ7-1W-137" style="edgeStyle=orthogonalEdgeStyle;rounded=0;orthogonalLoop=1;jettySize=auto;html=1;entryX=1;entryY=0.5;entryDx=0;entryDy=0;" edge="1" parent="WIyWlLk6GJQsqaUBKTNV-1" target="5Mf-sOE8AnQbxtJJ7-1W-71">
          <mxGeometry relative="1" as="geometry">
            <mxPoint x="10" y="900" as="sourcePoint" />
            <mxPoint x="859" y="1228" as="targetPoint" />
            <Array as="points">
              <mxPoint x="10" y="950" />
              <mxPoint x="879" y="950" />
              <mxPoint x="879" y="1349" />
            </Array>
          </mxGeometry>
        </mxCell>
        <mxCell id="5Mf-sOE8AnQbxtJJ7-1W-140" value="" style="edgeStyle=orthogonalEdgeStyle;rounded=0;orthogonalLoop=1;jettySize=auto;html=1;entryX=0.5;entryY=0;entryDx=0;entryDy=0;" edge="1" parent="WIyWlLk6GJQsqaUBKTNV-1" target="5Mf-sOE8AnQbxtJJ7-1W-56">
          <mxGeometry relative="1" as="geometry">
            <mxPoint x="20" y="900" as="sourcePoint" />
            <mxPoint x="724" y="1063" as="targetPoint" />
            <Array as="points">
              <mxPoint x="10" y="900" />
              <mxPoint x="10" y="950" />
              <mxPoint x="1050" y="950" />
            </Array>
          </mxGeometry>
        </mxCell>
        <mxCell id="5Mf-sOE8AnQbxtJJ7-1W-148" value="Bullet" style="swimlane;fontStyle=1;align=center;verticalAlign=top;childLayout=stackLayout;horizontal=1;startSize=26;horizontalStack=0;resizeParent=1;resizeParentMax=0;resizeLast=0;collapsible=1;marginBottom=0;whiteSpace=wrap;html=1;" vertex="1" parent="WIyWlLk6GJQsqaUBKTNV-1">
          <mxGeometry x="-620" y="230" width="280" height="532" as="geometry" />
        </mxCell>
        <mxCell id="5Mf-sOE8AnQbxtJJ7-1W-149" value="- bullet : GUIButton" style="text;strokeColor=none;fillColor=none;align=left;verticalAlign=top;spacingLeft=4;spacingRight=4;overflow=hidden;rotatable=0;points=[[0,0.5],[1,0.5]];portConstraint=eastwest;whiteSpace=wrap;html=1;" vertex="1" parent="5Mf-sOE8AnQbxtJJ7-1W-148">
          <mxGeometry y="26" width="280" height="26" as="geometry" />
        </mxCell>
        <mxCell id="5Mf-sOE8AnQbxtJJ7-1W-152" value="- dmg : int" style="text;strokeColor=none;fillColor=none;align=left;verticalAlign=top;spacingLeft=4;spacingRight=4;overflow=hidden;rotatable=0;points=[[0,0.5],[1,0.5]];portConstraint=eastwest;whiteSpace=wrap;html=1;" vertex="1" parent="5Mf-sOE8AnQbxtJJ7-1W-148">
          <mxGeometry y="52" width="280" height="26" as="geometry" />
        </mxCell>
        <mxCell id="5Mf-sOE8AnQbxtJJ7-1W-153" value="- idleSize : int" style="text;strokeColor=none;fillColor=none;align=left;verticalAlign=top;spacingLeft=4;spacingRight=4;overflow=hidden;rotatable=0;points=[[0,0.5],[1,0.5]];portConstraint=eastwest;whiteSpace=wrap;html=1;" vertex="1" parent="5Mf-sOE8AnQbxtJJ7-1W-148">
          <mxGeometry y="78" width="280" height="26" as="geometry" />
        </mxCell>
        <mxCell id="5Mf-sOE8AnQbxtJJ7-1W-154" value="- ctr : int" style="text;strokeColor=none;fillColor=none;align=left;verticalAlign=top;spacingLeft=4;spacingRight=4;overflow=hidden;rotatable=0;points=[[0,0.5],[1,0.5]];portConstraint=eastwest;whiteSpace=wrap;html=1;" vertex="1" parent="5Mf-sOE8AnQbxtJJ7-1W-148">
          <mxGeometry y="104" width="280" height="26" as="geometry" />
        </mxCell>
        <mxCell id="5Mf-sOE8AnQbxtJJ7-1W-155" value="- type : String" style="text;strokeColor=none;fillColor=none;align=left;verticalAlign=top;spacingLeft=4;spacingRight=4;overflow=hidden;rotatable=0;points=[[0,0.5],[1,0.5]];portConstraint=eastwest;whiteSpace=wrap;html=1;" vertex="1" parent="5Mf-sOE8AnQbxtJJ7-1W-148">
          <mxGeometry y="130" width="280" height="26" as="geometry" />
        </mxCell>
        <mxCell id="5Mf-sOE8AnQbxtJJ7-1W-156" value="- idle : PImage[ ]" style="text;strokeColor=none;fillColor=none;align=left;verticalAlign=top;spacingLeft=4;spacingRight=4;overflow=hidden;rotatable=0;points=[[0,0.5],[1,0.5]];portConstraint=eastwest;whiteSpace=wrap;html=1;" vertex="1" parent="5Mf-sOE8AnQbxtJJ7-1W-148">
          <mxGeometry y="156" width="280" height="26" as="geometry" />
        </mxCell>
        <mxCell id="5Mf-sOE8AnQbxtJJ7-1W-157" value="- change : boolean" style="text;strokeColor=none;fillColor=none;align=left;verticalAlign=top;spacingLeft=4;spacingRight=4;overflow=hidden;rotatable=0;points=[[0,0.5],[1,0.5]];portConstraint=eastwest;whiteSpace=wrap;html=1;" vertex="1" parent="5Mf-sOE8AnQbxtJJ7-1W-148">
          <mxGeometry y="182" width="280" height="26" as="geometry" />
        </mxCell>
        <mxCell id="5Mf-sOE8AnQbxtJJ7-1W-150" value="" style="line;strokeWidth=1;fillColor=none;align=left;verticalAlign=middle;spacingTop=-1;spacingLeft=3;spacingRight=3;rotatable=0;labelPosition=right;points=[];portConstraint=eastwest;strokeColor=inherit;" vertex="1" parent="5Mf-sOE8AnQbxtJJ7-1W-148">
          <mxGeometry y="208" width="280" height="8" as="geometry" />
        </mxCell>
        <mxCell id="5Mf-sOE8AnQbxtJJ7-1W-151" value="+ getBullet(): GUIButton" style="text;strokeColor=none;fillColor=none;align=left;verticalAlign=top;spacingLeft=4;spacingRight=4;overflow=hidden;rotatable=0;points=[[0,0.5],[1,0.5]];portConstraint=eastwest;whiteSpace=wrap;html=1;" vertex="1" parent="5Mf-sOE8AnQbxtJJ7-1W-148">
          <mxGeometry y="216" width="280" height="26" as="geometry" />
        </mxCell>
        <mxCell id="5Mf-sOE8AnQbxtJJ7-1W-158" value="+ getDmg(): int" style="text;strokeColor=none;fillColor=none;align=left;verticalAlign=top;spacingLeft=4;spacingRight=4;overflow=hidden;rotatable=0;points=[[0,0.5],[1,0.5]];portConstraint=eastwest;whiteSpace=wrap;html=1;" vertex="1" parent="5Mf-sOE8AnQbxtJJ7-1W-148">
          <mxGeometry y="242" width="280" height="26" as="geometry" />
        </mxCell>
        <mxCell id="5Mf-sOE8AnQbxtJJ7-1W-159" value="+ getType(): String" style="text;strokeColor=none;fillColor=none;align=left;verticalAlign=top;spacingLeft=4;spacingRight=4;overflow=hidden;rotatable=0;points=[[0,0.5],[1,0.5]];portConstraint=eastwest;whiteSpace=wrap;html=1;" vertex="1" parent="5Mf-sOE8AnQbxtJJ7-1W-148">
          <mxGeometry y="268" width="280" height="26" as="geometry" />
        </mxCell>
        <mxCell id="5Mf-sOE8AnQbxtJJ7-1W-160" value="+ setType(type: String): void" style="text;strokeColor=none;fillColor=none;align=left;verticalAlign=top;spacingLeft=4;spacingRight=4;overflow=hidden;rotatable=0;points=[[0,0.5],[1,0.5]];portConstraint=eastwest;whiteSpace=wrap;html=1;" vertex="1" parent="5Mf-sOE8AnQbxtJJ7-1W-148">
          <mxGeometry y="294" width="280" height="26" as="geometry" />
        </mxCell>
        <mxCell id="5Mf-sOE8AnQbxtJJ7-1W-161" value="+ getIdle(): PImage[]" style="text;strokeColor=none;fillColor=none;align=left;verticalAlign=top;spacingLeft=4;spacingRight=4;overflow=hidden;rotatable=0;points=[[0,0.5],[1,0.5]];portConstraint=eastwest;whiteSpace=wrap;html=1;" vertex="1" parent="5Mf-sOE8AnQbxtJJ7-1W-148">
          <mxGeometry y="320" width="280" height="30" as="geometry" />
        </mxCell>
        <mxCell id="5Mf-sOE8AnQbxtJJ7-1W-162" value="+ setIdle(idle: PImage[]): void" style="text;strokeColor=none;fillColor=none;align=left;verticalAlign=top;spacingLeft=4;spacingRight=4;overflow=hidden;rotatable=0;points=[[0,0.5],[1,0.5]];portConstraint=eastwest;whiteSpace=wrap;html=1;" vertex="1" parent="5Mf-sOE8AnQbxtJJ7-1W-148">
          <mxGeometry y="350" width="280" height="26" as="geometry" />
        </mxCell>
        <mxCell id="5Mf-sOE8AnQbxtJJ7-1W-163" value="+ getCtr(): int" style="text;strokeColor=none;fillColor=none;align=left;verticalAlign=top;spacingLeft=4;spacingRight=4;overflow=hidden;rotatable=0;points=[[0,0.5],[1,0.5]];portConstraint=eastwest;whiteSpace=wrap;html=1;" vertex="1" parent="5Mf-sOE8AnQbxtJJ7-1W-148">
          <mxGeometry y="376" width="280" height="26" as="geometry" />
        </mxCell>
        <mxCell id="5Mf-sOE8AnQbxtJJ7-1W-164" value="+ setCtr(ctr: int): void" style="text;strokeColor=none;fillColor=none;align=left;verticalAlign=top;spacingLeft=4;spacingRight=4;overflow=hidden;rotatable=0;points=[[0,0.5],[1,0.5]];portConstraint=eastwest;whiteSpace=wrap;html=1;" vertex="1" parent="5Mf-sOE8AnQbxtJJ7-1W-148">
          <mxGeometry y="402" width="280" height="26" as="geometry" />
        </mxCell>
        <mxCell id="5Mf-sOE8AnQbxtJJ7-1W-165" value="+ drawIdle(app: PApplet): void" style="text;strokeColor=none;fillColor=none;align=left;verticalAlign=top;spacingLeft=4;spacingRight=4;overflow=hidden;rotatable=0;points=[[0,0.5],[1,0.5]];portConstraint=eastwest;whiteSpace=wrap;html=1;" vertex="1" parent="5Mf-sOE8AnQbxtJJ7-1W-148">
          <mxGeometry y="428" width="280" height="26" as="geometry" />
        </mxCell>
        <mxCell id="5Mf-sOE8AnQbxtJJ7-1W-166" value="&lt;div&gt;+ damage(zombie: ArrayList&amp;lt;Zombie&amp;gt;):&amp;nbsp;&lt;span style=&quot;background-color: initial;&quot;&gt;boolean&lt;/span&gt;&lt;/div&gt;" style="text;strokeColor=none;fillColor=none;align=left;verticalAlign=top;spacingLeft=4;spacingRight=4;overflow=hidden;rotatable=0;points=[[0,0.5],[1,0.5]];portConstraint=eastwest;whiteSpace=wrap;html=1;" vertex="1" parent="5Mf-sOE8AnQbxtJJ7-1W-148">
          <mxGeometry y="454" width="280" height="26" as="geometry" />
        </mxCell>
        <mxCell id="5Mf-sOE8AnQbxtJJ7-1W-167" value="+ isChange(): boolean" style="text;strokeColor=none;fillColor=none;align=left;verticalAlign=top;spacingLeft=4;spacingRight=4;overflow=hidden;rotatable=0;points=[[0,0.5],[1,0.5]];portConstraint=eastwest;whiteSpace=wrap;html=1;" vertex="1" parent="5Mf-sOE8AnQbxtJJ7-1W-148">
          <mxGeometry y="480" width="280" height="26" as="geometry" />
        </mxCell>
        <mxCell id="5Mf-sOE8AnQbxtJJ7-1W-168" value="+ setChange(change: boolean): void" style="text;strokeColor=none;fillColor=none;align=left;verticalAlign=top;spacingLeft=4;spacingRight=4;overflow=hidden;rotatable=0;points=[[0,0.5],[1,0.5]];portConstraint=eastwest;whiteSpace=wrap;html=1;" vertex="1" parent="5Mf-sOE8AnQbxtJJ7-1W-148">
          <mxGeometry y="506" width="280" height="26" as="geometry" />
        </mxCell>
        <mxCell id="5Mf-sOE8AnQbxtJJ7-1W-169" value="Zombie" style="swimlane;fontStyle=1;align=center;verticalAlign=top;childLayout=stackLayout;horizontal=1;startSize=26;horizontalStack=0;resizeParent=1;resizeParentMax=0;resizeLast=0;collapsible=1;marginBottom=0;whiteSpace=wrap;html=1;" vertex="1" parent="WIyWlLk6GJQsqaUBKTNV-1">
          <mxGeometry x="-740" y="1405" width="240" height="918" as="geometry" />
        </mxCell>
        <mxCell id="5Mf-sOE8AnQbxtJJ7-1W-170" value="- x: int" style="text;strokeColor=none;fillColor=none;align=left;verticalAlign=top;spacingLeft=4;spacingRight=4;overflow=hidden;rotatable=0;points=[[0,0.5],[1,0.5]];portConstraint=eastwest;whiteSpace=wrap;html=1;" vertex="1" parent="5Mf-sOE8AnQbxtJJ7-1W-169">
          <mxGeometry y="26" width="240" height="26" as="geometry" />
        </mxCell>
        <mxCell id="5Mf-sOE8AnQbxtJJ7-1W-174" value="- y: int" style="text;strokeColor=none;fillColor=none;align=left;verticalAlign=top;spacingLeft=4;spacingRight=4;overflow=hidden;rotatable=0;points=[[0,0.5],[1,0.5]];portConstraint=eastwest;whiteSpace=wrap;html=1;" vertex="1" parent="5Mf-sOE8AnQbxtJJ7-1W-169">
          <mxGeometry y="52" width="240" height="26" as="geometry" />
        </mxCell>
        <mxCell id="5Mf-sOE8AnQbxtJJ7-1W-177" value="- idle: PImage[]" style="text;strokeColor=none;fillColor=none;align=left;verticalAlign=top;spacingLeft=4;spacingRight=4;overflow=hidden;rotatable=0;points=[[0,0.5],[1,0.5]];portConstraint=eastwest;whiteSpace=wrap;html=1;" vertex="1" parent="5Mf-sOE8AnQbxtJJ7-1W-169">
          <mxGeometry y="78" width="240" height="26" as="geometry" />
        </mxCell>
        <mxCell id="5Mf-sOE8AnQbxtJJ7-1W-178" value="- eat: PImage[]&amp;nbsp;" style="text;strokeColor=none;fillColor=none;align=left;verticalAlign=top;spacingLeft=4;spacingRight=4;overflow=hidden;rotatable=0;points=[[0,0.5],[1,0.5]];portConstraint=eastwest;whiteSpace=wrap;html=1;" vertex="1" parent="5Mf-sOE8AnQbxtJJ7-1W-169">
          <mxGeometry y="104" width="240" height="26" as="geometry" />
        </mxCell>
        <mxCell id="5Mf-sOE8AnQbxtJJ7-1W-179" value="- hp: int" style="text;strokeColor=none;fillColor=none;align=left;verticalAlign=top;spacingLeft=4;spacingRight=4;overflow=hidden;rotatable=0;points=[[0,0.5],[1,0.5]];portConstraint=eastwest;whiteSpace=wrap;html=1;" vertex="1" parent="5Mf-sOE8AnQbxtJJ7-1W-169">
          <mxGeometry y="130" width="240" height="26" as="geometry" />
        </mxCell>
        <mxCell id="5Mf-sOE8AnQbxtJJ7-1W-180" value="- dmg: int" style="text;strokeColor=none;fillColor=none;align=left;verticalAlign=top;spacingLeft=4;spacingRight=4;overflow=hidden;rotatable=0;points=[[0,0.5],[1,0.5]];portConstraint=eastwest;whiteSpace=wrap;html=1;" vertex="1" parent="5Mf-sOE8AnQbxtJJ7-1W-169">
          <mxGeometry y="156" width="240" height="26" as="geometry" />
        </mxCell>
        <mxCell id="5Mf-sOE8AnQbxtJJ7-1W-181" value="- speed: int" style="text;strokeColor=none;fillColor=none;align=left;verticalAlign=top;spacingLeft=4;spacingRight=4;overflow=hidden;rotatable=0;points=[[0,0.5],[1,0.5]];portConstraint=eastwest;whiteSpace=wrap;html=1;" vertex="1" parent="5Mf-sOE8AnQbxtJJ7-1W-169">
          <mxGeometry y="182" width="240" height="26" as="geometry" />
        </mxCell>
        <mxCell id="5Mf-sOE8AnQbxtJJ7-1W-176" value="- ctr: int" style="text;strokeColor=none;fillColor=none;align=left;verticalAlign=top;spacingLeft=4;spacingRight=4;overflow=hidden;rotatable=0;points=[[0,0.5],[1,0.5]];portConstraint=eastwest;whiteSpace=wrap;html=1;" vertex="1" parent="5Mf-sOE8AnQbxtJJ7-1W-169">
          <mxGeometry y="208" width="240" height="26" as="geometry" />
        </mxCell>
        <mxCell id="5Mf-sOE8AnQbxtJJ7-1W-182" value="- idleSize: int" style="text;strokeColor=none;fillColor=none;align=left;verticalAlign=top;spacingLeft=4;spacingRight=4;overflow=hidden;rotatable=0;points=[[0,0.5],[1,0.5]];portConstraint=eastwest;whiteSpace=wrap;html=1;" vertex="1" parent="5Mf-sOE8AnQbxtJJ7-1W-169">
          <mxGeometry y="234" width="240" height="26" as="geometry" />
        </mxCell>
        <mxCell id="5Mf-sOE8AnQbxtJJ7-1W-183" value="- eatSize: int" style="text;strokeColor=none;fillColor=none;align=left;verticalAlign=top;spacingLeft=4;spacingRight=4;overflow=hidden;rotatable=0;points=[[0,0.5],[1,0.5]];portConstraint=eastwest;whiteSpace=wrap;html=1;" vertex="1" parent="5Mf-sOE8AnQbxtJJ7-1W-169">
          <mxGeometry y="260" width="240" height="26" as="geometry" />
        </mxCell>
        <mxCell id="5Mf-sOE8AnQbxtJJ7-1W-184" value="- health: int" style="text;strokeColor=none;fillColor=none;align=left;verticalAlign=top;spacingLeft=4;spacingRight=4;overflow=hidden;rotatable=0;points=[[0,0.5],[1,0.5]];portConstraint=eastwest;whiteSpace=wrap;html=1;" vertex="1" parent="5Mf-sOE8AnQbxtJJ7-1W-169">
          <mxGeometry y="286" width="240" height="26" as="geometry" />
        </mxCell>
        <mxCell id="5Mf-sOE8AnQbxtJJ7-1W-185" value="- walkCtr: int&amp;nbsp;" style="text;strokeColor=none;fillColor=none;align=left;verticalAlign=top;spacingLeft=4;spacingRight=4;overflow=hidden;rotatable=0;points=[[0,0.5],[1,0.5]];portConstraint=eastwest;whiteSpace=wrap;html=1;" vertex="1" parent="5Mf-sOE8AnQbxtJJ7-1W-169">
          <mxGeometry y="312" width="240" height="26" as="geometry" />
        </mxCell>
        <mxCell id="5Mf-sOE8AnQbxtJJ7-1W-172" value="- slowCtr: int" style="text;strokeColor=none;fillColor=none;align=left;verticalAlign=top;spacingLeft=4;spacingRight=4;overflow=hidden;rotatable=0;points=[[0,0.5],[1,0.5]];portConstraint=eastwest;whiteSpace=wrap;html=1;" vertex="1" parent="5Mf-sOE8AnQbxtJJ7-1W-169">
          <mxGeometry y="338" width="240" height="26" as="geometry" />
        </mxCell>
        <mxCell id="5Mf-sOE8AnQbxtJJ7-1W-171" value="" style="line;strokeWidth=1;fillColor=none;align=left;verticalAlign=middle;spacingTop=-1;spacingLeft=3;spacingRight=3;rotatable=0;labelPosition=right;points=[];portConstraint=eastwest;strokeColor=inherit;" vertex="1" parent="5Mf-sOE8AnQbxtJJ7-1W-169">
          <mxGeometry y="364" width="240" height="8" as="geometry" />
        </mxCell>
        <mxCell id="5Mf-sOE8AnQbxtJJ7-1W-173" value="+ drawIdle(app: PApplet): void" style="text;strokeColor=none;fillColor=none;align=left;verticalAlign=top;spacingLeft=4;spacingRight=4;overflow=hidden;rotatable=0;points=[[0,0.5],[1,0.5]];portConstraint=eastwest;whiteSpace=wrap;html=1;" vertex="1" parent="5Mf-sOE8AnQbxtJJ7-1W-169">
          <mxGeometry y="372" width="240" height="26" as="geometry" />
        </mxCell>
        <mxCell id="5Mf-sOE8AnQbxtJJ7-1W-186" value="+ drawEat(app: PApplet): void" style="text;strokeColor=none;fillColor=none;align=left;verticalAlign=top;spacingLeft=4;spacingRight=4;overflow=hidden;rotatable=0;points=[[0,0.5],[1,0.5]];portConstraint=eastwest;whiteSpace=wrap;html=1;" vertex="1" parent="5Mf-sOE8AnQbxtJJ7-1W-169">
          <mxGeometry y="398" width="240" height="26" as="geometry" />
        </mxCell>
        <mxCell id="5Mf-sOE8AnQbxtJJ7-1W-191" value="+ makan(t: Tile): boolean" style="text;strokeColor=none;fillColor=none;align=left;verticalAlign=top;spacingLeft=4;spacingRight=4;overflow=hidden;rotatable=0;points=[[0,0.5],[1,0.5]];portConstraint=eastwest;whiteSpace=wrap;html=1;" vertex="1" parent="5Mf-sOE8AnQbxtJJ7-1W-169">
          <mxGeometry y="424" width="240" height="26" as="geometry" />
        </mxCell>
        <mxCell id="5Mf-sOE8AnQbxtJJ7-1W-189" value="+ getX(): int&amp;nbsp;" style="text;strokeColor=none;fillColor=none;align=left;verticalAlign=top;spacingLeft=4;spacingRight=4;overflow=hidden;rotatable=0;points=[[0,0.5],[1,0.5]];portConstraint=eastwest;whiteSpace=wrap;html=1;" vertex="1" parent="5Mf-sOE8AnQbxtJJ7-1W-169">
          <mxGeometry y="450" width="240" height="26" as="geometry" />
        </mxCell>
        <mxCell id="5Mf-sOE8AnQbxtJJ7-1W-190" value="+ setX(x: int): void" style="text;strokeColor=none;fillColor=none;align=left;verticalAlign=top;spacingLeft=4;spacingRight=4;overflow=hidden;rotatable=0;points=[[0,0.5],[1,0.5]];portConstraint=eastwest;whiteSpace=wrap;html=1;" vertex="1" parent="5Mf-sOE8AnQbxtJJ7-1W-169">
          <mxGeometry y="476" width="240" height="26" as="geometry" />
        </mxCell>
        <mxCell id="5Mf-sOE8AnQbxtJJ7-1W-187" value="+ getY(): int&amp;nbsp;" style="text;strokeColor=none;fillColor=none;align=left;verticalAlign=top;spacingLeft=4;spacingRight=4;overflow=hidden;rotatable=0;points=[[0,0.5],[1,0.5]];portConstraint=eastwest;whiteSpace=wrap;html=1;" vertex="1" parent="5Mf-sOE8AnQbxtJJ7-1W-169">
          <mxGeometry y="502" width="240" height="26" as="geometry" />
        </mxCell>
        <mxCell id="5Mf-sOE8AnQbxtJJ7-1W-188" value="+ setY(y: int): void" style="text;strokeColor=none;fillColor=none;align=left;verticalAlign=top;spacingLeft=4;spacingRight=4;overflow=hidden;rotatable=0;points=[[0,0.5],[1,0.5]];portConstraint=eastwest;whiteSpace=wrap;html=1;" vertex="1" parent="5Mf-sOE8AnQbxtJJ7-1W-169">
          <mxGeometry y="528" width="240" height="26" as="geometry" />
        </mxCell>
        <mxCell id="5Mf-sOE8AnQbxtJJ7-1W-192" value="+ getIdle(): PImage[]&amp;nbsp;" style="text;strokeColor=none;fillColor=none;align=left;verticalAlign=top;spacingLeft=4;spacingRight=4;overflow=hidden;rotatable=0;points=[[0,0.5],[1,0.5]];portConstraint=eastwest;whiteSpace=wrap;html=1;" vertex="1" parent="5Mf-sOE8AnQbxtJJ7-1W-169">
          <mxGeometry y="554" width="240" height="26" as="geometry" />
        </mxCell>
        <mxCell id="5Mf-sOE8AnQbxtJJ7-1W-193" value="+ setIdle(idle: PImage[]): void&amp;nbsp;" style="text;strokeColor=none;fillColor=none;align=left;verticalAlign=top;spacingLeft=4;spacingRight=4;overflow=hidden;rotatable=0;points=[[0,0.5],[1,0.5]];portConstraint=eastwest;whiteSpace=wrap;html=1;" vertex="1" parent="5Mf-sOE8AnQbxtJJ7-1W-169">
          <mxGeometry y="580" width="240" height="26" as="geometry" />
        </mxCell>
        <mxCell id="5Mf-sOE8AnQbxtJJ7-1W-194" value="+ getHp(): int" style="text;strokeColor=none;fillColor=none;align=left;verticalAlign=top;spacingLeft=4;spacingRight=4;overflow=hidden;rotatable=0;points=[[0,0.5],[1,0.5]];portConstraint=eastwest;whiteSpace=wrap;html=1;" vertex="1" parent="5Mf-sOE8AnQbxtJJ7-1W-169">
          <mxGeometry y="606" width="240" height="26" as="geometry" />
        </mxCell>
        <mxCell id="5Mf-sOE8AnQbxtJJ7-1W-175" value="+ setHp(hp: int): void" style="text;strokeColor=none;fillColor=none;align=left;verticalAlign=top;spacingLeft=4;spacingRight=4;overflow=hidden;rotatable=0;points=[[0,0.5],[1,0.5]];portConstraint=eastwest;whiteSpace=wrap;html=1;" vertex="1" parent="5Mf-sOE8AnQbxtJJ7-1W-169">
          <mxGeometry y="632" width="240" height="26" as="geometry" />
        </mxCell>
        <mxCell id="5Mf-sOE8AnQbxtJJ7-1W-195" value="+ getDmg(): int&amp;nbsp;" style="text;strokeColor=none;fillColor=none;align=left;verticalAlign=top;spacingLeft=4;spacingRight=4;overflow=hidden;rotatable=0;points=[[0,0.5],[1,0.5]];portConstraint=eastwest;whiteSpace=wrap;html=1;" vertex="1" parent="5Mf-sOE8AnQbxtJJ7-1W-169">
          <mxGeometry y="658" width="240" height="26" as="geometry" />
        </mxCell>
        <mxCell id="5Mf-sOE8AnQbxtJJ7-1W-196" value="+ getSpeed(): int&amp;nbsp;" style="text;strokeColor=none;fillColor=none;align=left;verticalAlign=top;spacingLeft=4;spacingRight=4;overflow=hidden;rotatable=0;points=[[0,0.5],[1,0.5]];portConstraint=eastwest;whiteSpace=wrap;html=1;" vertex="1" parent="5Mf-sOE8AnQbxtJJ7-1W-169">
          <mxGeometry y="684" width="240" height="26" as="geometry" />
        </mxCell>
        <mxCell id="5Mf-sOE8AnQbxtJJ7-1W-198" value="+ getCtr(): int" style="text;strokeColor=none;fillColor=none;align=left;verticalAlign=top;spacingLeft=4;spacingRight=4;overflow=hidden;rotatable=0;points=[[0,0.5],[1,0.5]];portConstraint=eastwest;whiteSpace=wrap;html=1;" vertex="1" parent="5Mf-sOE8AnQbxtJJ7-1W-169">
          <mxGeometry y="710" width="240" height="26" as="geometry" />
        </mxCell>
        <mxCell id="5Mf-sOE8AnQbxtJJ7-1W-197" value="+ setCtr(ctr: int): void" style="text;strokeColor=none;fillColor=none;align=left;verticalAlign=top;spacingLeft=4;spacingRight=4;overflow=hidden;rotatable=0;points=[[0,0.5],[1,0.5]];portConstraint=eastwest;whiteSpace=wrap;html=1;" vertex="1" parent="5Mf-sOE8AnQbxtJJ7-1W-169">
          <mxGeometry y="736" width="240" height="26" as="geometry" />
        </mxCell>
        <mxCell id="5Mf-sOE8AnQbxtJJ7-1W-199" value="+ setIdleSize(idleSize: int): void" style="text;strokeColor=none;fillColor=none;align=left;verticalAlign=top;spacingLeft=4;spacingRight=4;overflow=hidden;rotatable=0;points=[[0,0.5],[1,0.5]];portConstraint=eastwest;whiteSpace=wrap;html=1;" vertex="1" parent="5Mf-sOE8AnQbxtJJ7-1W-169">
          <mxGeometry y="762" width="240" height="26" as="geometry" />
        </mxCell>
        <mxCell id="5Mf-sOE8AnQbxtJJ7-1W-200" value="+ getHealth(): int&amp;nbsp;" style="text;strokeColor=none;fillColor=none;align=left;verticalAlign=top;spacingLeft=4;spacingRight=4;overflow=hidden;rotatable=0;points=[[0,0.5],[1,0.5]];portConstraint=eastwest;whiteSpace=wrap;html=1;" vertex="1" parent="5Mf-sOE8AnQbxtJJ7-1W-169">
          <mxGeometry y="788" width="240" height="26" as="geometry" />
        </mxCell>
        <mxCell id="5Mf-sOE8AnQbxtJJ7-1W-201" value="+ getWalkCtr(): int&amp;nbsp;" style="text;strokeColor=none;fillColor=none;align=left;verticalAlign=top;spacingLeft=4;spacingRight=4;overflow=hidden;rotatable=0;points=[[0,0.5],[1,0.5]];portConstraint=eastwest;whiteSpace=wrap;html=1;" vertex="1" parent="5Mf-sOE8AnQbxtJJ7-1W-169">
          <mxGeometry y="814" width="240" height="26" as="geometry" />
        </mxCell>
        <mxCell id="5Mf-sOE8AnQbxtJJ7-1W-202" value="+ setWalkCtr(walkCtr: int): void&amp;nbsp;" style="text;strokeColor=none;fillColor=none;align=left;verticalAlign=top;spacingLeft=4;spacingRight=4;overflow=hidden;rotatable=0;points=[[0,0.5],[1,0.5]];portConstraint=eastwest;whiteSpace=wrap;html=1;" vertex="1" parent="5Mf-sOE8AnQbxtJJ7-1W-169">
          <mxGeometry y="840" width="240" height="26" as="geometry" />
        </mxCell>
        <mxCell id="5Mf-sOE8AnQbxtJJ7-1W-203" value="+ setEat(eat: PImage[]): void&amp;nbsp;" style="text;strokeColor=none;fillColor=none;align=left;verticalAlign=top;spacingLeft=4;spacingRight=4;overflow=hidden;rotatable=0;points=[[0,0.5],[1,0.5]];portConstraint=eastwest;whiteSpace=wrap;html=1;" vertex="1" parent="5Mf-sOE8AnQbxtJJ7-1W-169">
          <mxGeometry y="866" width="240" height="26" as="geometry" />
        </mxCell>
        <mxCell id="5Mf-sOE8AnQbxtJJ7-1W-204" value="+ setEatSize(eatSize: int): void" style="text;strokeColor=none;fillColor=none;align=left;verticalAlign=top;spacingLeft=4;spacingRight=4;overflow=hidden;rotatable=0;points=[[0,0.5],[1,0.5]];portConstraint=eastwest;whiteSpace=wrap;html=1;" vertex="1" parent="5Mf-sOE8AnQbxtJJ7-1W-169">
          <mxGeometry y="892" width="240" height="26" as="geometry" />
        </mxCell>
        <mxCell id="5Mf-sOE8AnQbxtJJ7-1W-206" value="&lt;b&gt;Basic&lt;/b&gt;" style="html=1;whiteSpace=wrap;" vertex="1" parent="WIyWlLk6GJQsqaUBKTNV-1">
          <mxGeometry x="-338" y="1547" width="210" height="30" as="geometry" />
        </mxCell>
        <mxCell id="5Mf-sOE8AnQbxtJJ7-1W-207" value="Conehead" style="html=1;whiteSpace=wrap;fontStyle=1" vertex="1" parent="WIyWlLk6GJQsqaUBKTNV-1">
          <mxGeometry x="-338" y="1607" width="210" height="30" as="geometry" />
        </mxCell>
        <mxCell id="5Mf-sOE8AnQbxtJJ7-1W-208" value="DuckyTube" style="swimlane;fontStyle=1;childLayout=stackLayout;horizontal=1;startSize=26;fillColor=none;horizontalStack=0;resizeParent=1;resizeParentMax=0;resizeLast=0;collapsible=1;marginBottom=0;whiteSpace=wrap;html=1;" vertex="1" parent="WIyWlLk6GJQsqaUBKTNV-1">
          <mxGeometry x="-338" y="1657" width="210" height="78" as="geometry" />
        </mxCell>
        <mxCell id="5Mf-sOE8AnQbxtJJ7-1W-209" value="- swim : PImage[ ]" style="text;strokeColor=none;fillColor=none;align=left;verticalAlign=top;spacingLeft=4;spacingRight=4;overflow=hidden;rotatable=0;points=[[0,0.5],[1,0.5]];portConstraint=eastwest;whiteSpace=wrap;html=1;" vertex="1" parent="5Mf-sOE8AnQbxtJJ7-1W-208">
          <mxGeometry y="26" width="210" height="26" as="geometry" />
        </mxCell>
        <mxCell id="5Mf-sOE8AnQbxtJJ7-1W-210" value="- swimSize : int" style="text;strokeColor=none;fillColor=none;align=left;verticalAlign=top;spacingLeft=4;spacingRight=4;overflow=hidden;rotatable=0;points=[[0,0.5],[1,0.5]];portConstraint=eastwest;whiteSpace=wrap;html=1;" vertex="1" parent="5Mf-sOE8AnQbxtJJ7-1W-208">
          <mxGeometry y="52" width="210" height="26" as="geometry" />
        </mxCell>
        <mxCell id="5Mf-sOE8AnQbxtJJ7-1W-212" value="Football" style="html=1;whiteSpace=wrap;fontStyle=1" vertex="1" parent="WIyWlLk6GJQsqaUBKTNV-1">
          <mxGeometry x="-338" y="1757" width="210" height="30" as="geometry" />
        </mxCell>
        <mxCell id="5Mf-sOE8AnQbxtJJ7-1W-221" value="Gargantuar" style="swimlane;fontStyle=1;align=center;verticalAlign=top;childLayout=stackLayout;horizontal=1;startSize=26;horizontalStack=0;resizeParent=1;resizeParentMax=0;resizeLast=0;collapsible=1;marginBottom=0;whiteSpace=wrap;html=1;" vertex="1" parent="WIyWlLk6GJQsqaUBKTNV-1">
          <mxGeometry x="-338" y="1807" width="210" height="112" as="geometry" />
        </mxCell>
        <mxCell id="5Mf-sOE8AnQbxtJJ7-1W-222" value="- lempar : boolean" style="text;strokeColor=none;fillColor=none;align=left;verticalAlign=top;spacingLeft=4;spacingRight=4;overflow=hidden;rotatable=0;points=[[0,0.5],[1,0.5]];portConstraint=eastwest;whiteSpace=wrap;html=1;" vertex="1" parent="5Mf-sOE8AnQbxtJJ7-1W-221">
          <mxGeometry y="26" width="210" height="26" as="geometry" />
        </mxCell>
        <mxCell id="5Mf-sOE8AnQbxtJJ7-1W-223" value="" style="line;strokeWidth=1;fillColor=none;align=left;verticalAlign=middle;spacingTop=-1;spacingLeft=3;spacingRight=3;rotatable=0;labelPosition=right;points=[];portConstraint=eastwest;strokeColor=inherit;" vertex="1" parent="5Mf-sOE8AnQbxtJJ7-1W-221">
          <mxGeometry y="52" width="210" height="8" as="geometry" />
        </mxCell>
        <mxCell id="5Mf-sOE8AnQbxtJJ7-1W-224" value="+ isLempar(): boolean" style="text;strokeColor=none;fillColor=none;align=left;verticalAlign=top;spacingLeft=4;spacingRight=4;overflow=hidden;rotatable=0;points=[[0,0.5],[1,0.5]];portConstraint=eastwest;whiteSpace=wrap;html=1;" vertex="1" parent="5Mf-sOE8AnQbxtJJ7-1W-221">
          <mxGeometry y="60" width="210" height="26" as="geometry" />
        </mxCell>
        <mxCell id="5Mf-sOE8AnQbxtJJ7-1W-225" value="+ setLempar(lempar : boolean): void" style="text;strokeColor=none;fillColor=none;align=left;verticalAlign=top;spacingLeft=4;spacingRight=4;overflow=hidden;rotatable=0;points=[[0,0.5],[1,0.5]];portConstraint=eastwest;whiteSpace=wrap;html=1;" vertex="1" parent="5Mf-sOE8AnQbxtJJ7-1W-221">
          <mxGeometry y="86" width="210" height="26" as="geometry" />
        </mxCell>
        <mxCell id="5Mf-sOE8AnQbxtJJ7-1W-226" value="Imp" style="swimlane;fontStyle=1;align=center;verticalAlign=top;childLayout=stackLayout;horizontal=1;startSize=26;horizontalStack=0;resizeParent=1;resizeParentMax=0;resizeLast=0;collapsible=1;marginBottom=0;whiteSpace=wrap;html=1;" vertex="1" parent="WIyWlLk6GJQsqaUBKTNV-1">
          <mxGeometry x="-338" y="1937" width="210" height="216" as="geometry" />
        </mxCell>
        <mxCell id="5Mf-sOE8AnQbxtJJ7-1W-227" value="- yawal : int" style="text;strokeColor=none;fillColor=none;align=left;verticalAlign=top;spacingLeft=4;spacingRight=4;overflow=hidden;rotatable=0;points=[[0,0.5],[1,0.5]];portConstraint=eastwest;whiteSpace=wrap;html=1;" vertex="1" parent="5Mf-sOE8AnQbxtJJ7-1W-226">
          <mxGeometry y="26" width="210" height="26" as="geometry" />
        </mxCell>
        <mxCell id="5Mf-sOE8AnQbxtJJ7-1W-231" value="- changeY : int" style="text;strokeColor=none;fillColor=none;align=left;verticalAlign=top;spacingLeft=4;spacingRight=4;overflow=hidden;rotatable=0;points=[[0,0.5],[1,0.5]];portConstraint=eastwest;whiteSpace=wrap;html=1;" vertex="1" parent="5Mf-sOE8AnQbxtJJ7-1W-226">
          <mxGeometry y="52" width="210" height="26" as="geometry" />
        </mxCell>
        <mxCell id="5Mf-sOE8AnQbxtJJ7-1W-232" value="- changeX : int" style="text;strokeColor=none;fillColor=none;align=left;verticalAlign=top;spacingLeft=4;spacingRight=4;overflow=hidden;rotatable=0;points=[[0,0.5],[1,0.5]];portConstraint=eastwest;whiteSpace=wrap;html=1;" vertex="1" parent="5Mf-sOE8AnQbxtJJ7-1W-226">
          <mxGeometry y="78" width="210" height="26" as="geometry" />
        </mxCell>
        <mxCell id="5Mf-sOE8AnQbxtJJ7-1W-228" value="" style="line;strokeWidth=1;fillColor=none;align=left;verticalAlign=middle;spacingTop=-1;spacingLeft=3;spacingRight=3;rotatable=0;labelPosition=right;points=[];portConstraint=eastwest;strokeColor=inherit;" vertex="1" parent="5Mf-sOE8AnQbxtJJ7-1W-226">
          <mxGeometry y="104" width="210" height="8" as="geometry" />
        </mxCell>
        <mxCell id="5Mf-sOE8AnQbxtJJ7-1W-229" value="+ jalan() : boolean" style="text;strokeColor=none;fillColor=none;align=left;verticalAlign=top;spacingLeft=4;spacingRight=4;overflow=hidden;rotatable=0;points=[[0,0.5],[1,0.5]];portConstraint=eastwest;whiteSpace=wrap;html=1;" vertex="1" parent="5Mf-sOE8AnQbxtJJ7-1W-226">
          <mxGeometry y="112" width="210" height="26" as="geometry" />
        </mxCell>
        <mxCell id="5Mf-sOE8AnQbxtJJ7-1W-230" value="+ getYawal() : int" style="text;strokeColor=none;fillColor=none;align=left;verticalAlign=top;spacingLeft=4;spacingRight=4;overflow=hidden;rotatable=0;points=[[0,0.5],[1,0.5]];portConstraint=eastwest;whiteSpace=wrap;html=1;" vertex="1" parent="5Mf-sOE8AnQbxtJJ7-1W-226">
          <mxGeometry y="138" width="210" height="26" as="geometry" />
        </mxCell>
        <mxCell id="5Mf-sOE8AnQbxtJJ7-1W-233" value="+ getChangeY() : int" style="text;strokeColor=none;fillColor=none;align=left;verticalAlign=top;spacingLeft=4;spacingRight=4;overflow=hidden;rotatable=0;points=[[0,0.5],[1,0.5]];portConstraint=eastwest;whiteSpace=wrap;html=1;" vertex="1" parent="5Mf-sOE8AnQbxtJJ7-1W-226">
          <mxGeometry y="164" width="210" height="26" as="geometry" />
        </mxCell>
        <mxCell id="5Mf-sOE8AnQbxtJJ7-1W-234" value="+ getChangeX() : int" style="text;strokeColor=none;fillColor=none;align=left;verticalAlign=top;spacingLeft=4;spacingRight=4;overflow=hidden;rotatable=0;points=[[0,0.5],[1,0.5]];portConstraint=eastwest;whiteSpace=wrap;html=1;" vertex="1" parent="5Mf-sOE8AnQbxtJJ7-1W-226">
          <mxGeometry y="190" width="210" height="26" as="geometry" />
        </mxCell>
        <mxCell id="5Mf-sOE8AnQbxtJJ7-1W-244" value="&lt;b&gt;Snorkel&lt;/b&gt;" style="swimlane;fontStyle=0;childLayout=stackLayout;horizontal=1;startSize=26;fillColor=none;horizontalStack=0;resizeParent=1;resizeParentMax=0;resizeLast=0;collapsible=1;marginBottom=0;whiteSpace=wrap;html=1;" vertex="1" parent="WIyWlLk6GJQsqaUBKTNV-1">
          <mxGeometry x="-338" y="2177" width="210" height="78" as="geometry" />
        </mxCell>
        <mxCell id="5Mf-sOE8AnQbxtJJ7-1W-245" value="- swim : PImage[ ]" style="text;strokeColor=none;fillColor=none;align=left;verticalAlign=top;spacingLeft=4;spacingRight=4;overflow=hidden;rotatable=0;points=[[0,0.5],[1,0.5]];portConstraint=eastwest;whiteSpace=wrap;html=1;" vertex="1" parent="5Mf-sOE8AnQbxtJJ7-1W-244">
          <mxGeometry y="26" width="210" height="26" as="geometry" />
        </mxCell>
        <mxCell id="5Mf-sOE8AnQbxtJJ7-1W-246" value="- swimSize : int" style="text;strokeColor=none;fillColor=none;align=left;verticalAlign=top;spacingLeft=4;spacingRight=4;overflow=hidden;rotatable=0;points=[[0,0.5],[1,0.5]];portConstraint=eastwest;whiteSpace=wrap;html=1;" vertex="1" parent="5Mf-sOE8AnQbxtJJ7-1W-244">
          <mxGeometry y="52" width="210" height="26" as="geometry" />
        </mxCell>
        <mxCell id="5Mf-sOE8AnQbxtJJ7-1W-247" style="edgeStyle=orthogonalEdgeStyle;rounded=0;orthogonalLoop=1;jettySize=auto;html=1;exitX=1;exitY=0.5;exitDx=0;exitDy=0;entryX=0;entryY=0.75;entryDx=0;entryDy=0;" edge="1" parent="WIyWlLk6GJQsqaUBKTNV-1" source="5Mf-sOE8AnQbxtJJ7-1W-187" target="5Mf-sOE8AnQbxtJJ7-1W-206">
          <mxGeometry relative="1" as="geometry" />
        </mxCell>
        <mxCell id="5Mf-sOE8AnQbxtJJ7-1W-249" style="edgeStyle=orthogonalEdgeStyle;rounded=0;orthogonalLoop=1;jettySize=auto;html=1;exitX=1;exitY=0.5;exitDx=0;exitDy=0;entryX=0;entryY=0.5;entryDx=0;entryDy=0;" edge="1" parent="WIyWlLk6GJQsqaUBKTNV-1" source="5Mf-sOE8AnQbxtJJ7-1W-187" target="5Mf-sOE8AnQbxtJJ7-1W-207">
          <mxGeometry relative="1" as="geometry" />
        </mxCell>
        <mxCell id="5Mf-sOE8AnQbxtJJ7-1W-250" style="edgeStyle=orthogonalEdgeStyle;rounded=0;orthogonalLoop=1;jettySize=auto;html=1;exitX=1;exitY=0.5;exitDx=0;exitDy=0;entryX=0;entryY=0.5;entryDx=0;entryDy=0;" edge="1" parent="WIyWlLk6GJQsqaUBKTNV-1" source="5Mf-sOE8AnQbxtJJ7-1W-187" target="5Mf-sOE8AnQbxtJJ7-1W-209">
          <mxGeometry relative="1" as="geometry" />
        </mxCell>
        <mxCell id="5Mf-sOE8AnQbxtJJ7-1W-251" style="edgeStyle=orthogonalEdgeStyle;rounded=0;orthogonalLoop=1;jettySize=auto;html=1;exitX=1;exitY=0.5;exitDx=0;exitDy=0;entryX=0;entryY=0.5;entryDx=0;entryDy=0;" edge="1" parent="WIyWlLk6GJQsqaUBKTNV-1" source="5Mf-sOE8AnQbxtJJ7-1W-187" target="5Mf-sOE8AnQbxtJJ7-1W-212">
          <mxGeometry relative="1" as="geometry" />
        </mxCell>
        <mxCell id="5Mf-sOE8AnQbxtJJ7-1W-252" style="edgeStyle=orthogonalEdgeStyle;rounded=0;orthogonalLoop=1;jettySize=auto;html=1;exitX=1;exitY=0.5;exitDx=0;exitDy=0;entryX=-0.001;entryY=0.101;entryDx=0;entryDy=0;entryPerimeter=0;" edge="1" parent="WIyWlLk6GJQsqaUBKTNV-1" source="5Mf-sOE8AnQbxtJJ7-1W-187" target="5Mf-sOE8AnQbxtJJ7-1W-221">
          <mxGeometry relative="1" as="geometry" />
        </mxCell>
        <mxCell id="5Mf-sOE8AnQbxtJJ7-1W-253" style="edgeStyle=orthogonalEdgeStyle;rounded=0;orthogonalLoop=1;jettySize=auto;html=1;exitX=1;exitY=0.5;exitDx=0;exitDy=0;entryX=0;entryY=0.5;entryDx=0;entryDy=0;" edge="1" parent="WIyWlLk6GJQsqaUBKTNV-1" source="5Mf-sOE8AnQbxtJJ7-1W-187" target="5Mf-sOE8AnQbxtJJ7-1W-231">
          <mxGeometry relative="1" as="geometry" />
        </mxCell>
        <mxCell id="5Mf-sOE8AnQbxtJJ7-1W-254" style="edgeStyle=orthogonalEdgeStyle;rounded=0;orthogonalLoop=1;jettySize=auto;html=1;exitX=1;exitY=0.5;exitDx=0;exitDy=0;entryX=0;entryY=0.25;entryDx=0;entryDy=0;" edge="1" parent="WIyWlLk6GJQsqaUBKTNV-1" source="5Mf-sOE8AnQbxtJJ7-1W-187" target="5Mf-sOE8AnQbxtJJ7-1W-244">
          <mxGeometry relative="1" as="geometry" />
        </mxCell>
        <mxCell id="5Mf-sOE8AnQbxtJJ7-1W-256" value="Adventure" style="swimlane;fontStyle=1;align=center;verticalAlign=top;childLayout=stackLayout;horizontal=1;startSize=26;horizontalStack=0;resizeParent=1;resizeParentMax=0;resizeLast=0;collapsible=1;marginBottom=0;whiteSpace=wrap;html=1;" vertex="1" parent="WIyWlLk6GJQsqaUBKTNV-1">
          <mxGeometry x="1290" y="80" width="320" height="1876" as="geometry" />
        </mxCell>
        <mxCell id="5Mf-sOE8AnQbxtJJ7-1W-259" value="- WIDTH: int" style="text;strokeColor=none;fillColor=none;align=left;verticalAlign=top;spacingLeft=4;spacingRight=4;overflow=hidden;rotatable=0;points=[[0,0.5],[1,0.5]];portConstraint=eastwest;whiteSpace=wrap;html=1;" vertex="1" parent="5Mf-sOE8AnQbxtJJ7-1W-256">
          <mxGeometry y="26" width="320" height="26" as="geometry" />
        </mxCell>
        <mxCell id="5Mf-sOE8AnQbxtJJ7-1W-262" value="- HEIGHT: int" style="text;strokeColor=none;fillColor=none;align=left;verticalAlign=top;spacingLeft=4;spacingRight=4;overflow=hidden;rotatable=0;points=[[0,0.5],[1,0.5]];portConstraint=eastwest;whiteSpace=wrap;html=1;" vertex="1" parent="5Mf-sOE8AnQbxtJJ7-1W-256">
          <mxGeometry y="52" width="320" height="26" as="geometry" />
        </mxCell>
        <mxCell id="5Mf-sOE8AnQbxtJJ7-1W-263" value="- FPS: int" style="text;strokeColor=none;fillColor=none;align=left;verticalAlign=top;spacingLeft=4;spacingRight=4;overflow=hidden;rotatable=0;points=[[0,0.5],[1,0.5]];portConstraint=eastwest;whiteSpace=wrap;html=1;" vertex="1" parent="5Mf-sOE8AnQbxtJJ7-1W-256">
          <mxGeometry y="78" width="320" height="26" as="geometry" />
        </mxCell>
        <mxCell id="5Mf-sOE8AnQbxtJJ7-1W-265" value="- bg: PImage" style="text;strokeColor=none;fillColor=none;align=left;verticalAlign=top;spacingLeft=4;spacingRight=4;overflow=hidden;rotatable=0;points=[[0,0.5],[1,0.5]];portConstraint=eastwest;whiteSpace=wrap;html=1;" vertex="1" parent="5Mf-sOE8AnQbxtJJ7-1W-256">
          <mxGeometry y="104" width="320" height="26" as="geometry" />
        </mxCell>
        <mxCell id="5Mf-sOE8AnQbxtJJ7-1W-266" value="- sun: PImage" style="text;strokeColor=none;fillColor=none;align=left;verticalAlign=top;spacingLeft=4;spacingRight=4;overflow=hidden;rotatable=0;points=[[0,0.5],[1,0.5]];portConstraint=eastwest;whiteSpace=wrap;html=1;" vertex="1" parent="5Mf-sOE8AnQbxtJJ7-1W-256">
          <mxGeometry y="130" width="320" height="26" as="geometry" />
        </mxCell>
        <mxCell id="5Mf-sOE8AnQbxtJJ7-1W-268" value="- pick: PImage" style="text;strokeColor=none;fillColor=none;align=left;verticalAlign=top;spacingLeft=4;spacingRight=4;overflow=hidden;rotatable=0;points=[[0,0.5],[1,0.5]];portConstraint=eastwest;whiteSpace=wrap;html=1;" vertex="1" parent="5Mf-sOE8AnQbxtJJ7-1W-256">
          <mxGeometry y="156" width="320" height="26" as="geometry" />
        </mxCell>
        <mxCell id="5Mf-sOE8AnQbxtJJ7-1W-269" value="- pausemenu: PImage" style="text;strokeColor=none;fillColor=none;align=left;verticalAlign=top;spacingLeft=4;spacingRight=4;overflow=hidden;rotatable=0;points=[[0,0.5],[1,0.5]];portConstraint=eastwest;whiteSpace=wrap;html=1;" vertex="1" parent="5Mf-sOE8AnQbxtJJ7-1W-256">
          <mxGeometry y="182" width="320" height="26" as="geometry" />
        </mxCell>
        <mxCell id="5Mf-sOE8AnQbxtJJ7-1W-270" value="- shovelImg: PImage" style="text;strokeColor=none;fillColor=none;align=left;verticalAlign=top;spacingLeft=4;spacingRight=4;overflow=hidden;rotatable=0;points=[[0,0.5],[1,0.5]];portConstraint=eastwest;whiteSpace=wrap;html=1;" vertex="1" parent="5Mf-sOE8AnQbxtJJ7-1W-256">
          <mxGeometry y="208" width="320" height="22" as="geometry" />
        </mxCell>
        <mxCell id="5Mf-sOE8AnQbxtJJ7-1W-271" value="- over: PImage&amp;nbsp;" style="text;strokeColor=none;fillColor=none;align=left;verticalAlign=top;spacingLeft=4;spacingRight=4;overflow=hidden;rotatable=0;points=[[0,0.5],[1,0.5]];portConstraint=eastwest;whiteSpace=wrap;html=1;" vertex="1" parent="5Mf-sOE8AnQbxtJJ7-1W-256">
          <mxGeometry y="230" width="320" height="26" as="geometry" />
        </mxCell>
        <mxCell id="5Mf-sOE8AnQbxtJJ7-1W-274" value="- win: PImage" style="text;strokeColor=none;fillColor=none;align=left;verticalAlign=top;spacingLeft=4;spacingRight=4;overflow=hidden;rotatable=0;points=[[0,0.5],[1,0.5]];portConstraint=eastwest;whiteSpace=wrap;html=1;" vertex="1" parent="5Mf-sOE8AnQbxtJJ7-1W-256">
          <mxGeometry y="256" width="320" height="26" as="geometry" />
        </mxCell>
        <mxCell id="5Mf-sOE8AnQbxtJJ7-1W-275" value="- lagu: String" style="text;strokeColor=none;fillColor=none;align=left;verticalAlign=top;spacingLeft=4;spacingRight=4;overflow=hidden;rotatable=0;points=[[0,0.5],[1,0.5]];portConstraint=eastwest;whiteSpace=wrap;html=1;" vertex="1" parent="5Mf-sOE8AnQbxtJJ7-1W-256">
          <mxGeometry y="282" width="320" height="26" as="geometry" />
        </mxCell>
        <mxCell id="5Mf-sOE8AnQbxtJJ7-1W-277" value="- ThemeSong: PlayMusic" style="text;strokeColor=none;fillColor=none;align=left;verticalAlign=top;spacingLeft=4;spacingRight=4;overflow=hidden;rotatable=0;points=[[0,0.5],[1,0.5]];portConstraint=eastwest;whiteSpace=wrap;html=1;" vertex="1" parent="5Mf-sOE8AnQbxtJJ7-1W-256">
          <mxGeometry y="308" width="320" height="26" as="geometry" />
        </mxCell>
        <mxCell id="5Mf-sOE8AnQbxtJJ7-1W-278" value="- time: int&amp;nbsp;" style="text;strokeColor=none;fillColor=none;align=left;verticalAlign=top;spacingLeft=4;spacingRight=4;overflow=hidden;rotatable=0;points=[[0,0.5],[1,0.5]];portConstraint=eastwest;whiteSpace=wrap;html=1;" vertex="1" parent="5Mf-sOE8AnQbxtJJ7-1W-256">
          <mxGeometry y="334" width="320" height="26" as="geometry" />
        </mxCell>
        <mxCell id="5Mf-sOE8AnQbxtJJ7-1W-279" value="- delay: int" style="text;strokeColor=none;fillColor=none;align=left;verticalAlign=top;spacingLeft=4;spacingRight=4;overflow=hidden;rotatable=0;points=[[0,0.5],[1,0.5]];portConstraint=eastwest;whiteSpace=wrap;html=1;" vertex="1" parent="5Mf-sOE8AnQbxtJJ7-1W-256">
          <mxGeometry y="360" width="320" height="26" as="geometry" />
        </mxCell>
        <mxCell id="5Mf-sOE8AnQbxtJJ7-1W-280" value="- now: int" style="text;strokeColor=none;fillColor=none;align=left;verticalAlign=top;spacingLeft=4;spacingRight=4;overflow=hidden;rotatable=0;points=[[0,0.5],[1,0.5]];portConstraint=eastwest;whiteSpace=wrap;html=1;" vertex="1" parent="5Mf-sOE8AnQbxtJJ7-1W-256">
          <mxGeometry y="386" width="320" height="26" as="geometry" />
        </mxCell>
        <mxCell id="5Mf-sOE8AnQbxtJJ7-1W-281" value="- grass: GUIButton" style="text;strokeColor=none;fillColor=none;align=left;verticalAlign=top;spacingLeft=4;spacingRight=4;overflow=hidden;rotatable=0;points=[[0,0.5],[1,0.5]];portConstraint=eastwest;whiteSpace=wrap;html=1;" vertex="1" parent="5Mf-sOE8AnQbxtJJ7-1W-256">
          <mxGeometry y="412" width="320" height="26" as="geometry" />
        </mxCell>
        <mxCell id="5Mf-sOE8AnQbxtJJ7-1W-276" value="- pool: GUIButton" style="text;strokeColor=none;fillColor=none;align=left;verticalAlign=top;spacingLeft=4;spacingRight=4;overflow=hidden;rotatable=0;points=[[0,0.5],[1,0.5]];portConstraint=eastwest;whiteSpace=wrap;html=1;" vertex="1" parent="5Mf-sOE8AnQbxtJJ7-1W-256">
          <mxGeometry y="438" width="320" height="26" as="geometry" />
        </mxCell>
        <mxCell id="5Mf-sOE8AnQbxtJJ7-1W-273" value="- playgrass: boolean&amp;nbsp;" style="text;strokeColor=none;fillColor=none;align=left;verticalAlign=top;spacingLeft=4;spacingRight=4;overflow=hidden;rotatable=0;points=[[0,0.5],[1,0.5]];portConstraint=eastwest;whiteSpace=wrap;html=1;" vertex="1" parent="5Mf-sOE8AnQbxtJJ7-1W-256">
          <mxGeometry y="464" width="320" height="26" as="geometry" />
        </mxCell>
        <mxCell id="5Mf-sOE8AnQbxtJJ7-1W-267" value="- playpool: boolean" style="text;strokeColor=none;fillColor=none;align=left;verticalAlign=top;spacingLeft=4;spacingRight=4;overflow=hidden;rotatable=0;points=[[0,0.5],[1,0.5]];portConstraint=eastwest;whiteSpace=wrap;html=1;" vertex="1" parent="5Mf-sOE8AnQbxtJJ7-1W-256">
          <mxGeometry y="490" width="320" height="26" as="geometry" />
        </mxCell>
        <mxCell id="5Mf-sOE8AnQbxtJJ7-1W-282" value="- pause: boolean" style="text;strokeColor=none;fillColor=none;align=left;verticalAlign=top;spacingLeft=4;spacingRight=4;overflow=hidden;rotatable=0;points=[[0,0.5],[1,0.5]];portConstraint=eastwest;whiteSpace=wrap;html=1;" vertex="1" parent="5Mf-sOE8AnQbxtJJ7-1W-256">
          <mxGeometry y="516" width="320" height="26" as="geometry" />
        </mxCell>
        <mxCell id="5Mf-sOE8AnQbxtJJ7-1W-283" value="- gameover: boolean" style="text;strokeColor=none;fillColor=none;align=left;verticalAlign=top;spacingLeft=4;spacingRight=4;overflow=hidden;rotatable=0;points=[[0,0.5],[1,0.5]];portConstraint=eastwest;whiteSpace=wrap;html=1;" vertex="1" parent="5Mf-sOE8AnQbxtJJ7-1W-256">
          <mxGeometry y="542" width="320" height="26" as="geometry" />
        </mxCell>
        <mxCell id="5Mf-sOE8AnQbxtJJ7-1W-284" value="- victory: boolean" style="text;strokeColor=none;fillColor=none;align=left;verticalAlign=top;spacingLeft=4;spacingRight=4;overflow=hidden;rotatable=0;points=[[0,0.5],[1,0.5]];portConstraint=eastwest;whiteSpace=wrap;html=1;" vertex="1" parent="5Mf-sOE8AnQbxtJJ7-1W-256">
          <mxGeometry y="568" width="320" height="26" as="geometry" />
        </mxCell>
        <mxCell id="5Mf-sOE8AnQbxtJJ7-1W-264" value="- choosePlant: ArrayList&amp;lt;Plant&amp;gt;" style="text;strokeColor=none;fillColor=none;align=left;verticalAlign=top;spacingLeft=4;spacingRight=4;overflow=hidden;rotatable=0;points=[[0,0.5],[1,0.5]];portConstraint=eastwest;whiteSpace=wrap;html=1;" vertex="1" parent="5Mf-sOE8AnQbxtJJ7-1W-256">
          <mxGeometry y="594" width="320" height="26" as="geometry" />
        </mxCell>
        <mxCell id="5Mf-sOE8AnQbxtJJ7-1W-290" value="- plants: ArrayList&amp;lt;Plant&amp;gt;" style="text;strokeColor=none;fillColor=none;align=left;verticalAlign=top;spacingLeft=4;spacingRight=4;overflow=hidden;rotatable=0;points=[[0,0.5],[1,0.5]];portConstraint=eastwest;whiteSpace=wrap;html=1;" vertex="1" parent="5Mf-sOE8AnQbxtJJ7-1W-256">
          <mxGeometry y="620" width="320" height="26" as="geometry" />
        </mxCell>
        <mxCell id="5Mf-sOE8AnQbxtJJ7-1W-291" value="- combinePlant: ArrayList&amp;lt;Plant&amp;gt;" style="text;strokeColor=none;fillColor=none;align=left;verticalAlign=top;spacingLeft=4;spacingRight=4;overflow=hidden;rotatable=0;points=[[0,0.5],[1,0.5]];portConstraint=eastwest;whiteSpace=wrap;html=1;" vertex="1" parent="5Mf-sOE8AnQbxtJJ7-1W-256">
          <mxGeometry y="646" width="320" height="26" as="geometry" />
        </mxCell>
        <mxCell id="5Mf-sOE8AnQbxtJJ7-1W-292" value="- plantpicker: ArrayList&amp;lt;Plant&amp;gt;" style="text;strokeColor=none;fillColor=none;align=left;verticalAlign=top;spacingLeft=4;spacingRight=4;overflow=hidden;rotatable=0;points=[[0,0.5],[1,0.5]];portConstraint=eastwest;whiteSpace=wrap;html=1;" vertex="1" parent="5Mf-sOE8AnQbxtJJ7-1W-256">
          <mxGeometry y="672" width="320" height="26" as="geometry" />
        </mxCell>
        <mxCell id="5Mf-sOE8AnQbxtJJ7-1W-285" value="- zombies: ArrayList&amp;lt;Zombie&amp;gt;" style="text;strokeColor=none;fillColor=none;align=left;verticalAlign=top;spacingLeft=4;spacingRight=4;overflow=hidden;rotatable=0;points=[[0,0.5],[1,0.5]];portConstraint=eastwest;whiteSpace=wrap;html=1;" vertex="1" parent="5Mf-sOE8AnQbxtJJ7-1W-256">
          <mxGeometry y="698" width="320" height="26" as="geometry" />
        </mxCell>
        <mxCell id="5Mf-sOE8AnQbxtJJ7-1W-286" value="- zombieActive: ArrayList&amp;lt;Zombie&amp;gt;[]" style="text;strokeColor=none;fillColor=none;align=left;verticalAlign=top;spacingLeft=4;spacingRight=4;overflow=hidden;rotatable=0;points=[[0,0.5],[1,0.5]];portConstraint=eastwest;whiteSpace=wrap;html=1;" vertex="1" parent="5Mf-sOE8AnQbxtJJ7-1W-256">
          <mxGeometry y="724" width="320" height="26" as="geometry" />
        </mxCell>
        <mxCell id="5Mf-sOE8AnQbxtJJ7-1W-293" value="- bullets: ArrayList&amp;lt;Bullet&amp;gt;" style="text;strokeColor=none;fillColor=none;align=left;verticalAlign=top;spacingLeft=4;spacingRight=4;overflow=hidden;rotatable=0;points=[[0,0.5],[1,0.5]];portConstraint=eastwest;whiteSpace=wrap;html=1;" vertex="1" parent="5Mf-sOE8AnQbxtJJ7-1W-256">
          <mxGeometry y="750" width="320" height="26" as="geometry" />
        </mxCell>
        <mxCell id="5Mf-sOE8AnQbxtJJ7-1W-294" value="- bulletActive: ArrayList&amp;lt;Bullet&amp;gt;[]" style="text;strokeColor=none;fillColor=none;align=left;verticalAlign=top;spacingLeft=4;spacingRight=4;overflow=hidden;rotatable=0;points=[[0,0.5],[1,0.5]];portConstraint=eastwest;whiteSpace=wrap;html=1;" vertex="1" parent="5Mf-sOE8AnQbxtJJ7-1W-256">
          <mxGeometry y="776" width="320" height="26" as="geometry" />
        </mxCell>
        <mxCell id="5Mf-sOE8AnQbxtJJ7-1W-295" value="- tiles: Tile[][]" style="text;strokeColor=none;fillColor=none;align=left;verticalAlign=top;spacingLeft=4;spacingRight=4;overflow=hidden;rotatable=0;points=[[0,0.5],[1,0.5]];portConstraint=eastwest;whiteSpace=wrap;html=1;" vertex="1" parent="5Mf-sOE8AnQbxtJJ7-1W-256">
          <mxGeometry y="802" width="320" height="26" as="geometry" />
        </mxCell>
        <mxCell id="5Mf-sOE8AnQbxtJJ7-1W-296" value="- lawnMower: LawnMower[]" style="text;strokeColor=none;fillColor=none;align=left;verticalAlign=top;spacingLeft=4;spacingRight=4;overflow=hidden;rotatable=0;points=[[0,0.5],[1,0.5]];portConstraint=eastwest;whiteSpace=wrap;html=1;" vertex="1" parent="5Mf-sOE8AnQbxtJJ7-1W-256">
          <mxGeometry y="828" width="320" height="26" as="geometry" />
        </mxCell>
        <mxCell id="5Mf-sOE8AnQbxtJJ7-1W-297" value="- suns: Plant" style="text;strokeColor=none;fillColor=none;align=left;verticalAlign=top;spacingLeft=4;spacingRight=4;overflow=hidden;rotatable=0;points=[[0,0.5],[1,0.5]];portConstraint=eastwest;whiteSpace=wrap;html=1;" vertex="1" parent="5Mf-sOE8AnQbxtJJ7-1W-256">
          <mxGeometry y="854" width="320" height="26" as="geometry" />
        </mxCell>
        <mxCell id="5Mf-sOE8AnQbxtJJ7-1W-287" value="- shovel: GUIButton" style="text;strokeColor=none;fillColor=none;align=left;verticalAlign=top;spacingLeft=4;spacingRight=4;overflow=hidden;rotatable=0;points=[[0,0.5],[1,0.5]];portConstraint=eastwest;whiteSpace=wrap;html=1;" vertex="1" parent="5Mf-sOE8AnQbxtJJ7-1W-256">
          <mxGeometry y="880" width="320" height="26" as="geometry" />
        </mxCell>
        <mxCell id="5Mf-sOE8AnQbxtJJ7-1W-298" value="- plantFood: GUIButton" style="text;strokeColor=none;fillColor=none;align=left;verticalAlign=top;spacingLeft=4;spacingRight=4;overflow=hidden;rotatable=0;points=[[0,0.5],[1,0.5]];portConstraint=eastwest;whiteSpace=wrap;html=1;" vertex="1" parent="5Mf-sOE8AnQbxtJJ7-1W-256">
          <mxGeometry y="906" width="320" height="26" as="geometry" />
        </mxCell>
        <mxCell id="5Mf-sOE8AnQbxtJJ7-1W-288" value="- plantFoodImg: PImage[]" style="text;strokeColor=none;fillColor=none;align=left;verticalAlign=top;spacingLeft=4;spacingRight=4;overflow=hidden;rotatable=0;points=[[0,0.5],[1,0.5]];portConstraint=eastwest;whiteSpace=wrap;html=1;" vertex="1" parent="5Mf-sOE8AnQbxtJJ7-1W-256">
          <mxGeometry y="932" width="320" height="26" as="geometry" />
        </mxCell>
        <mxCell id="5Mf-sOE8AnQbxtJJ7-1W-289" value="- shovelSelect: boolean" style="text;strokeColor=none;fillColor=none;align=left;verticalAlign=top;spacingLeft=4;spacingRight=4;overflow=hidden;rotatable=0;points=[[0,0.5],[1,0.5]];portConstraint=eastwest;whiteSpace=wrap;html=1;" vertex="1" parent="5Mf-sOE8AnQbxtJJ7-1W-256">
          <mxGeometry y="958" width="320" height="26" as="geometry" />
        </mxCell>
        <mxCell id="5Mf-sOE8AnQbxtJJ7-1W-303" value="- pickplant: boolean" style="text;strokeColor=none;fillColor=none;align=left;verticalAlign=top;spacingLeft=4;spacingRight=4;overflow=hidden;rotatable=0;points=[[0,0.5],[1,0.5]];portConstraint=eastwest;whiteSpace=wrap;html=1;" vertex="1" parent="5Mf-sOE8AnQbxtJJ7-1W-256">
          <mxGeometry y="984" width="320" height="26" as="geometry" />
        </mxCell>
        <mxCell id="5Mf-sOE8AnQbxtJJ7-1W-304" value="- plantFoodSelect: boolean" style="text;strokeColor=none;fillColor=none;align=left;verticalAlign=top;spacingLeft=4;spacingRight=4;overflow=hidden;rotatable=0;points=[[0,0.5],[1,0.5]];portConstraint=eastwest;whiteSpace=wrap;html=1;" vertex="1" parent="5Mf-sOE8AnQbxtJJ7-1W-256">
          <mxGeometry y="1010" width="320" height="26" as="geometry" />
        </mxCell>
        <mxCell id="5Mf-sOE8AnQbxtJJ7-1W-299" value="- playlevel: boolean" style="text;strokeColor=none;fillColor=none;align=left;verticalAlign=top;spacingLeft=4;spacingRight=4;overflow=hidden;rotatable=0;points=[[0,0.5],[1,0.5]];portConstraint=eastwest;whiteSpace=wrap;html=1;" vertex="1" parent="5Mf-sOE8AnQbxtJJ7-1W-256">
          <mxGeometry y="1036" width="320" height="26" as="geometry" />
        </mxCell>
        <mxCell id="5Mf-sOE8AnQbxtJJ7-1W-300" value="- cekclear: boolean" style="text;strokeColor=none;fillColor=none;align=left;verticalAlign=top;spacingLeft=4;spacingRight=4;overflow=hidden;rotatable=0;points=[[0,0.5],[1,0.5]];portConstraint=eastwest;whiteSpace=wrap;html=1;" vertex="1" parent="5Mf-sOE8AnQbxtJJ7-1W-256">
          <mxGeometry y="1062" width="320" height="26" as="geometry" />
        </mxCell>
        <mxCell id="5Mf-sOE8AnQbxtJJ7-1W-301" value="- levelselect: boolean" style="text;strokeColor=none;fillColor=none;align=left;verticalAlign=top;spacingLeft=4;spacingRight=4;overflow=hidden;rotatable=0;points=[[0,0.5],[1,0.5]];portConstraint=eastwest;whiteSpace=wrap;html=1;" vertex="1" parent="5Mf-sOE8AnQbxtJJ7-1W-256">
          <mxGeometry y="1088" width="320" height="26" as="geometry" />
        </mxCell>
        <mxCell id="5Mf-sOE8AnQbxtJJ7-1W-302" value="- ceklevelselect: boolean" style="text;strokeColor=none;fillColor=none;align=left;verticalAlign=top;spacingLeft=4;spacingRight=4;overflow=hidden;rotatable=0;points=[[0,0.5],[1,0.5]];portConstraint=eastwest;whiteSpace=wrap;html=1;" vertex="1" parent="5Mf-sOE8AnQbxtJJ7-1W-256">
          <mxGeometry y="1114" width="320" height="26" as="geometry" />
        </mxCell>
        <mxCell id="5Mf-sOE8AnQbxtJJ7-1W-305" value="- playerSun: int" style="text;strokeColor=none;fillColor=none;align=left;verticalAlign=top;spacingLeft=4;spacingRight=4;overflow=hidden;rotatable=0;points=[[0,0.5],[1,0.5]];portConstraint=eastwest;whiteSpace=wrap;html=1;" vertex="1" parent="5Mf-sOE8AnQbxtJJ7-1W-256">
          <mxGeometry y="1140" width="320" height="26" as="geometry" />
        </mxCell>
        <mxCell id="5Mf-sOE8AnQbxtJJ7-1W-306" value="- food: int" style="text;strokeColor=none;fillColor=none;align=left;verticalAlign=top;spacingLeft=4;spacingRight=4;overflow=hidden;rotatable=0;points=[[0,0.5],[1,0.5]];portConstraint=eastwest;whiteSpace=wrap;html=1;" vertex="1" parent="5Mf-sOE8AnQbxtJJ7-1W-256">
          <mxGeometry y="1166" width="320" height="26" as="geometry" />
        </mxCell>
        <mxCell id="5Mf-sOE8AnQbxtJJ7-1W-307" value="- level: int" style="text;strokeColor=none;fillColor=none;align=left;verticalAlign=top;spacingLeft=4;spacingRight=4;overflow=hidden;rotatable=0;points=[[0,0.5],[1,0.5]];portConstraint=eastwest;whiteSpace=wrap;html=1;" vertex="1" parent="5Mf-sOE8AnQbxtJJ7-1W-256">
          <mxGeometry y="1192" width="320" height="26" as="geometry" />
        </mxCell>
        <mxCell id="5Mf-sOE8AnQbxtJJ7-1W-309" value="- spawntime: int" style="text;strokeColor=none;fillColor=none;align=left;verticalAlign=top;spacingLeft=4;spacingRight=4;overflow=hidden;rotatable=0;points=[[0,0.5],[1,0.5]];portConstraint=eastwest;whiteSpace=wrap;html=1;" vertex="1" parent="5Mf-sOE8AnQbxtJJ7-1W-256">
          <mxGeometry y="1218" width="320" height="26" as="geometry" />
        </mxCell>
        <mxCell id="5Mf-sOE8AnQbxtJJ7-1W-310" value="- zombieget: int" style="text;strokeColor=none;fillColor=none;align=left;verticalAlign=top;spacingLeft=4;spacingRight=4;overflow=hidden;rotatable=0;points=[[0,0.5],[1,0.5]];portConstraint=eastwest;whiteSpace=wrap;html=1;" vertex="1" parent="5Mf-sOE8AnQbxtJJ7-1W-256">
          <mxGeometry y="1244" width="320" height="26" as="geometry" />
        </mxCell>
        <mxCell id="5Mf-sOE8AnQbxtJJ7-1W-308" value="- zombietotal: int" style="text;strokeColor=none;fillColor=none;align=left;verticalAlign=top;spacingLeft=4;spacingRight=4;overflow=hidden;rotatable=0;points=[[0,0.5],[1,0.5]];portConstraint=eastwest;whiteSpace=wrap;html=1;" vertex="1" parent="5Mf-sOE8AnQbxtJJ7-1W-256">
          <mxGeometry y="1270" width="320" height="26" as="geometry" />
        </mxCell>
        <mxCell id="5Mf-sOE8AnQbxtJJ7-1W-261" value="" style="line;strokeWidth=1;fillColor=none;align=left;verticalAlign=middle;spacingTop=-1;spacingLeft=3;spacingRight=3;rotatable=0;labelPosition=right;points=[];portConstraint=eastwest;strokeColor=inherit;" vertex="1" parent="5Mf-sOE8AnQbxtJJ7-1W-256">
          <mxGeometry y="1296" width="320" height="8" as="geometry" />
        </mxCell>
        <mxCell id="5Mf-sOE8AnQbxtJJ7-1W-260" value="+ settings() : void" style="text;strokeColor=none;fillColor=none;align=left;verticalAlign=top;spacingLeft=4;spacingRight=4;overflow=hidden;rotatable=0;points=[[0,0.5],[1,0.5]];portConstraint=eastwest;whiteSpace=wrap;html=1;" vertex="1" parent="5Mf-sOE8AnQbxtJJ7-1W-256">
          <mxGeometry y="1304" width="320" height="26" as="geometry" />
        </mxCell>
        <mxCell id="5Mf-sOE8AnQbxtJJ7-1W-311" value="+ setup() : void" style="text;strokeColor=none;fillColor=none;align=left;verticalAlign=top;spacingLeft=4;spacingRight=4;overflow=hidden;rotatable=0;points=[[0,0.5],[1,0.5]];portConstraint=eastwest;whiteSpace=wrap;html=1;" vertex="1" parent="5Mf-sOE8AnQbxtJJ7-1W-256">
          <mxGeometry y="1330" width="320" height="26" as="geometry" />
        </mxCell>
        <mxCell id="5Mf-sOE8AnQbxtJJ7-1W-312" value="+ loadAsset() : void" style="text;strokeColor=none;fillColor=none;align=left;verticalAlign=top;spacingLeft=4;spacingRight=4;overflow=hidden;rotatable=0;points=[[0,0.5],[1,0.5]];portConstraint=eastwest;whiteSpace=wrap;html=1;" vertex="1" parent="5Mf-sOE8AnQbxtJJ7-1W-256">
          <mxGeometry y="1356" width="320" height="26" as="geometry" />
        </mxCell>
        <mxCell id="5Mf-sOE8AnQbxtJJ7-1W-313" value="+ setupLevel() : void" style="text;strokeColor=none;fillColor=none;align=left;verticalAlign=top;spacingLeft=4;spacingRight=4;overflow=hidden;rotatable=0;points=[[0,0.5],[1,0.5]];portConstraint=eastwest;whiteSpace=wrap;html=1;" vertex="1" parent="5Mf-sOE8AnQbxtJJ7-1W-256">
          <mxGeometry y="1382" width="320" height="26" as="geometry" />
        </mxCell>
        <mxCell id="5Mf-sOE8AnQbxtJJ7-1W-314" value="+ draw() :&amp;nbsp; void" style="text;strokeColor=none;fillColor=none;align=left;verticalAlign=top;spacingLeft=4;spacingRight=4;overflow=hidden;rotatable=0;points=[[0,0.5],[1,0.5]];portConstraint=eastwest;whiteSpace=wrap;html=1;" vertex="1" parent="5Mf-sOE8AnQbxtJJ7-1W-256">
          <mxGeometry y="1408" width="320" height="26" as="geometry" />
        </mxCell>
        <mxCell id="5Mf-sOE8AnQbxtJJ7-1W-316" value="+ overRect(x : int , y : int , width : int, height : int) : boolean" style="text;strokeColor=none;fillColor=none;align=left;verticalAlign=top;spacingLeft=4;spacingRight=4;overflow=hidden;rotatable=0;points=[[0,0.5],[1,0.5]];portConstraint=eastwest;whiteSpace=wrap;html=1;" vertex="1" parent="5Mf-sOE8AnQbxtJJ7-1W-256">
          <mxGeometry y="1434" width="320" height="26" as="geometry" />
        </mxCell>
        <mxCell id="5Mf-sOE8AnQbxtJJ7-1W-315" value="+ mousePressed()" style="text;strokeColor=none;fillColor=none;align=left;verticalAlign=top;spacingLeft=4;spacingRight=4;overflow=hidden;rotatable=0;points=[[0,0.5],[1,0.5]];portConstraint=eastwest;whiteSpace=wrap;html=1;" vertex="1" parent="5Mf-sOE8AnQbxtJJ7-1W-256">
          <mxGeometry y="1460" width="320" height="26" as="geometry" />
        </mxCell>
        <mxCell id="5Mf-sOE8AnQbxtJJ7-1W-317" value="+ updateTime() : void" style="text;strokeColor=none;fillColor=none;align=left;verticalAlign=top;spacingLeft=4;spacingRight=4;overflow=hidden;rotatable=0;points=[[0,0.5],[1,0.5]];portConstraint=eastwest;whiteSpace=wrap;html=1;" vertex="1" parent="5Mf-sOE8AnQbxtJJ7-1W-256">
          <mxGeometry y="1486" width="320" height="26" as="geometry" />
        </mxCell>
        <mxCell id="5Mf-sOE8AnQbxtJJ7-1W-318" value="+ resetLevel() : void" style="text;strokeColor=none;fillColor=none;align=left;verticalAlign=top;spacingLeft=4;spacingRight=4;overflow=hidden;rotatable=0;points=[[0,0.5],[1,0.5]];portConstraint=eastwest;whiteSpace=wrap;html=1;" vertex="1" parent="5Mf-sOE8AnQbxtJJ7-1W-256">
          <mxGeometry y="1512" width="320" height="26" as="geometry" />
        </mxCell>
        <mxCell id="5Mf-sOE8AnQbxtJJ7-1W-319" value="+ cekTembak(y : int) : boolean" style="text;strokeColor=none;fillColor=none;align=left;verticalAlign=top;spacingLeft=4;spacingRight=4;overflow=hidden;rotatable=0;points=[[0,0.5],[1,0.5]];portConstraint=eastwest;whiteSpace=wrap;html=1;" vertex="1" parent="5Mf-sOE8AnQbxtJJ7-1W-256">
          <mxGeometry y="1538" width="320" height="26" as="geometry" />
        </mxCell>
        <mxCell id="5Mf-sOE8AnQbxtJJ7-1W-320" value="+ hoverMenuGame() : void" style="text;strokeColor=none;fillColor=none;align=left;verticalAlign=top;spacingLeft=4;spacingRight=4;overflow=hidden;rotatable=0;points=[[0,0.5],[1,0.5]];portConstraint=eastwest;whiteSpace=wrap;html=1;" vertex="1" parent="5Mf-sOE8AnQbxtJJ7-1W-256">
          <mxGeometry y="1564" width="320" height="26" as="geometry" />
        </mxCell>
        <mxCell id="5Mf-sOE8AnQbxtJJ7-1W-321" value="+ pickPlant() : void" style="text;strokeColor=none;fillColor=none;align=left;verticalAlign=top;spacingLeft=4;spacingRight=4;overflow=hidden;rotatable=0;points=[[0,0.5],[1,0.5]];portConstraint=eastwest;whiteSpace=wrap;html=1;" vertex="1" parent="5Mf-sOE8AnQbxtJJ7-1W-256">
          <mxGeometry y="1590" width="320" height="26" as="geometry" />
        </mxCell>
        <mxCell id="5Mf-sOE8AnQbxtJJ7-1W-322" value="+ levelSelect() : void" style="text;strokeColor=none;fillColor=none;align=left;verticalAlign=top;spacingLeft=4;spacingRight=4;overflow=hidden;rotatable=0;points=[[0,0.5],[1,0.5]];portConstraint=eastwest;whiteSpace=wrap;html=1;" vertex="1" parent="5Mf-sOE8AnQbxtJJ7-1W-256">
          <mxGeometry y="1616" width="320" height="26" as="geometry" />
        </mxCell>
        <mxCell id="5Mf-sOE8AnQbxtJJ7-1W-323" value="+ plantSeed() : void" style="text;strokeColor=none;fillColor=none;align=left;verticalAlign=top;spacingLeft=4;spacingRight=4;overflow=hidden;rotatable=0;points=[[0,0.5],[1,0.5]];portConstraint=eastwest;whiteSpace=wrap;html=1;" vertex="1" parent="5Mf-sOE8AnQbxtJJ7-1W-256">
          <mxGeometry y="1642" width="320" height="26" as="geometry" />
        </mxCell>
        <mxCell id="5Mf-sOE8AnQbxtJJ7-1W-324" value="+ drawLawnMower() : void" style="text;strokeColor=none;fillColor=none;align=left;verticalAlign=top;spacingLeft=4;spacingRight=4;overflow=hidden;rotatable=0;points=[[0,0.5],[1,0.5]];portConstraint=eastwest;whiteSpace=wrap;html=1;" vertex="1" parent="5Mf-sOE8AnQbxtJJ7-1W-256">
          <mxGeometry y="1668" width="320" height="26" as="geometry" />
        </mxCell>
        <mxCell id="5Mf-sOE8AnQbxtJJ7-1W-325" value="+ drawPlant() : void" style="text;strokeColor=none;fillColor=none;align=left;verticalAlign=top;spacingLeft=4;spacingRight=4;overflow=hidden;rotatable=0;points=[[0,0.5],[1,0.5]];portConstraint=eastwest;whiteSpace=wrap;html=1;" vertex="1" parent="5Mf-sOE8AnQbxtJJ7-1W-256">
          <mxGeometry y="1694" width="320" height="26" as="geometry" />
        </mxCell>
        <mxCell id="5Mf-sOE8AnQbxtJJ7-1W-326" value="+ drawZombie() : void" style="text;strokeColor=none;fillColor=none;align=left;verticalAlign=top;spacingLeft=4;spacingRight=4;overflow=hidden;rotatable=0;points=[[0,0.5],[1,0.5]];portConstraint=eastwest;whiteSpace=wrap;html=1;" vertex="1" parent="5Mf-sOE8AnQbxtJJ7-1W-256">
          <mxGeometry y="1720" width="320" height="26" as="geometry" />
        </mxCell>
        <mxCell id="5Mf-sOE8AnQbxtJJ7-1W-327" value="+ drawBullet() : void" style="text;strokeColor=none;fillColor=none;align=left;verticalAlign=top;spacingLeft=4;spacingRight=4;overflow=hidden;rotatable=0;points=[[0,0.5],[1,0.5]];portConstraint=eastwest;whiteSpace=wrap;html=1;" vertex="1" parent="5Mf-sOE8AnQbxtJJ7-1W-256">
          <mxGeometry y="1746" width="320" height="26" as="geometry" />
        </mxCell>
        <mxCell id="5Mf-sOE8AnQbxtJJ7-1W-328" value="+ pressMenu() : boolean" style="text;strokeColor=none;fillColor=none;align=left;verticalAlign=top;spacingLeft=4;spacingRight=4;overflow=hidden;rotatable=0;points=[[0,0.5],[1,0.5]];portConstraint=eastwest;whiteSpace=wrap;html=1;" vertex="1" parent="5Mf-sOE8AnQbxtJJ7-1W-256">
          <mxGeometry y="1772" width="320" height="26" as="geometry" />
        </mxCell>
        <mxCell id="5Mf-sOE8AnQbxtJJ7-1W-329" value="+ playLevel() : void" style="text;strokeColor=none;fillColor=none;align=left;verticalAlign=top;spacingLeft=4;spacingRight=4;overflow=hidden;rotatable=0;points=[[0,0.5],[1,0.5]];portConstraint=eastwest;whiteSpace=wrap;html=1;" vertex="1" parent="5Mf-sOE8AnQbxtJJ7-1W-256">
          <mxGeometry y="1798" width="320" height="26" as="geometry" />
        </mxCell>
        <mxCell id="5Mf-sOE8AnQbxtJJ7-1W-330" value="+ playGrass() : void" style="text;strokeColor=none;fillColor=none;align=left;verticalAlign=top;spacingLeft=4;spacingRight=4;overflow=hidden;rotatable=0;points=[[0,0.5],[1,0.5]];portConstraint=eastwest;whiteSpace=wrap;html=1;" vertex="1" parent="5Mf-sOE8AnQbxtJJ7-1W-256">
          <mxGeometry y="1824" width="320" height="26" as="geometry" />
        </mxCell>
        <mxCell id="5Mf-sOE8AnQbxtJJ7-1W-331" value="+ playPool() : void" style="text;strokeColor=none;fillColor=none;align=left;verticalAlign=top;spacingLeft=4;spacingRight=4;overflow=hidden;rotatable=0;points=[[0,0.5],[1,0.5]];portConstraint=eastwest;whiteSpace=wrap;html=1;" vertex="1" parent="5Mf-sOE8AnQbxtJJ7-1W-256">
          <mxGeometry y="1850" width="320" height="26" as="geometry" />
        </mxCell>
        <mxCell id="5Mf-sOE8AnQbxtJJ7-1W-332" value="Survival" style="swimlane;fontStyle=1;align=center;verticalAlign=top;childLayout=stackLayout;horizontal=1;startSize=26;horizontalStack=0;resizeParent=1;resizeParentMax=0;resizeLast=0;collapsible=1;marginBottom=0;whiteSpace=wrap;html=1;" vertex="1" parent="WIyWlLk6GJQsqaUBKTNV-1">
          <mxGeometry x="1654" y="80" width="320" height="1642" as="geometry" />
        </mxCell>
        <mxCell id="5Mf-sOE8AnQbxtJJ7-1W-333" value="- WIDTH: int" style="text;strokeColor=none;fillColor=none;align=left;verticalAlign=top;spacingLeft=4;spacingRight=4;overflow=hidden;rotatable=0;points=[[0,0.5],[1,0.5]];portConstraint=eastwest;whiteSpace=wrap;html=1;" vertex="1" parent="5Mf-sOE8AnQbxtJJ7-1W-332">
          <mxGeometry y="26" width="320" height="26" as="geometry" />
        </mxCell>
        <mxCell id="5Mf-sOE8AnQbxtJJ7-1W-334" value="- HEIGHT: int" style="text;strokeColor=none;fillColor=none;align=left;verticalAlign=top;spacingLeft=4;spacingRight=4;overflow=hidden;rotatable=0;points=[[0,0.5],[1,0.5]];portConstraint=eastwest;whiteSpace=wrap;html=1;" vertex="1" parent="5Mf-sOE8AnQbxtJJ7-1W-332">
          <mxGeometry y="52" width="320" height="26" as="geometry" />
        </mxCell>
        <mxCell id="5Mf-sOE8AnQbxtJJ7-1W-335" value="- FPS: int" style="text;strokeColor=none;fillColor=none;align=left;verticalAlign=top;spacingLeft=4;spacingRight=4;overflow=hidden;rotatable=0;points=[[0,0.5],[1,0.5]];portConstraint=eastwest;whiteSpace=wrap;html=1;" vertex="1" parent="5Mf-sOE8AnQbxtJJ7-1W-332">
          <mxGeometry y="78" width="320" height="26" as="geometry" />
        </mxCell>
        <mxCell id="5Mf-sOE8AnQbxtJJ7-1W-336" value="- bg: PImage" style="text;strokeColor=none;fillColor=none;align=left;verticalAlign=top;spacingLeft=4;spacingRight=4;overflow=hidden;rotatable=0;points=[[0,0.5],[1,0.5]];portConstraint=eastwest;whiteSpace=wrap;html=1;" vertex="1" parent="5Mf-sOE8AnQbxtJJ7-1W-332">
          <mxGeometry y="104" width="320" height="26" as="geometry" />
        </mxCell>
        <mxCell id="5Mf-sOE8AnQbxtJJ7-1W-337" value="- sun: PImage" style="text;strokeColor=none;fillColor=none;align=left;verticalAlign=top;spacingLeft=4;spacingRight=4;overflow=hidden;rotatable=0;points=[[0,0.5],[1,0.5]];portConstraint=eastwest;whiteSpace=wrap;html=1;" vertex="1" parent="5Mf-sOE8AnQbxtJJ7-1W-332">
          <mxGeometry y="130" width="320" height="26" as="geometry" />
        </mxCell>
        <mxCell id="5Mf-sOE8AnQbxtJJ7-1W-338" value="- pick: PImage" style="text;strokeColor=none;fillColor=none;align=left;verticalAlign=top;spacingLeft=4;spacingRight=4;overflow=hidden;rotatable=0;points=[[0,0.5],[1,0.5]];portConstraint=eastwest;whiteSpace=wrap;html=1;" vertex="1" parent="5Mf-sOE8AnQbxtJJ7-1W-332">
          <mxGeometry y="156" width="320" height="26" as="geometry" />
        </mxCell>
        <mxCell id="5Mf-sOE8AnQbxtJJ7-1W-339" value="- pausemenu: PImage" style="text;strokeColor=none;fillColor=none;align=left;verticalAlign=top;spacingLeft=4;spacingRight=4;overflow=hidden;rotatable=0;points=[[0,0.5],[1,0.5]];portConstraint=eastwest;whiteSpace=wrap;html=1;" vertex="1" parent="5Mf-sOE8AnQbxtJJ7-1W-332">
          <mxGeometry y="182" width="320" height="26" as="geometry" />
        </mxCell>
        <mxCell id="5Mf-sOE8AnQbxtJJ7-1W-340" value="- shovelImg: PImage" style="text;strokeColor=none;fillColor=none;align=left;verticalAlign=top;spacingLeft=4;spacingRight=4;overflow=hidden;rotatable=0;points=[[0,0.5],[1,0.5]];portConstraint=eastwest;whiteSpace=wrap;html=1;" vertex="1" parent="5Mf-sOE8AnQbxtJJ7-1W-332">
          <mxGeometry y="208" width="320" height="22" as="geometry" />
        </mxCell>
        <mxCell id="5Mf-sOE8AnQbxtJJ7-1W-341" value="- over: PImage&amp;nbsp;" style="text;strokeColor=none;fillColor=none;align=left;verticalAlign=top;spacingLeft=4;spacingRight=4;overflow=hidden;rotatable=0;points=[[0,0.5],[1,0.5]];portConstraint=eastwest;whiteSpace=wrap;html=1;" vertex="1" parent="5Mf-sOE8AnQbxtJJ7-1W-332">
          <mxGeometry y="230" width="320" height="26" as="geometry" />
        </mxCell>
        <mxCell id="5Mf-sOE8AnQbxtJJ7-1W-343" value="- lagu: String" style="text;strokeColor=none;fillColor=none;align=left;verticalAlign=top;spacingLeft=4;spacingRight=4;overflow=hidden;rotatable=0;points=[[0,0.5],[1,0.5]];portConstraint=eastwest;whiteSpace=wrap;html=1;" vertex="1" parent="5Mf-sOE8AnQbxtJJ7-1W-332">
          <mxGeometry y="256" width="320" height="26" as="geometry" />
        </mxCell>
        <mxCell id="5Mf-sOE8AnQbxtJJ7-1W-344" value="- ThemeSong: PlayMusic" style="text;strokeColor=none;fillColor=none;align=left;verticalAlign=top;spacingLeft=4;spacingRight=4;overflow=hidden;rotatable=0;points=[[0,0.5],[1,0.5]];portConstraint=eastwest;whiteSpace=wrap;html=1;" vertex="1" parent="5Mf-sOE8AnQbxtJJ7-1W-332">
          <mxGeometry y="282" width="320" height="26" as="geometry" />
        </mxCell>
        <mxCell id="5Mf-sOE8AnQbxtJJ7-1W-345" value="- time: int&amp;nbsp;" style="text;strokeColor=none;fillColor=none;align=left;verticalAlign=top;spacingLeft=4;spacingRight=4;overflow=hidden;rotatable=0;points=[[0,0.5],[1,0.5]];portConstraint=eastwest;whiteSpace=wrap;html=1;" vertex="1" parent="5Mf-sOE8AnQbxtJJ7-1W-332">
          <mxGeometry y="308" width="320" height="26" as="geometry" />
        </mxCell>
        <mxCell id="5Mf-sOE8AnQbxtJJ7-1W-346" value="- delay: int" style="text;strokeColor=none;fillColor=none;align=left;verticalAlign=top;spacingLeft=4;spacingRight=4;overflow=hidden;rotatable=0;points=[[0,0.5],[1,0.5]];portConstraint=eastwest;whiteSpace=wrap;html=1;" vertex="1" parent="5Mf-sOE8AnQbxtJJ7-1W-332">
          <mxGeometry y="334" width="320" height="26" as="geometry" />
        </mxCell>
        <mxCell id="5Mf-sOE8AnQbxtJJ7-1W-347" value="- now: int" style="text;strokeColor=none;fillColor=none;align=left;verticalAlign=top;spacingLeft=4;spacingRight=4;overflow=hidden;rotatable=0;points=[[0,0.5],[1,0.5]];portConstraint=eastwest;whiteSpace=wrap;html=1;" vertex="1" parent="5Mf-sOE8AnQbxtJJ7-1W-332">
          <mxGeometry y="360" width="320" height="26" as="geometry" />
        </mxCell>
        <mxCell id="5Mf-sOE8AnQbxtJJ7-1W-348" value="- grass: GUIButton" style="text;strokeColor=none;fillColor=none;align=left;verticalAlign=top;spacingLeft=4;spacingRight=4;overflow=hidden;rotatable=0;points=[[0,0.5],[1,0.5]];portConstraint=eastwest;whiteSpace=wrap;html=1;" vertex="1" parent="5Mf-sOE8AnQbxtJJ7-1W-332">
          <mxGeometry y="386" width="320" height="26" as="geometry" />
        </mxCell>
        <mxCell id="5Mf-sOE8AnQbxtJJ7-1W-349" value="- pool: GUIButton" style="text;strokeColor=none;fillColor=none;align=left;verticalAlign=top;spacingLeft=4;spacingRight=4;overflow=hidden;rotatable=0;points=[[0,0.5],[1,0.5]];portConstraint=eastwest;whiteSpace=wrap;html=1;" vertex="1" parent="5Mf-sOE8AnQbxtJJ7-1W-332">
          <mxGeometry y="412" width="320" height="26" as="geometry" />
        </mxCell>
        <mxCell id="5Mf-sOE8AnQbxtJJ7-1W-350" value="- playgrass: boolean&amp;nbsp;" style="text;strokeColor=none;fillColor=none;align=left;verticalAlign=top;spacingLeft=4;spacingRight=4;overflow=hidden;rotatable=0;points=[[0,0.5],[1,0.5]];portConstraint=eastwest;whiteSpace=wrap;html=1;" vertex="1" parent="5Mf-sOE8AnQbxtJJ7-1W-332">
          <mxGeometry y="438" width="320" height="26" as="geometry" />
        </mxCell>
        <mxCell id="5Mf-sOE8AnQbxtJJ7-1W-351" value="- playpool: boolean" style="text;strokeColor=none;fillColor=none;align=left;verticalAlign=top;spacingLeft=4;spacingRight=4;overflow=hidden;rotatable=0;points=[[0,0.5],[1,0.5]];portConstraint=eastwest;whiteSpace=wrap;html=1;" vertex="1" parent="5Mf-sOE8AnQbxtJJ7-1W-332">
          <mxGeometry y="464" width="320" height="26" as="geometry" />
        </mxCell>
        <mxCell id="5Mf-sOE8AnQbxtJJ7-1W-352" value="- pause: boolean" style="text;strokeColor=none;fillColor=none;align=left;verticalAlign=top;spacingLeft=4;spacingRight=4;overflow=hidden;rotatable=0;points=[[0,0.5],[1,0.5]];portConstraint=eastwest;whiteSpace=wrap;html=1;" vertex="1" parent="5Mf-sOE8AnQbxtJJ7-1W-332">
          <mxGeometry y="490" width="320" height="26" as="geometry" />
        </mxCell>
        <mxCell id="5Mf-sOE8AnQbxtJJ7-1W-353" value="- gameover: boolean" style="text;strokeColor=none;fillColor=none;align=left;verticalAlign=top;spacingLeft=4;spacingRight=4;overflow=hidden;rotatable=0;points=[[0,0.5],[1,0.5]];portConstraint=eastwest;whiteSpace=wrap;html=1;" vertex="1" parent="5Mf-sOE8AnQbxtJJ7-1W-332">
          <mxGeometry y="516" width="320" height="26" as="geometry" />
        </mxCell>
        <mxCell id="5Mf-sOE8AnQbxtJJ7-1W-355" value="- choosePlant: ArrayList&amp;lt;Plant&amp;gt;" style="text;strokeColor=none;fillColor=none;align=left;verticalAlign=top;spacingLeft=4;spacingRight=4;overflow=hidden;rotatable=0;points=[[0,0.5],[1,0.5]];portConstraint=eastwest;whiteSpace=wrap;html=1;" vertex="1" parent="5Mf-sOE8AnQbxtJJ7-1W-332">
          <mxGeometry y="542" width="320" height="26" as="geometry" />
        </mxCell>
        <mxCell id="5Mf-sOE8AnQbxtJJ7-1W-356" value="- plants: ArrayList&amp;lt;Plant&amp;gt;" style="text;strokeColor=none;fillColor=none;align=left;verticalAlign=top;spacingLeft=4;spacingRight=4;overflow=hidden;rotatable=0;points=[[0,0.5],[1,0.5]];portConstraint=eastwest;whiteSpace=wrap;html=1;" vertex="1" parent="5Mf-sOE8AnQbxtJJ7-1W-332">
          <mxGeometry y="568" width="320" height="26" as="geometry" />
        </mxCell>
        <mxCell id="5Mf-sOE8AnQbxtJJ7-1W-357" value="- combinePlant: ArrayList&amp;lt;Plant&amp;gt;" style="text;strokeColor=none;fillColor=none;align=left;verticalAlign=top;spacingLeft=4;spacingRight=4;overflow=hidden;rotatable=0;points=[[0,0.5],[1,0.5]];portConstraint=eastwest;whiteSpace=wrap;html=1;" vertex="1" parent="5Mf-sOE8AnQbxtJJ7-1W-332">
          <mxGeometry y="594" width="320" height="26" as="geometry" />
        </mxCell>
        <mxCell id="5Mf-sOE8AnQbxtJJ7-1W-358" value="- plantpicker: ArrayList&amp;lt;Plant&amp;gt;" style="text;strokeColor=none;fillColor=none;align=left;verticalAlign=top;spacingLeft=4;spacingRight=4;overflow=hidden;rotatable=0;points=[[0,0.5],[1,0.5]];portConstraint=eastwest;whiteSpace=wrap;html=1;" vertex="1" parent="5Mf-sOE8AnQbxtJJ7-1W-332">
          <mxGeometry y="620" width="320" height="26" as="geometry" />
        </mxCell>
        <mxCell id="5Mf-sOE8AnQbxtJJ7-1W-359" value="- zombies: ArrayList&amp;lt;Zombie&amp;gt;" style="text;strokeColor=none;fillColor=none;align=left;verticalAlign=top;spacingLeft=4;spacingRight=4;overflow=hidden;rotatable=0;points=[[0,0.5],[1,0.5]];portConstraint=eastwest;whiteSpace=wrap;html=1;" vertex="1" parent="5Mf-sOE8AnQbxtJJ7-1W-332">
          <mxGeometry y="646" width="320" height="26" as="geometry" />
        </mxCell>
        <mxCell id="5Mf-sOE8AnQbxtJJ7-1W-360" value="- zombieActive: ArrayList&amp;lt;Zombie&amp;gt;[]" style="text;strokeColor=none;fillColor=none;align=left;verticalAlign=top;spacingLeft=4;spacingRight=4;overflow=hidden;rotatable=0;points=[[0,0.5],[1,0.5]];portConstraint=eastwest;whiteSpace=wrap;html=1;" vertex="1" parent="5Mf-sOE8AnQbxtJJ7-1W-332">
          <mxGeometry y="672" width="320" height="26" as="geometry" />
        </mxCell>
        <mxCell id="5Mf-sOE8AnQbxtJJ7-1W-361" value="- bullets: ArrayList&amp;lt;Bullet&amp;gt;" style="text;strokeColor=none;fillColor=none;align=left;verticalAlign=top;spacingLeft=4;spacingRight=4;overflow=hidden;rotatable=0;points=[[0,0.5],[1,0.5]];portConstraint=eastwest;whiteSpace=wrap;html=1;" vertex="1" parent="5Mf-sOE8AnQbxtJJ7-1W-332">
          <mxGeometry y="698" width="320" height="26" as="geometry" />
        </mxCell>
        <mxCell id="5Mf-sOE8AnQbxtJJ7-1W-362" value="- bulletActive: ArrayList&amp;lt;Bullet&amp;gt;[]" style="text;strokeColor=none;fillColor=none;align=left;verticalAlign=top;spacingLeft=4;spacingRight=4;overflow=hidden;rotatable=0;points=[[0,0.5],[1,0.5]];portConstraint=eastwest;whiteSpace=wrap;html=1;" vertex="1" parent="5Mf-sOE8AnQbxtJJ7-1W-332">
          <mxGeometry y="724" width="320" height="26" as="geometry" />
        </mxCell>
        <mxCell id="5Mf-sOE8AnQbxtJJ7-1W-363" value="- tiles: Tile[][]" style="text;strokeColor=none;fillColor=none;align=left;verticalAlign=top;spacingLeft=4;spacingRight=4;overflow=hidden;rotatable=0;points=[[0,0.5],[1,0.5]];portConstraint=eastwest;whiteSpace=wrap;html=1;" vertex="1" parent="5Mf-sOE8AnQbxtJJ7-1W-332">
          <mxGeometry y="750" width="320" height="26" as="geometry" />
        </mxCell>
        <mxCell id="5Mf-sOE8AnQbxtJJ7-1W-364" value="- lawnMower: LawnMower[]" style="text;strokeColor=none;fillColor=none;align=left;verticalAlign=top;spacingLeft=4;spacingRight=4;overflow=hidden;rotatable=0;points=[[0,0.5],[1,0.5]];portConstraint=eastwest;whiteSpace=wrap;html=1;" vertex="1" parent="5Mf-sOE8AnQbxtJJ7-1W-332">
          <mxGeometry y="776" width="320" height="26" as="geometry" />
        </mxCell>
        <mxCell id="5Mf-sOE8AnQbxtJJ7-1W-405" value="- select: Plant" style="text;strokeColor=none;fillColor=none;align=left;verticalAlign=top;spacingLeft=4;spacingRight=4;overflow=hidden;rotatable=0;points=[[0,0.5],[1,0.5]];portConstraint=eastwest;whiteSpace=wrap;html=1;" vertex="1" parent="5Mf-sOE8AnQbxtJJ7-1W-332">
          <mxGeometry y="802" width="320" height="26" as="geometry" />
        </mxCell>
        <mxCell id="5Mf-sOE8AnQbxtJJ7-1W-365" value="- suns: Plant" style="text;strokeColor=none;fillColor=none;align=left;verticalAlign=top;spacingLeft=4;spacingRight=4;overflow=hidden;rotatable=0;points=[[0,0.5],[1,0.5]];portConstraint=eastwest;whiteSpace=wrap;html=1;" vertex="1" parent="5Mf-sOE8AnQbxtJJ7-1W-332">
          <mxGeometry y="828" width="320" height="26" as="geometry" />
        </mxCell>
        <mxCell id="5Mf-sOE8AnQbxtJJ7-1W-366" value="- shovel: GUIButton" style="text;strokeColor=none;fillColor=none;align=left;verticalAlign=top;spacingLeft=4;spacingRight=4;overflow=hidden;rotatable=0;points=[[0,0.5],[1,0.5]];portConstraint=eastwest;whiteSpace=wrap;html=1;" vertex="1" parent="5Mf-sOE8AnQbxtJJ7-1W-332">
          <mxGeometry y="854" width="320" height="26" as="geometry" />
        </mxCell>
        <mxCell id="5Mf-sOE8AnQbxtJJ7-1W-367" value="- plantFood: GUIButton" style="text;strokeColor=none;fillColor=none;align=left;verticalAlign=top;spacingLeft=4;spacingRight=4;overflow=hidden;rotatable=0;points=[[0,0.5],[1,0.5]];portConstraint=eastwest;whiteSpace=wrap;html=1;" vertex="1" parent="5Mf-sOE8AnQbxtJJ7-1W-332">
          <mxGeometry y="880" width="320" height="26" as="geometry" />
        </mxCell>
        <mxCell id="5Mf-sOE8AnQbxtJJ7-1W-368" value="- plantFoodImg: PImage[]" style="text;strokeColor=none;fillColor=none;align=left;verticalAlign=top;spacingLeft=4;spacingRight=4;overflow=hidden;rotatable=0;points=[[0,0.5],[1,0.5]];portConstraint=eastwest;whiteSpace=wrap;html=1;" vertex="1" parent="5Mf-sOE8AnQbxtJJ7-1W-332">
          <mxGeometry y="906" width="320" height="26" as="geometry" />
        </mxCell>
        <mxCell id="5Mf-sOE8AnQbxtJJ7-1W-369" value="- shovelSelect: boolean" style="text;strokeColor=none;fillColor=none;align=left;verticalAlign=top;spacingLeft=4;spacingRight=4;overflow=hidden;rotatable=0;points=[[0,0.5],[1,0.5]];portConstraint=eastwest;whiteSpace=wrap;html=1;" vertex="1" parent="5Mf-sOE8AnQbxtJJ7-1W-332">
          <mxGeometry y="932" width="320" height="26" as="geometry" />
        </mxCell>
        <mxCell id="5Mf-sOE8AnQbxtJJ7-1W-370" value="- pickplant: boolean" style="text;strokeColor=none;fillColor=none;align=left;verticalAlign=top;spacingLeft=4;spacingRight=4;overflow=hidden;rotatable=0;points=[[0,0.5],[1,0.5]];portConstraint=eastwest;whiteSpace=wrap;html=1;" vertex="1" parent="5Mf-sOE8AnQbxtJJ7-1W-332">
          <mxGeometry y="958" width="320" height="26" as="geometry" />
        </mxCell>
        <mxCell id="5Mf-sOE8AnQbxtJJ7-1W-371" value="- plantFoodSelect: boolean" style="text;strokeColor=none;fillColor=none;align=left;verticalAlign=top;spacingLeft=4;spacingRight=4;overflow=hidden;rotatable=0;points=[[0,0.5],[1,0.5]];portConstraint=eastwest;whiteSpace=wrap;html=1;" vertex="1" parent="5Mf-sOE8AnQbxtJJ7-1W-332">
          <mxGeometry y="984" width="320" height="26" as="geometry" />
        </mxCell>
        <mxCell id="5Mf-sOE8AnQbxtJJ7-1W-376" value="- playerSun: int" style="text;strokeColor=none;fillColor=none;align=left;verticalAlign=top;spacingLeft=4;spacingRight=4;overflow=hidden;rotatable=0;points=[[0,0.5],[1,0.5]];portConstraint=eastwest;whiteSpace=wrap;html=1;" vertex="1" parent="5Mf-sOE8AnQbxtJJ7-1W-332">
          <mxGeometry y="1010" width="320" height="26" as="geometry" />
        </mxCell>
        <mxCell id="5Mf-sOE8AnQbxtJJ7-1W-377" value="- food: int" style="text;strokeColor=none;fillColor=none;align=left;verticalAlign=top;spacingLeft=4;spacingRight=4;overflow=hidden;rotatable=0;points=[[0,0.5],[1,0.5]];portConstraint=eastwest;whiteSpace=wrap;html=1;" vertex="1" parent="5Mf-sOE8AnQbxtJJ7-1W-332">
          <mxGeometry y="1036" width="320" height="26" as="geometry" />
        </mxCell>
        <mxCell id="5Mf-sOE8AnQbxtJJ7-1W-379" value="- spawntime: int" style="text;strokeColor=none;fillColor=none;align=left;verticalAlign=top;spacingLeft=4;spacingRight=4;overflow=hidden;rotatable=0;points=[[0,0.5],[1,0.5]];portConstraint=eastwest;whiteSpace=wrap;html=1;" vertex="1" parent="5Mf-sOE8AnQbxtJJ7-1W-332">
          <mxGeometry y="1062" width="320" height="26" as="geometry" />
        </mxCell>
        <mxCell id="5Mf-sOE8AnQbxtJJ7-1W-380" value="- zombieget: int" style="text;strokeColor=none;fillColor=none;align=left;verticalAlign=top;spacingLeft=4;spacingRight=4;overflow=hidden;rotatable=0;points=[[0,0.5],[1,0.5]];portConstraint=eastwest;whiteSpace=wrap;html=1;" vertex="1" parent="5Mf-sOE8AnQbxtJJ7-1W-332">
          <mxGeometry y="1088" width="320" height="26" as="geometry" />
        </mxCell>
        <mxCell id="5Mf-sOE8AnQbxtJJ7-1W-381" value="- ambil : int" style="text;strokeColor=none;fillColor=none;align=left;verticalAlign=top;spacingLeft=4;spacingRight=4;overflow=hidden;rotatable=0;points=[[0,0.5],[1,0.5]];portConstraint=eastwest;whiteSpace=wrap;html=1;" vertex="1" parent="5Mf-sOE8AnQbxtJJ7-1W-332">
          <mxGeometry y="1114" width="320" height="26" as="geometry" />
        </mxCell>
        <mxCell id="5Mf-sOE8AnQbxtJJ7-1W-382" value="" style="line;strokeWidth=1;fillColor=none;align=left;verticalAlign=middle;spacingTop=-1;spacingLeft=3;spacingRight=3;rotatable=0;labelPosition=right;points=[];portConstraint=eastwest;strokeColor=inherit;" vertex="1" parent="5Mf-sOE8AnQbxtJJ7-1W-332">
          <mxGeometry y="1140" width="320" height="8" as="geometry" />
        </mxCell>
        <mxCell id="5Mf-sOE8AnQbxtJJ7-1W-383" value="+ settings() : void" style="text;strokeColor=none;fillColor=none;align=left;verticalAlign=top;spacingLeft=4;spacingRight=4;overflow=hidden;rotatable=0;points=[[0,0.5],[1,0.5]];portConstraint=eastwest;whiteSpace=wrap;html=1;" vertex="1" parent="5Mf-sOE8AnQbxtJJ7-1W-332">
          <mxGeometry y="1148" width="320" height="26" as="geometry" />
        </mxCell>
        <mxCell id="5Mf-sOE8AnQbxtJJ7-1W-384" value="+ setup() : void" style="text;strokeColor=none;fillColor=none;align=left;verticalAlign=top;spacingLeft=4;spacingRight=4;overflow=hidden;rotatable=0;points=[[0,0.5],[1,0.5]];portConstraint=eastwest;whiteSpace=wrap;html=1;" vertex="1" parent="5Mf-sOE8AnQbxtJJ7-1W-332">
          <mxGeometry y="1174" width="320" height="26" as="geometry" />
        </mxCell>
        <mxCell id="5Mf-sOE8AnQbxtJJ7-1W-385" value="+ loadAsset() : void" style="text;strokeColor=none;fillColor=none;align=left;verticalAlign=top;spacingLeft=4;spacingRight=4;overflow=hidden;rotatable=0;points=[[0,0.5],[1,0.5]];portConstraint=eastwest;whiteSpace=wrap;html=1;" vertex="1" parent="5Mf-sOE8AnQbxtJJ7-1W-332">
          <mxGeometry y="1200" width="320" height="26" as="geometry" />
        </mxCell>
        <mxCell id="5Mf-sOE8AnQbxtJJ7-1W-386" value="+ setupGrass() : void" style="text;strokeColor=none;fillColor=none;align=left;verticalAlign=top;spacingLeft=4;spacingRight=4;overflow=hidden;rotatable=0;points=[[0,0.5],[1,0.5]];portConstraint=eastwest;whiteSpace=wrap;html=1;" vertex="1" parent="5Mf-sOE8AnQbxtJJ7-1W-332">
          <mxGeometry y="1226" width="320" height="26" as="geometry" />
        </mxCell>
        <mxCell id="5Mf-sOE8AnQbxtJJ7-1W-406" value="+ setupPool() : void" style="text;strokeColor=none;fillColor=none;align=left;verticalAlign=top;spacingLeft=4;spacingRight=4;overflow=hidden;rotatable=0;points=[[0,0.5],[1,0.5]];portConstraint=eastwest;whiteSpace=wrap;html=1;" vertex="1" parent="5Mf-sOE8AnQbxtJJ7-1W-332">
          <mxGeometry y="1252" width="320" height="26" as="geometry" />
        </mxCell>
        <mxCell id="5Mf-sOE8AnQbxtJJ7-1W-387" value="+ draw() :&amp;nbsp; void" style="text;strokeColor=none;fillColor=none;align=left;verticalAlign=top;spacingLeft=4;spacingRight=4;overflow=hidden;rotatable=0;points=[[0,0.5],[1,0.5]];portConstraint=eastwest;whiteSpace=wrap;html=1;" vertex="1" parent="5Mf-sOE8AnQbxtJJ7-1W-332">
          <mxGeometry y="1278" width="320" height="26" as="geometry" />
        </mxCell>
        <mxCell id="5Mf-sOE8AnQbxtJJ7-1W-388" value="+ overRect(x : int , y : int , width : int, height : int) : boolean" style="text;strokeColor=none;fillColor=none;align=left;verticalAlign=top;spacingLeft=4;spacingRight=4;overflow=hidden;rotatable=0;points=[[0,0.5],[1,0.5]];portConstraint=eastwest;whiteSpace=wrap;html=1;" vertex="1" parent="5Mf-sOE8AnQbxtJJ7-1W-332">
          <mxGeometry y="1304" width="320" height="26" as="geometry" />
        </mxCell>
        <mxCell id="5Mf-sOE8AnQbxtJJ7-1W-389" value="+ mousePressed()" style="text;strokeColor=none;fillColor=none;align=left;verticalAlign=top;spacingLeft=4;spacingRight=4;overflow=hidden;rotatable=0;points=[[0,0.5],[1,0.5]];portConstraint=eastwest;whiteSpace=wrap;html=1;" vertex="1" parent="5Mf-sOE8AnQbxtJJ7-1W-332">
          <mxGeometry y="1330" width="320" height="26" as="geometry" />
        </mxCell>
        <mxCell id="5Mf-sOE8AnQbxtJJ7-1W-390" value="+ updateTime() : void" style="text;strokeColor=none;fillColor=none;align=left;verticalAlign=top;spacingLeft=4;spacingRight=4;overflow=hidden;rotatable=0;points=[[0,0.5],[1,0.5]];portConstraint=eastwest;whiteSpace=wrap;html=1;" vertex="1" parent="5Mf-sOE8AnQbxtJJ7-1W-332">
          <mxGeometry y="1356" width="320" height="26" as="geometry" />
        </mxCell>
        <mxCell id="5Mf-sOE8AnQbxtJJ7-1W-392" value="+ cekTembak(y : int) : boolean" style="text;strokeColor=none;fillColor=none;align=left;verticalAlign=top;spacingLeft=4;spacingRight=4;overflow=hidden;rotatable=0;points=[[0,0.5],[1,0.5]];portConstraint=eastwest;whiteSpace=wrap;html=1;" vertex="1" parent="5Mf-sOE8AnQbxtJJ7-1W-332">
          <mxGeometry y="1382" width="320" height="26" as="geometry" />
        </mxCell>
        <mxCell id="5Mf-sOE8AnQbxtJJ7-1W-393" value="+ hoverMenuGame() : void" style="text;strokeColor=none;fillColor=none;align=left;verticalAlign=top;spacingLeft=4;spacingRight=4;overflow=hidden;rotatable=0;points=[[0,0.5],[1,0.5]];portConstraint=eastwest;whiteSpace=wrap;html=1;" vertex="1" parent="5Mf-sOE8AnQbxtJJ7-1W-332">
          <mxGeometry y="1408" width="320" height="26" as="geometry" />
        </mxCell>
        <mxCell id="5Mf-sOE8AnQbxtJJ7-1W-396" value="+ plantSeed() : void" style="text;strokeColor=none;fillColor=none;align=left;verticalAlign=top;spacingLeft=4;spacingRight=4;overflow=hidden;rotatable=0;points=[[0,0.5],[1,0.5]];portConstraint=eastwest;whiteSpace=wrap;html=1;" vertex="1" parent="5Mf-sOE8AnQbxtJJ7-1W-332">
          <mxGeometry y="1434" width="320" height="26" as="geometry" />
        </mxCell>
        <mxCell id="5Mf-sOE8AnQbxtJJ7-1W-397" value="+ drawLawnMower() : void" style="text;strokeColor=none;fillColor=none;align=left;verticalAlign=top;spacingLeft=4;spacingRight=4;overflow=hidden;rotatable=0;points=[[0,0.5],[1,0.5]];portConstraint=eastwest;whiteSpace=wrap;html=1;" vertex="1" parent="5Mf-sOE8AnQbxtJJ7-1W-332">
          <mxGeometry y="1460" width="320" height="26" as="geometry" />
        </mxCell>
        <mxCell id="5Mf-sOE8AnQbxtJJ7-1W-398" value="+ drawPlant() : void" style="text;strokeColor=none;fillColor=none;align=left;verticalAlign=top;spacingLeft=4;spacingRight=4;overflow=hidden;rotatable=0;points=[[0,0.5],[1,0.5]];portConstraint=eastwest;whiteSpace=wrap;html=1;" vertex="1" parent="5Mf-sOE8AnQbxtJJ7-1W-332">
          <mxGeometry y="1486" width="320" height="26" as="geometry" />
        </mxCell>
        <mxCell id="5Mf-sOE8AnQbxtJJ7-1W-399" value="+ drawZombie() : void" style="text;strokeColor=none;fillColor=none;align=left;verticalAlign=top;spacingLeft=4;spacingRight=4;overflow=hidden;rotatable=0;points=[[0,0.5],[1,0.5]];portConstraint=eastwest;whiteSpace=wrap;html=1;" vertex="1" parent="5Mf-sOE8AnQbxtJJ7-1W-332">
          <mxGeometry y="1512" width="320" height="26" as="geometry" />
        </mxCell>
        <mxCell id="5Mf-sOE8AnQbxtJJ7-1W-400" value="+ drawBullet() : void" style="text;strokeColor=none;fillColor=none;align=left;verticalAlign=top;spacingLeft=4;spacingRight=4;overflow=hidden;rotatable=0;points=[[0,0.5],[1,0.5]];portConstraint=eastwest;whiteSpace=wrap;html=1;" vertex="1" parent="5Mf-sOE8AnQbxtJJ7-1W-332">
          <mxGeometry y="1538" width="320" height="26" as="geometry" />
        </mxCell>
        <mxCell id="5Mf-sOE8AnQbxtJJ7-1W-401" value="+ pressMenu() : boolean" style="text;strokeColor=none;fillColor=none;align=left;verticalAlign=top;spacingLeft=4;spacingRight=4;overflow=hidden;rotatable=0;points=[[0,0.5],[1,0.5]];portConstraint=eastwest;whiteSpace=wrap;html=1;" vertex="1" parent="5Mf-sOE8AnQbxtJJ7-1W-332">
          <mxGeometry y="1564" width="320" height="26" as="geometry" />
        </mxCell>
        <mxCell id="5Mf-sOE8AnQbxtJJ7-1W-403" value="+ playGrass() : void" style="text;strokeColor=none;fillColor=none;align=left;verticalAlign=top;spacingLeft=4;spacingRight=4;overflow=hidden;rotatable=0;points=[[0,0.5],[1,0.5]];portConstraint=eastwest;whiteSpace=wrap;html=1;" vertex="1" parent="5Mf-sOE8AnQbxtJJ7-1W-332">
          <mxGeometry y="1590" width="320" height="26" as="geometry" />
        </mxCell>
        <mxCell id="5Mf-sOE8AnQbxtJJ7-1W-404" value="+ playPool() : void" style="text;strokeColor=none;fillColor=none;align=left;verticalAlign=top;spacingLeft=4;spacingRight=4;overflow=hidden;rotatable=0;points=[[0,0.5],[1,0.5]];portConstraint=eastwest;whiteSpace=wrap;html=1;" vertex="1" parent="5Mf-sOE8AnQbxtJJ7-1W-332">
          <mxGeometry y="1616" width="320" height="26" as="geometry" />
        </mxCell>
        <mxCell id="5Mf-sOE8AnQbxtJJ7-1W-407" value="PlayMusic" style="swimlane;fontStyle=1;align=center;verticalAlign=top;childLayout=stackLayout;horizontal=1;startSize=26;horizontalStack=0;resizeParent=1;resizeParentMax=0;resizeLast=0;collapsible=1;marginBottom=0;whiteSpace=wrap;html=1;" vertex="1" parent="WIyWlLk6GJQsqaUBKTNV-1">
          <mxGeometry x="-290" y="230" width="160" height="190" as="geometry" />
        </mxCell>
        <mxCell id="5Mf-sOE8AnQbxtJJ7-1W-408" value="- filepath: String" style="text;strokeColor=none;fillColor=none;align=left;verticalAlign=top;spacingLeft=4;spacingRight=4;overflow=hidden;rotatable=0;points=[[0,0.5],[1,0.5]];portConstraint=eastwest;whiteSpace=wrap;html=1;" vertex="1" parent="5Mf-sOE8AnQbxtJJ7-1W-407">
          <mxGeometry y="26" width="160" height="26" as="geometry" />
        </mxCell>
        <mxCell id="5Mf-sOE8AnQbxtJJ7-1W-415" value="- clip: Clip" style="text;strokeColor=none;fillColor=none;align=left;verticalAlign=top;spacingLeft=4;spacingRight=4;overflow=hidden;rotatable=0;points=[[0,0.5],[1,0.5]];portConstraint=eastwest;whiteSpace=wrap;html=1;" vertex="1" parent="5Mf-sOE8AnQbxtJJ7-1W-407">
          <mxGeometry y="52" width="160" height="26" as="geometry" />
        </mxCell>
        <mxCell id="5Mf-sOE8AnQbxtJJ7-1W-418" value="- clipTimePosition: long" style="text;strokeColor=none;fillColor=none;align=left;verticalAlign=top;spacingLeft=4;spacingRight=4;overflow=hidden;rotatable=0;points=[[0,0.5],[1,0.5]];portConstraint=eastwest;whiteSpace=wrap;html=1;" vertex="1" parent="5Mf-sOE8AnQbxtJJ7-1W-407">
          <mxGeometry y="78" width="160" height="26" as="geometry" />
        </mxCell>
        <mxCell id="5Mf-sOE8AnQbxtJJ7-1W-409" value="" style="line;strokeWidth=1;fillColor=none;align=left;verticalAlign=middle;spacingTop=-1;spacingLeft=3;spacingRight=3;rotatable=0;labelPosition=right;points=[];portConstraint=eastwest;strokeColor=inherit;" vertex="1" parent="5Mf-sOE8AnQbxtJJ7-1W-407">
          <mxGeometry y="104" width="160" height="8" as="geometry" />
        </mxCell>
        <mxCell id="5Mf-sOE8AnQbxtJJ7-1W-422" value="+ stop()" style="text;strokeColor=none;fillColor=none;align=left;verticalAlign=top;spacingLeft=4;spacingRight=4;overflow=hidden;rotatable=0;points=[[0,0.5],[1,0.5]];portConstraint=eastwest;whiteSpace=wrap;html=1;" vertex="1" parent="5Mf-sOE8AnQbxtJJ7-1W-407">
          <mxGeometry y="112" width="160" height="26" as="geometry" />
        </mxCell>
        <mxCell id="5Mf-sOE8AnQbxtJJ7-1W-423" value="+ pause()" style="text;strokeColor=none;fillColor=none;align=left;verticalAlign=top;spacingLeft=4;spacingRight=4;overflow=hidden;rotatable=0;points=[[0,0.5],[1,0.5]];portConstraint=eastwest;whiteSpace=wrap;html=1;" vertex="1" parent="5Mf-sOE8AnQbxtJJ7-1W-407">
          <mxGeometry y="138" width="160" height="26" as="geometry" />
        </mxCell>
        <mxCell id="5Mf-sOE8AnQbxtJJ7-1W-424" value="+ resume()" style="text;strokeColor=none;fillColor=none;align=left;verticalAlign=top;spacingLeft=4;spacingRight=4;overflow=hidden;rotatable=0;points=[[0,0.5],[1,0.5]];portConstraint=eastwest;whiteSpace=wrap;html=1;" vertex="1" parent="5Mf-sOE8AnQbxtJJ7-1W-407">
          <mxGeometry y="164" width="160" height="26" as="geometry" />
        </mxCell>
        <mxCell id="5Mf-sOE8AnQbxtJJ7-1W-425" value="GUIButton" style="swimlane;fontStyle=1;align=center;verticalAlign=top;childLayout=stackLayout;horizontal=1;startSize=26;horizontalStack=0;resizeParent=1;resizeParentMax=0;resizeLast=0;collapsible=1;marginBottom=0;whiteSpace=wrap;html=1;" vertex="1" parent="WIyWlLk6GJQsqaUBKTNV-1">
          <mxGeometry x="-290" y="480" width="160" height="376" as="geometry" />
        </mxCell>
        <mxCell id="5Mf-sOE8AnQbxtJJ7-1W-426" value="- x: int" style="text;strokeColor=none;fillColor=none;align=left;verticalAlign=top;spacingLeft=4;spacingRight=4;overflow=hidden;rotatable=0;points=[[0,0.5],[1,0.5]];portConstraint=eastwest;whiteSpace=wrap;html=1;" vertex="1" parent="5Mf-sOE8AnQbxtJJ7-1W-425">
          <mxGeometry y="26" width="160" height="26" as="geometry" />
        </mxCell>
        <mxCell id="5Mf-sOE8AnQbxtJJ7-1W-429" value="- y: int" style="text;strokeColor=none;fillColor=none;align=left;verticalAlign=top;spacingLeft=4;spacingRight=4;overflow=hidden;rotatable=0;points=[[0,0.5],[1,0.5]];portConstraint=eastwest;whiteSpace=wrap;html=1;" vertex="1" parent="5Mf-sOE8AnQbxtJJ7-1W-425">
          <mxGeometry y="52" width="160" height="26" as="geometry" />
        </mxCell>
        <mxCell id="5Mf-sOE8AnQbxtJJ7-1W-430" value="- width: int" style="text;strokeColor=none;fillColor=none;align=left;verticalAlign=top;spacingLeft=4;spacingRight=4;overflow=hidden;rotatable=0;points=[[0,0.5],[1,0.5]];portConstraint=eastwest;whiteSpace=wrap;html=1;" vertex="1" parent="5Mf-sOE8AnQbxtJJ7-1W-425">
          <mxGeometry y="78" width="160" height="26" as="geometry" />
        </mxCell>
        <mxCell id="5Mf-sOE8AnQbxtJJ7-1W-431" value="- height: int" style="text;strokeColor=none;fillColor=none;align=left;verticalAlign=top;spacingLeft=4;spacingRight=4;overflow=hidden;rotatable=0;points=[[0,0.5],[1,0.5]];portConstraint=eastwest;whiteSpace=wrap;html=1;" vertex="1" parent="5Mf-sOE8AnQbxtJJ7-1W-425">
          <mxGeometry y="104" width="160" height="26" as="geometry" />
        </mxCell>
        <mxCell id="5Mf-sOE8AnQbxtJJ7-1W-432" value="- bgcolor: Color" style="text;strokeColor=none;fillColor=none;align=left;verticalAlign=top;spacingLeft=4;spacingRight=4;overflow=hidden;rotatable=0;points=[[0,0.5],[1,0.5]];portConstraint=eastwest;whiteSpace=wrap;html=1;" vertex="1" parent="5Mf-sOE8AnQbxtJJ7-1W-425">
          <mxGeometry y="130" width="160" height="26" as="geometry" />
        </mxCell>
        <mxCell id="5Mf-sOE8AnQbxtJJ7-1W-427" value="" style="line;strokeWidth=1;fillColor=none;align=left;verticalAlign=middle;spacingTop=-1;spacingLeft=3;spacingRight=3;rotatable=0;labelPosition=right;points=[];portConstraint=eastwest;strokeColor=inherit;" vertex="1" parent="5Mf-sOE8AnQbxtJJ7-1W-425">
          <mxGeometry y="156" width="160" height="8" as="geometry" />
        </mxCell>
        <mxCell id="5Mf-sOE8AnQbxtJJ7-1W-428" value="+ getX(): int&amp;nbsp;" style="text;strokeColor=none;fillColor=none;align=left;verticalAlign=top;spacingLeft=4;spacingRight=4;overflow=hidden;rotatable=0;points=[[0,0.5],[1,0.5]];portConstraint=eastwest;whiteSpace=wrap;html=1;" vertex="1" parent="5Mf-sOE8AnQbxtJJ7-1W-425">
          <mxGeometry y="164" width="160" height="26" as="geometry" />
        </mxCell>
        <mxCell id="5Mf-sOE8AnQbxtJJ7-1W-441" value="+ setX(x: int)" style="text;strokeColor=none;fillColor=none;align=left;verticalAlign=top;spacingLeft=4;spacingRight=4;overflow=hidden;rotatable=0;points=[[0,0.5],[1,0.5]];portConstraint=eastwest;whiteSpace=wrap;html=1;" vertex="1" parent="5Mf-sOE8AnQbxtJJ7-1W-425">
          <mxGeometry y="190" width="160" height="26" as="geometry" />
        </mxCell>
        <mxCell id="5Mf-sOE8AnQbxtJJ7-1W-442" value="+ getY(): int" style="text;strokeColor=none;fillColor=none;align=left;verticalAlign=top;spacingLeft=4;spacingRight=4;overflow=hidden;rotatable=0;points=[[0,0.5],[1,0.5]];portConstraint=eastwest;whiteSpace=wrap;html=1;" vertex="1" parent="5Mf-sOE8AnQbxtJJ7-1W-425">
          <mxGeometry y="216" width="160" height="26" as="geometry" />
        </mxCell>
        <mxCell id="5Mf-sOE8AnQbxtJJ7-1W-443" value="+ setY(y: int)" style="text;strokeColor=none;fillColor=none;align=left;verticalAlign=top;spacingLeft=4;spacingRight=4;overflow=hidden;rotatable=0;points=[[0,0.5],[1,0.5]];portConstraint=eastwest;whiteSpace=wrap;html=1;" vertex="1" parent="5Mf-sOE8AnQbxtJJ7-1W-425">
          <mxGeometry y="242" width="160" height="26" as="geometry" />
        </mxCell>
        <mxCell id="5Mf-sOE8AnQbxtJJ7-1W-444" value="+ getWidth(): int" style="text;strokeColor=none;fillColor=none;align=left;verticalAlign=top;spacingLeft=4;spacingRight=4;overflow=hidden;rotatable=0;points=[[0,0.5],[1,0.5]];portConstraint=eastwest;whiteSpace=wrap;html=1;" vertex="1" parent="5Mf-sOE8AnQbxtJJ7-1W-425">
          <mxGeometry y="268" width="160" height="26" as="geometry" />
        </mxCell>
        <mxCell id="5Mf-sOE8AnQbxtJJ7-1W-445" value="+ setWidth(width: int)" style="text;strokeColor=none;fillColor=none;align=left;verticalAlign=top;spacingLeft=4;spacingRight=4;overflow=hidden;rotatable=0;points=[[0,0.5],[1,0.5]];portConstraint=eastwest;whiteSpace=wrap;html=1;" vertex="1" parent="5Mf-sOE8AnQbxtJJ7-1W-425">
          <mxGeometry y="294" width="160" height="26" as="geometry" />
        </mxCell>
        <mxCell id="5Mf-sOE8AnQbxtJJ7-1W-446" value="+ getHeight(): int" style="text;strokeColor=none;fillColor=none;align=left;verticalAlign=top;spacingLeft=4;spacingRight=4;overflow=hidden;rotatable=0;points=[[0,0.5],[1,0.5]];portConstraint=eastwest;whiteSpace=wrap;html=1;" vertex="1" parent="5Mf-sOE8AnQbxtJJ7-1W-425">
          <mxGeometry y="320" width="160" height="30" as="geometry" />
        </mxCell>
        <mxCell id="5Mf-sOE8AnQbxtJJ7-1W-447" value="+ setHeight(height: int)" style="text;strokeColor=none;fillColor=none;align=left;verticalAlign=top;spacingLeft=4;spacingRight=4;overflow=hidden;rotatable=0;points=[[0,0.5],[1,0.5]];portConstraint=eastwest;whiteSpace=wrap;html=1;" vertex="1" parent="5Mf-sOE8AnQbxtJJ7-1W-425">
          <mxGeometry y="350" width="160" height="26" as="geometry" />
        </mxCell>
        <mxCell id="5Mf-sOE8AnQbxtJJ7-1W-453" value="LawnMower" style="swimlane;fontStyle=1;align=center;verticalAlign=top;childLayout=stackLayout;horizontal=1;startSize=26;horizontalStack=0;resizeParent=1;resizeParentMax=0;resizeLast=0;collapsible=1;marginBottom=0;whiteSpace=wrap;html=1;" vertex="1" parent="WIyWlLk6GJQsqaUBKTNV-1">
          <mxGeometry x="164" y="230" width="250" height="502" as="geometry" />
        </mxCell>
        <mxCell id="5Mf-sOE8AnQbxtJJ7-1W-454" value="- x: int" style="text;strokeColor=none;fillColor=none;align=left;verticalAlign=top;spacingLeft=4;spacingRight=4;overflow=hidden;rotatable=0;points=[[0,0.5],[1,0.5]];portConstraint=eastwest;whiteSpace=wrap;html=1;" vertex="1" parent="5Mf-sOE8AnQbxtJJ7-1W-453">
          <mxGeometry y="26" width="250" height="26" as="geometry" />
        </mxCell>
        <mxCell id="5Mf-sOE8AnQbxtJJ7-1W-455" value="- y: int" style="text;strokeColor=none;fillColor=none;align=left;verticalAlign=top;spacingLeft=4;spacingRight=4;overflow=hidden;rotatable=0;points=[[0,0.5],[1,0.5]];portConstraint=eastwest;whiteSpace=wrap;html=1;" vertex="1" parent="5Mf-sOE8AnQbxtJJ7-1W-453">
          <mxGeometry y="52" width="250" height="26" as="geometry" />
        </mxCell>
        <mxCell id="5Mf-sOE8AnQbxtJJ7-1W-456" value="- width: int" style="text;strokeColor=none;fillColor=none;align=left;verticalAlign=top;spacingLeft=4;spacingRight=4;overflow=hidden;rotatable=0;points=[[0,0.5],[1,0.5]];portConstraint=eastwest;whiteSpace=wrap;html=1;" vertex="1" parent="5Mf-sOE8AnQbxtJJ7-1W-453">
          <mxGeometry y="78" width="250" height="26" as="geometry" />
        </mxCell>
        <mxCell id="5Mf-sOE8AnQbxtJJ7-1W-457" value="- height: int" style="text;strokeColor=none;fillColor=none;align=left;verticalAlign=top;spacingLeft=4;spacingRight=4;overflow=hidden;rotatable=0;points=[[0,0.5],[1,0.5]];portConstraint=eastwest;whiteSpace=wrap;html=1;" vertex="1" parent="5Mf-sOE8AnQbxtJJ7-1W-453">
          <mxGeometry y="104" width="250" height="26" as="geometry" />
        </mxCell>
        <mxCell id="5Mf-sOE8AnQbxtJJ7-1W-458" value="- idleSize: int" style="text;strokeColor=none;fillColor=none;align=left;verticalAlign=top;spacingLeft=4;spacingRight=4;overflow=hidden;rotatable=0;points=[[0,0.5],[1,0.5]];portConstraint=eastwest;whiteSpace=wrap;html=1;" vertex="1" parent="5Mf-sOE8AnQbxtJJ7-1W-453">
          <mxGeometry y="130" width="250" height="26" as="geometry" />
        </mxCell>
        <mxCell id="5Mf-sOE8AnQbxtJJ7-1W-468" value="- ctr: int" style="text;strokeColor=none;fillColor=none;align=left;verticalAlign=top;spacingLeft=4;spacingRight=4;overflow=hidden;rotatable=0;points=[[0,0.5],[1,0.5]];portConstraint=eastwest;whiteSpace=wrap;html=1;" vertex="1" parent="5Mf-sOE8AnQbxtJJ7-1W-453">
          <mxGeometry y="156" width="250" height="26" as="geometry" />
        </mxCell>
        <mxCell id="5Mf-sOE8AnQbxtJJ7-1W-469" value="- awal: int" style="text;strokeColor=none;fillColor=none;align=left;verticalAlign=top;spacingLeft=4;spacingRight=4;overflow=hidden;rotatable=0;points=[[0,0.5],[1,0.5]];portConstraint=eastwest;whiteSpace=wrap;html=1;" vertex="1" parent="5Mf-sOE8AnQbxtJJ7-1W-453">
          <mxGeometry y="182" width="250" height="26" as="geometry" />
        </mxCell>
        <mxCell id="5Mf-sOE8AnQbxtJJ7-1W-470" value="- idle: PImage[]" style="text;strokeColor=none;fillColor=none;align=left;verticalAlign=top;spacingLeft=4;spacingRight=4;overflow=hidden;rotatable=0;points=[[0,0.5],[1,0.5]];portConstraint=eastwest;whiteSpace=wrap;html=1;" vertex="1" parent="5Mf-sOE8AnQbxtJJ7-1W-453">
          <mxGeometry y="208" width="250" height="26" as="geometry" />
        </mxCell>
        <mxCell id="5Mf-sOE8AnQbxtJJ7-1W-459" value="" style="line;strokeWidth=1;fillColor=none;align=left;verticalAlign=middle;spacingTop=-1;spacingLeft=3;spacingRight=3;rotatable=0;labelPosition=right;points=[];portConstraint=eastwest;strokeColor=inherit;" vertex="1" parent="5Mf-sOE8AnQbxtJJ7-1W-453">
          <mxGeometry y="234" width="250" height="8" as="geometry" />
        </mxCell>
        <mxCell id="5Mf-sOE8AnQbxtJJ7-1W-460" value="+ getX(): int&amp;nbsp;" style="text;strokeColor=none;fillColor=none;align=left;verticalAlign=top;spacingLeft=4;spacingRight=4;overflow=hidden;rotatable=0;points=[[0,0.5],[1,0.5]];portConstraint=eastwest;whiteSpace=wrap;html=1;" vertex="1" parent="5Mf-sOE8AnQbxtJJ7-1W-453">
          <mxGeometry y="242" width="250" height="26" as="geometry" />
        </mxCell>
        <mxCell id="5Mf-sOE8AnQbxtJJ7-1W-461" value="+ setX(x: int)" style="text;strokeColor=none;fillColor=none;align=left;verticalAlign=top;spacingLeft=4;spacingRight=4;overflow=hidden;rotatable=0;points=[[0,0.5],[1,0.5]];portConstraint=eastwest;whiteSpace=wrap;html=1;" vertex="1" parent="5Mf-sOE8AnQbxtJJ7-1W-453">
          <mxGeometry y="268" width="250" height="26" as="geometry" />
        </mxCell>
        <mxCell id="5Mf-sOE8AnQbxtJJ7-1W-462" value="+ getY(): int" style="text;strokeColor=none;fillColor=none;align=left;verticalAlign=top;spacingLeft=4;spacingRight=4;overflow=hidden;rotatable=0;points=[[0,0.5],[1,0.5]];portConstraint=eastwest;whiteSpace=wrap;html=1;" vertex="1" parent="5Mf-sOE8AnQbxtJJ7-1W-453">
          <mxGeometry y="294" width="250" height="26" as="geometry" />
        </mxCell>
        <mxCell id="5Mf-sOE8AnQbxtJJ7-1W-463" value="+ setY(y: int)" style="text;strokeColor=none;fillColor=none;align=left;verticalAlign=top;spacingLeft=4;spacingRight=4;overflow=hidden;rotatable=0;points=[[0,0.5],[1,0.5]];portConstraint=eastwest;whiteSpace=wrap;html=1;" vertex="1" parent="5Mf-sOE8AnQbxtJJ7-1W-453">
          <mxGeometry y="320" width="250" height="26" as="geometry" />
        </mxCell>
        <mxCell id="5Mf-sOE8AnQbxtJJ7-1W-471" value="+ getCtr(): int" style="text;strokeColor=none;fillColor=none;align=left;verticalAlign=top;spacingLeft=4;spacingRight=4;overflow=hidden;rotatable=0;points=[[0,0.5],[1,0.5]];portConstraint=eastwest;whiteSpace=wrap;html=1;" vertex="1" parent="5Mf-sOE8AnQbxtJJ7-1W-453">
          <mxGeometry y="346" width="250" height="26" as="geometry" />
        </mxCell>
        <mxCell id="5Mf-sOE8AnQbxtJJ7-1W-472" value="+ setCtr(ctr: int)" style="text;strokeColor=none;fillColor=none;align=left;verticalAlign=top;spacingLeft=4;spacingRight=4;overflow=hidden;rotatable=0;points=[[0,0.5],[1,0.5]];portConstraint=eastwest;whiteSpace=wrap;html=1;" vertex="1" parent="5Mf-sOE8AnQbxtJJ7-1W-453">
          <mxGeometry y="372" width="250" height="26" as="geometry" />
        </mxCell>
        <mxCell id="5Mf-sOE8AnQbxtJJ7-1W-473" value="+ setY(y: int)" style="text;strokeColor=none;fillColor=none;align=left;verticalAlign=top;spacingLeft=4;spacingRight=4;overflow=hidden;rotatable=0;points=[[0,0.5],[1,0.5]];portConstraint=eastwest;whiteSpace=wrap;html=1;" vertex="1" parent="5Mf-sOE8AnQbxtJJ7-1W-453">
          <mxGeometry y="398" width="250" height="26" as="geometry" />
        </mxCell>
        <mxCell id="5Mf-sOE8AnQbxtJJ7-1W-474" value="+ drawIdle(app: PApplet)&amp;nbsp; &amp;nbsp; &amp;nbsp; &amp;nbsp;" style="text;strokeColor=none;fillColor=none;align=left;verticalAlign=top;spacingLeft=4;spacingRight=4;overflow=hidden;rotatable=0;points=[[0,0.5],[1,0.5]];portConstraint=eastwest;whiteSpace=wrap;html=1;" vertex="1" parent="5Mf-sOE8AnQbxtJJ7-1W-453">
          <mxGeometry y="424" width="250" height="26" as="geometry" />
        </mxCell>
        <mxCell id="5Mf-sOE8AnQbxtJJ7-1W-475" value="+ drawPoolCleaner(app: PApplet)" style="text;strokeColor=none;fillColor=none;align=left;verticalAlign=top;spacingLeft=4;spacingRight=4;overflow=hidden;rotatable=0;points=[[0,0.5],[1,0.5]];portConstraint=eastwest;whiteSpace=wrap;html=1;" vertex="1" parent="5Mf-sOE8AnQbxtJJ7-1W-453">
          <mxGeometry y="450" width="250" height="26" as="geometry" />
        </mxCell>
        <mxCell id="5Mf-sOE8AnQbxtJJ7-1W-476" value="&lt;div&gt;+ lindes(zombieActive:&lt;span style=&quot;background-color: initial;&quot;&gt;&amp;nbsp;ArrayList&amp;lt;Zombie&amp;gt;)&amp;nbsp;&lt;/span&gt;&lt;/div&gt;" style="text;strokeColor=none;fillColor=none;align=left;verticalAlign=top;spacingLeft=4;spacingRight=4;overflow=hidden;rotatable=0;points=[[0,0.5],[1,0.5]];portConstraint=eastwest;whiteSpace=wrap;html=1;" vertex="1" parent="5Mf-sOE8AnQbxtJJ7-1W-453">
          <mxGeometry y="476" width="250" height="26" as="geometry" />
        </mxCell>
        <mxCell id="5Mf-sOE8AnQbxtJJ7-1W-477" value="Tile" style="swimlane;fontStyle=1;align=center;verticalAlign=top;childLayout=stackLayout;horizontal=1;startSize=26;horizontalStack=0;resizeParent=1;resizeParentMax=0;resizeLast=0;collapsible=1;marginBottom=0;whiteSpace=wrap;html=1;" vertex="1" parent="WIyWlLk6GJQsqaUBKTNV-1">
          <mxGeometry x="470" y="230" width="200" height="398" as="geometry" />
        </mxCell>
        <mxCell id="5Mf-sOE8AnQbxtJJ7-1W-478" value="- tile: GUIButton" style="text;strokeColor=none;fillColor=none;align=left;verticalAlign=top;spacingLeft=4;spacingRight=4;overflow=hidden;rotatable=0;points=[[0,0.5],[1,0.5]];portConstraint=eastwest;whiteSpace=wrap;html=1;" vertex="1" parent="5Mf-sOE8AnQbxtJJ7-1W-477">
          <mxGeometry y="26" width="200" height="26" as="geometry" />
        </mxCell>
        <mxCell id="5Mf-sOE8AnQbxtJJ7-1W-481" value="- plant: ArrayList&amp;lt;Plant&amp;gt;" style="text;strokeColor=none;fillColor=none;align=left;verticalAlign=top;spacingLeft=4;spacingRight=4;overflow=hidden;rotatable=0;points=[[0,0.5],[1,0.5]];portConstraint=eastwest;whiteSpace=wrap;html=1;" vertex="1" parent="5Mf-sOE8AnQbxtJJ7-1W-477">
          <mxGeometry y="52" width="200" height="26" as="geometry" />
        </mxCell>
        <mxCell id="5Mf-sOE8AnQbxtJJ7-1W-482" value="- isWater: boolean" style="text;strokeColor=none;fillColor=none;align=left;verticalAlign=top;spacingLeft=4;spacingRight=4;overflow=hidden;rotatable=0;points=[[0,0.5],[1,0.5]];portConstraint=eastwest;whiteSpace=wrap;html=1;" vertex="1" parent="5Mf-sOE8AnQbxtJJ7-1W-477">
          <mxGeometry y="78" width="200" height="26" as="geometry" />
        </mxCell>
        <mxCell id="5Mf-sOE8AnQbxtJJ7-1W-483" value="- plantable: boolean" style="text;strokeColor=none;fillColor=none;align=left;verticalAlign=top;spacingLeft=4;spacingRight=4;overflow=hidden;rotatable=0;points=[[0,0.5],[1,0.5]];portConstraint=eastwest;whiteSpace=wrap;html=1;" vertex="1" parent="5Mf-sOE8AnQbxtJJ7-1W-477">
          <mxGeometry y="104" width="200" height="26" as="geometry" />
        </mxCell>
        <mxCell id="5Mf-sOE8AnQbxtJJ7-1W-479" value="" style="line;strokeWidth=1;fillColor=none;align=left;verticalAlign=middle;spacingTop=-1;spacingLeft=3;spacingRight=3;rotatable=0;labelPosition=right;points=[];portConstraint=eastwest;strokeColor=inherit;" vertex="1" parent="5Mf-sOE8AnQbxtJJ7-1W-477">
          <mxGeometry y="130" width="200" height="8" as="geometry" />
        </mxCell>
        <mxCell id="5Mf-sOE8AnQbxtJJ7-1W-480" value="+ getTile(): GUIButton" style="text;strokeColor=none;fillColor=none;align=left;verticalAlign=top;spacingLeft=4;spacingRight=4;overflow=hidden;rotatable=0;points=[[0,0.5],[1,0.5]];portConstraint=eastwest;whiteSpace=wrap;html=1;" vertex="1" parent="5Mf-sOE8AnQbxtJJ7-1W-477">
          <mxGeometry y="138" width="200" height="26" as="geometry" />
        </mxCell>
        <mxCell id="5Mf-sOE8AnQbxtJJ7-1W-484" value="+ hasPlant(): boolean" style="text;strokeColor=none;fillColor=none;align=left;verticalAlign=top;spacingLeft=4;spacingRight=4;overflow=hidden;rotatable=0;points=[[0,0.5],[1,0.5]];portConstraint=eastwest;whiteSpace=wrap;html=1;" vertex="1" parent="5Mf-sOE8AnQbxtJJ7-1W-477">
          <mxGeometry y="164" width="200" height="26" as="geometry" />
        </mxCell>
        <mxCell id="5Mf-sOE8AnQbxtJJ7-1W-485" value="+ getPlant(): Plant" style="text;strokeColor=none;fillColor=none;align=left;verticalAlign=top;spacingLeft=4;spacingRight=4;overflow=hidden;rotatable=0;points=[[0,0.5],[1,0.5]];portConstraint=eastwest;whiteSpace=wrap;html=1;" vertex="1" parent="5Mf-sOE8AnQbxtJJ7-1W-477">
          <mxGeometry y="190" width="200" height="26" as="geometry" />
        </mxCell>
        <mxCell id="5Mf-sOE8AnQbxtJJ7-1W-486" value="+ getAllPlants(): ArrayList&amp;lt;Plant&amp;gt;" style="text;strokeColor=none;fillColor=none;align=left;verticalAlign=top;spacingLeft=4;spacingRight=4;overflow=hidden;rotatable=0;points=[[0,0.5],[1,0.5]];portConstraint=eastwest;whiteSpace=wrap;html=1;" vertex="1" parent="5Mf-sOE8AnQbxtJJ7-1W-477">
          <mxGeometry y="216" width="200" height="26" as="geometry" />
        </mxCell>
        <mxCell id="5Mf-sOE8AnQbxtJJ7-1W-487" value="+ setPlant(plant: Plant)" style="text;strokeColor=none;fillColor=none;align=left;verticalAlign=top;spacingLeft=4;spacingRight=4;overflow=hidden;rotatable=0;points=[[0,0.5],[1,0.5]];portConstraint=eastwest;whiteSpace=wrap;html=1;" vertex="1" parent="5Mf-sOE8AnQbxtJJ7-1W-477">
          <mxGeometry y="242" width="200" height="26" as="geometry" />
        </mxCell>
        <mxCell id="5Mf-sOE8AnQbxtJJ7-1W-488" value="+ addPlant(plant: Plant)" style="text;strokeColor=none;fillColor=none;align=left;verticalAlign=top;spacingLeft=4;spacingRight=4;overflow=hidden;rotatable=0;points=[[0,0.5],[1,0.5]];portConstraint=eastwest;whiteSpace=wrap;html=1;" vertex="1" parent="5Mf-sOE8AnQbxtJJ7-1W-477">
          <mxGeometry y="268" width="200" height="26" as="geometry" />
        </mxCell>
        <mxCell id="5Mf-sOE8AnQbxtJJ7-1W-489" value="+ isWater(): boolean" style="text;strokeColor=none;fillColor=none;align=left;verticalAlign=top;spacingLeft=4;spacingRight=4;overflow=hidden;rotatable=0;points=[[0,0.5],[1,0.5]];portConstraint=eastwest;whiteSpace=wrap;html=1;" vertex="1" parent="5Mf-sOE8AnQbxtJJ7-1W-477">
          <mxGeometry y="294" width="200" height="26" as="geometry" />
        </mxCell>
        <mxCell id="5Mf-sOE8AnQbxtJJ7-1W-490" value="+ setIsWater(isWater: boolean)" style="text;strokeColor=none;fillColor=none;align=left;verticalAlign=top;spacingLeft=4;spacingRight=4;overflow=hidden;rotatable=0;points=[[0,0.5],[1,0.5]];portConstraint=eastwest;whiteSpace=wrap;html=1;" vertex="1" parent="5Mf-sOE8AnQbxtJJ7-1W-477">
          <mxGeometry y="320" width="200" height="26" as="geometry" />
        </mxCell>
        <mxCell id="5Mf-sOE8AnQbxtJJ7-1W-491" value="+ isPlantable(): boolean" style="text;strokeColor=none;fillColor=none;align=left;verticalAlign=top;spacingLeft=4;spacingRight=4;overflow=hidden;rotatable=0;points=[[0,0.5],[1,0.5]];portConstraint=eastwest;whiteSpace=wrap;html=1;" vertex="1" parent="5Mf-sOE8AnQbxtJJ7-1W-477">
          <mxGeometry y="346" width="200" height="26" as="geometry" />
        </mxCell>
        <mxCell id="5Mf-sOE8AnQbxtJJ7-1W-492" value="+ setPlantable(plantable: boolean)" style="text;strokeColor=none;fillColor=none;align=left;verticalAlign=top;spacingLeft=4;spacingRight=4;overflow=hidden;rotatable=0;points=[[0,0.5],[1,0.5]];portConstraint=eastwest;whiteSpace=wrap;html=1;" vertex="1" parent="5Mf-sOE8AnQbxtJJ7-1W-477">
          <mxGeometry y="372" width="200" height="26" as="geometry" />
        </mxCell>
        <mxCell id="5Mf-sOE8AnQbxtJJ7-1W-496" value="PeVeZet" style="swimlane;fontStyle=1;align=center;verticalAlign=top;childLayout=stackLayout;horizontal=1;startSize=26;horizontalStack=0;resizeParent=1;resizeParentMax=0;resizeLast=0;collapsible=1;marginBottom=0;whiteSpace=wrap;html=1;" vertex="1" parent="WIyWlLk6GJQsqaUBKTNV-1">
          <mxGeometry x="724" y="230" width="320" height="502" as="geometry" />
        </mxCell>
        <mxCell id="5Mf-sOE8AnQbxtJJ7-1W-497" value="- WIDTH: int" style="text;strokeColor=none;fillColor=none;align=left;verticalAlign=top;spacingLeft=4;spacingRight=4;overflow=hidden;rotatable=0;points=[[0,0.5],[1,0.5]];portConstraint=eastwest;whiteSpace=wrap;html=1;" vertex="1" parent="5Mf-sOE8AnQbxtJJ7-1W-496">
          <mxGeometry y="26" width="320" height="26" as="geometry" />
        </mxCell>
        <mxCell id="5Mf-sOE8AnQbxtJJ7-1W-498" value="- HEIGHT: int" style="text;strokeColor=none;fillColor=none;align=left;verticalAlign=top;spacingLeft=4;spacingRight=4;overflow=hidden;rotatable=0;points=[[0,0.5],[1,0.5]];portConstraint=eastwest;whiteSpace=wrap;html=1;" vertex="1" parent="5Mf-sOE8AnQbxtJJ7-1W-496">
          <mxGeometry y="52" width="320" height="26" as="geometry" />
        </mxCell>
        <mxCell id="5Mf-sOE8AnQbxtJJ7-1W-499" value="- FPS: int" style="text;strokeColor=none;fillColor=none;align=left;verticalAlign=top;spacingLeft=4;spacingRight=4;overflow=hidden;rotatable=0;points=[[0,0.5],[1,0.5]];portConstraint=eastwest;whiteSpace=wrap;html=1;" vertex="1" parent="5Mf-sOE8AnQbxtJJ7-1W-496">
          <mxGeometry y="78" width="320" height="26" as="geometry" />
        </mxCell>
        <mxCell id="5Mf-sOE8AnQbxtJJ7-1W-500" value="- bg: PImage" style="text;strokeColor=none;fillColor=none;align=left;verticalAlign=top;spacingLeft=4;spacingRight=4;overflow=hidden;rotatable=0;points=[[0,0.5],[1,0.5]];portConstraint=eastwest;whiteSpace=wrap;html=1;" vertex="1" parent="5Mf-sOE8AnQbxtJJ7-1W-496">
          <mxGeometry y="104" width="320" height="26" as="geometry" />
        </mxCell>
        <mxCell id="5Mf-sOE8AnQbxtJJ7-1W-506" value="- lagu: String" style="text;strokeColor=none;fillColor=none;align=left;verticalAlign=top;spacingLeft=4;spacingRight=4;overflow=hidden;rotatable=0;points=[[0,0.5],[1,0.5]];portConstraint=eastwest;whiteSpace=wrap;html=1;" vertex="1" parent="5Mf-sOE8AnQbxtJJ7-1W-496">
          <mxGeometry y="130" width="320" height="26" as="geometry" />
        </mxCell>
        <mxCell id="5Mf-sOE8AnQbxtJJ7-1W-507" value="- ThemeSong: PlayMusic" style="text;strokeColor=none;fillColor=none;align=left;verticalAlign=top;spacingLeft=4;spacingRight=4;overflow=hidden;rotatable=0;points=[[0,0.5],[1,0.5]];portConstraint=eastwest;whiteSpace=wrap;html=1;" vertex="1" parent="5Mf-sOE8AnQbxtJJ7-1W-496">
          <mxGeometry y="156" width="320" height="26" as="geometry" />
        </mxCell>
        <mxCell id="5Mf-sOE8AnQbxtJJ7-1W-511" value="- adventure: GUIButton" style="text;strokeColor=none;fillColor=none;align=left;verticalAlign=top;spacingLeft=4;spacingRight=4;overflow=hidden;rotatable=0;points=[[0,0.5],[1,0.5]];portConstraint=eastwest;whiteSpace=wrap;html=1;" vertex="1" parent="5Mf-sOE8AnQbxtJJ7-1W-496">
          <mxGeometry y="182" width="320" height="26" as="geometry" />
        </mxCell>
        <mxCell id="5Mf-sOE8AnQbxtJJ7-1W-512" value="- survival: GUIButton" style="text;strokeColor=none;fillColor=none;align=left;verticalAlign=top;spacingLeft=4;spacingRight=4;overflow=hidden;rotatable=0;points=[[0,0.5],[1,0.5]];portConstraint=eastwest;whiteSpace=wrap;html=1;" vertex="1" parent="5Mf-sOE8AnQbxtJJ7-1W-496">
          <mxGeometry y="208" width="320" height="26" as="geometry" />
        </mxCell>
        <mxCell id="5Mf-sOE8AnQbxtJJ7-1W-518" value="- exit: GUIButton" style="text;strokeColor=none;fillColor=none;align=left;verticalAlign=top;spacingLeft=4;spacingRight=4;overflow=hidden;rotatable=0;points=[[0,0.5],[1,0.5]];portConstraint=eastwest;whiteSpace=wrap;html=1;" vertex="1" parent="5Mf-sOE8AnQbxtJJ7-1W-496">
          <mxGeometry y="234" width="320" height="26" as="geometry" />
        </mxCell>
        <mxCell id="5Mf-sOE8AnQbxtJJ7-1W-513" value="- cekexit: boolean&amp;nbsp;" style="text;strokeColor=none;fillColor=none;align=left;verticalAlign=top;spacingLeft=4;spacingRight=4;overflow=hidden;rotatable=0;points=[[0,0.5],[1,0.5]];portConstraint=eastwest;whiteSpace=wrap;html=1;" vertex="1" parent="5Mf-sOE8AnQbxtJJ7-1W-496">
          <mxGeometry y="260" width="320" height="26" as="geometry" />
        </mxCell>
        <mxCell id="5Mf-sOE8AnQbxtJJ7-1W-514" value="- cekadv: boolean" style="text;strokeColor=none;fillColor=none;align=left;verticalAlign=top;spacingLeft=4;spacingRight=4;overflow=hidden;rotatable=0;points=[[0,0.5],[1,0.5]];portConstraint=eastwest;whiteSpace=wrap;html=1;" vertex="1" parent="5Mf-sOE8AnQbxtJJ7-1W-496">
          <mxGeometry y="286" width="320" height="26" as="geometry" />
        </mxCell>
        <mxCell id="5Mf-sOE8AnQbxtJJ7-1W-515" value="- ceksurv: boolean" style="text;strokeColor=none;fillColor=none;align=left;verticalAlign=top;spacingLeft=4;spacingRight=4;overflow=hidden;rotatable=0;points=[[0,0.5],[1,0.5]];portConstraint=eastwest;whiteSpace=wrap;html=1;" vertex="1" parent="5Mf-sOE8AnQbxtJJ7-1W-496">
          <mxGeometry y="312" width="320" height="26" as="geometry" />
        </mxCell>
        <mxCell id="5Mf-sOE8AnQbxtJJ7-1W-540" value="" style="line;strokeWidth=1;fillColor=none;align=left;verticalAlign=middle;spacingTop=-1;spacingLeft=3;spacingRight=3;rotatable=0;labelPosition=right;points=[];portConstraint=eastwest;strokeColor=inherit;" vertex="1" parent="5Mf-sOE8AnQbxtJJ7-1W-496">
          <mxGeometry y="338" width="320" height="8" as="geometry" />
        </mxCell>
        <mxCell id="5Mf-sOE8AnQbxtJJ7-1W-541" value="+ settings() : void" style="text;strokeColor=none;fillColor=none;align=left;verticalAlign=top;spacingLeft=4;spacingRight=4;overflow=hidden;rotatable=0;points=[[0,0.5],[1,0.5]];portConstraint=eastwest;whiteSpace=wrap;html=1;" vertex="1" parent="5Mf-sOE8AnQbxtJJ7-1W-496">
          <mxGeometry y="346" width="320" height="26" as="geometry" />
        </mxCell>
        <mxCell id="5Mf-sOE8AnQbxtJJ7-1W-542" value="+ setup() : void" style="text;strokeColor=none;fillColor=none;align=left;verticalAlign=top;spacingLeft=4;spacingRight=4;overflow=hidden;rotatable=0;points=[[0,0.5],[1,0.5]];portConstraint=eastwest;whiteSpace=wrap;html=1;" vertex="1" parent="5Mf-sOE8AnQbxtJJ7-1W-496">
          <mxGeometry y="372" width="320" height="26" as="geometry" />
        </mxCell>
        <mxCell id="5Mf-sOE8AnQbxtJJ7-1W-546" value="+ draw() :&amp;nbsp; void" style="text;strokeColor=none;fillColor=none;align=left;verticalAlign=top;spacingLeft=4;spacingRight=4;overflow=hidden;rotatable=0;points=[[0,0.5],[1,0.5]];portConstraint=eastwest;whiteSpace=wrap;html=1;" vertex="1" parent="5Mf-sOE8AnQbxtJJ7-1W-496">
          <mxGeometry y="398" width="320" height="26" as="geometry" />
        </mxCell>
        <mxCell id="5Mf-sOE8AnQbxtJJ7-1W-547" value="+ update(x : int , y : int , b : GUIButton) : void" style="text;strokeColor=none;fillColor=none;align=left;verticalAlign=top;spacingLeft=4;spacingRight=4;overflow=hidden;rotatable=0;points=[[0,0.5],[1,0.5]];portConstraint=eastwest;whiteSpace=wrap;html=1;" vertex="1" parent="5Mf-sOE8AnQbxtJJ7-1W-496">
          <mxGeometry y="424" width="320" height="26" as="geometry" />
        </mxCell>
        <mxCell id="5Mf-sOE8AnQbxtJJ7-1W-564" value="+ overRect(x : int , y : int , width : int, height : int) : boolean" style="text;strokeColor=none;fillColor=none;align=left;verticalAlign=top;spacingLeft=4;spacingRight=4;overflow=hidden;rotatable=0;points=[[0,0.5],[1,0.5]];portConstraint=eastwest;whiteSpace=wrap;html=1;" vertex="1" parent="5Mf-sOE8AnQbxtJJ7-1W-496">
          <mxGeometry y="450" width="320" height="26" as="geometry" />
        </mxCell>
        <mxCell id="5Mf-sOE8AnQbxtJJ7-1W-548" value="+ mousePressed()" style="text;strokeColor=none;fillColor=none;align=left;verticalAlign=top;spacingLeft=4;spacingRight=4;overflow=hidden;rotatable=0;points=[[0,0.5],[1,0.5]];portConstraint=eastwest;whiteSpace=wrap;html=1;" vertex="1" parent="5Mf-sOE8AnQbxtJJ7-1W-496">
          <mxGeometry y="476" width="320" height="26" as="geometry" />
        </mxCell>
      </root>
    </mxGraphModel>
  </diagram>
</mxfile>
